<?xml version="1.0" encoding="UTF-8"?>
<svg version="1.1" xmlns="http://www.w3.org/2000/svg" width="512" height="512">
<path d="M0 0 C0.92151855 0.55800293 1.84303711 1.11600586 2.79248047 1.69091797 C3.84717529 2.32400879 4.90187012 2.95709961 5.98852539 3.609375 C6.54478607 3.94664612 7.10104675 4.28391724 7.67416382 4.63140869 C10.68096161 6.45349569 13.69993777 8.25519794 16.71826172 10.05810547 C17.34277725 10.4316214 17.96729279 10.80513733 18.61073303 11.18997192 C25.18053096 15.11025016 31.82060569 18.9037824 38.47216797 22.68310547 C50.1475541 29.32452864 61.76632335 36.05813308 73.35791016 42.84472656 C78.28974866 45.73191731 83.22426977 48.61450473 88.15966797 51.49560547 C89.64067993 52.36040527 89.64067993 52.36040527 91.15161133 53.24267578 C98.4510701 57.50034826 105.77183151 61.72015656 113.09716797 65.93310547 C121.99363858 71.05096759 130.84113511 76.24468055 139.65966797 81.49560547 C150.04505021 87.67720156 160.50227834 93.71663765 171.00585938 99.6940918 C181.5013196 105.66835338 191.93614324 111.74303431 202.35791016 117.84472656 C207.28974866 120.73191731 212.22426977 123.61450473 217.15966797 126.49560547 C218.14700928 127.07213867 219.13435059 127.64867187 220.15161133 128.24267578 C227.45107026 132.50034835 234.7718437 136.7201351 242.09716797 140.93310547 C252.37516848 146.84609355 262.59232978 152.85540559 272.77612305 158.92871094 C278.38316427 162.26798457 284.01207196 165.56196867 289.68212891 168.79272461 C290.32117157 169.15735054 290.96021423 169.52197647 291.61862183 169.89765167 C293.1737311 170.78488942 294.72916517 171.67155783 296.28466797 172.55810547 C296.49329294 184.05828788 296.65315975 195.55801955 296.75097752 207.05970955 C296.79792882 212.40067551 296.86159623 217.74034608 296.96362305 223.08056641 C297.06149022 228.2353879 297.1152411 233.38896454 297.13856316 238.5446434 C297.15517998 240.51039101 297.18763149 242.47607118 297.23623848 244.44128799 C297.60148591 259.82170058 297.60148591 259.82170058 294.36178589 264.09368896 C290.86119092 266.52632329 287.40919911 267.62293983 283.28466797 268.55810547 C283.33107422 269.67830078 283.37748047 270.79849609 283.42529297 271.95263672 C283.46281219 273.42526632 283.4992122 274.89792474 283.53466797 276.37060547 C283.56818359 277.10859375 283.60169922 277.84658203 283.63623047 278.60693359 C283.73491965 284.05951097 283.73491965 284.05951097 281.42919922 286.61279297 C279.28466797 287.55810547 279.28466797 287.55810547 276.72216797 286.87060547 C274.28466797 285.55810547 274.28466797 285.55810547 271.28466797 283.55810547 C270.59716797 280.43310547 270.59716797 280.43310547 270.28466797 277.55810547 C257.31649782 284.74836192 244.40707652 292.00800063 231.66455078 299.59228516 C224.61309163 303.78579523 217.52075305 307.90408719 210.40966797 311.99560547 C199.8487875 318.07316 189.31316683 324.19251083 178.79248047 330.33935547 C177.89948242 330.85498047 177.00648438 331.37060547 176.08642578 331.90185547 C174.06893509 333.09448852 172.07601193 334.32903603 170.10009766 335.58935547 C169.04467773 336.24935547 167.98925781 336.90935547 166.90185547 337.58935547 C165.94649902 338.20359375 164.99114258 338.81783203 164.00683594 339.45068359 C161.28466797 340.55810547 161.28466797 340.55810547 158.609375 339.86474609 C156.28466797 338.55810547 156.28466797 338.55810547 153.47216797 336.62060547 C150.43586573 335.21171111 150.43586573 335.21171111 148.19482422 336.47998047 C146.77325493 337.39513177 145.37913136 338.35463541 144.01904297 339.35888672 C142.28466797 340.55810547 142.28466797 340.55810547 140.28466797 340.55810547 C140.30561523 341.36030518 140.3265625 342.16250488 140.34814453 342.98901367 C140.43118113 346.61608395 140.48329001 350.24295453 140.53466797 353.87060547 C140.56818359 355.13324219 140.60169922 356.39587891 140.63623047 357.69677734 C140.64912109 358.90527344 140.66201172 360.11376953 140.67529297 361.35888672 C140.70671387 363.03204956 140.70671387 363.03204956 140.73876953 364.73901367 C140.28466797 367.55810547 140.28466797 367.55810547 138.42041016 369.45727539 C136.28466797 370.55810547 136.28466797 370.55810547 133.72216797 370.37060547 C131.28466797 369.55810547 131.28466797 369.55810547 128.28466797 367.55810547 C127.99511719 364.98291016 127.99511719 364.98291016 128.08935547 361.72998047 C128.10567017 359.95083252 128.10567017 359.95083252 128.12231445 358.13574219 C128.13464111 356.87262207 128.14696777 355.60950195 128.15966797 354.30810547 C128.07206525 343.37225159 127.06835906 336.85209056 120.25341797 328.35498047 C117.58425187 324.56306991 117.51152121 321.76282426 117.96826172 317.25341797 C118.07267578 316.69396484 118.17708984 316.13451172 118.28466797 315.55810547 C116.24443469 314.05322627 116.24443469 314.05322627 113.28466797 313.55810547 C110.38306887 314.9007192 107.88096415 316.70688325 105.28466797 318.55810547 C104.62466797 318.88810547 103.96466797 319.21810547 103.28466797 319.55810547 C103.27008545 320.36554199 103.25550293 321.17297852 103.24047852 322.00488281 C103.16620711 325.64811817 103.06947772 329.2904158 102.97216797 332.93310547 C102.93833008 334.83962891 102.93833008 334.83962891 102.90380859 336.78466797 C102.86835938 337.99638672 102.83291016 339.20810547 102.79638672 340.45654297 C102.77020264 341.57722168 102.74401855 342.69790039 102.71704102 343.85253906 C102.57435791 344.74537598 102.4316748 345.63821289 102.28466797 346.55810547 C99.28466797 348.55810547 99.28466797 348.55810547 96.84716797 348.30810547 C94.46125263 347.60978878 92.48300341 346.69694591 90.28466797 345.55810547 C90.30150635 344.78845459 90.31834473 344.01880371 90.33569336 343.22583008 C90.74724218 323.09341165 90.74724218 323.09341165 82.25341797 305.51123047 C79.41140525 301.24821139 79.50246841 298.51203603 80.28466797 293.55810547 C78.17962006 292.57949283 78.17962006 292.57949283 75.28466797 292.55810547 C73.07035004 293.69278464 71.09002954 295.00061465 69.05419922 296.42919922 C67.28466797 297.55810547 67.28466797 297.55810547 65.28466797 297.55810547 C65.30561523 298.36030518 65.3265625 299.16250488 65.34814453 299.98901367 C65.43118113 303.61608395 65.48329001 307.24295453 65.53466797 310.87060547 C65.56818359 312.13324219 65.60169922 313.39587891 65.63623047 314.69677734 C65.64912109 315.90527344 65.66201172 317.11376953 65.67529297 318.35888672 C65.69624023 319.47432861 65.7171875 320.58977051 65.73876953 321.73901367 C65.28466797 324.55810547 65.28466797 324.55810547 63.42041016 326.45727539 C61.28466797 327.55810547 61.28466797 327.55810547 58.72216797 327.37060547 C56.28466797 326.55810547 56.28466797 326.55810547 53.28466797 324.55810547 C52.97924805 321.9987793 52.97924805 321.9987793 53.05419922 318.76513672 C53.05991943 317.58411377 53.06563965 316.40309082 53.0715332 315.1862793 C53.08422241 313.29752075 53.08422241 313.29752075 53.09716797 311.37060547 C52.98930384 300.64321225 51.879541 293.43514113 46.03076172 284.51123047 C43.51089738 280.24944648 43.6090384 277.37196616 44.28466797 272.55810547 C43.50091797 272.24873047 42.71716797 271.93935547 41.90966797 271.62060547 C39.28466797 270.55810547 39.28466797 270.55810547 37.28466797 269.55810547 C37.28466797 270.21810547 37.28466797 270.87810547 37.28466797 271.55810547 C36.64730713 271.75879639 36.00994629 271.9594873 35.35327148 272.16625977 C32.48800947 273.34406724 30.53519657 274.41139038 28.28466797 276.55810547 C26.97951831 281.15165322 27.11654781 285.62261093 27.22216797 290.37060547 C27.21507812 291.63582031 27.20798828 292.90103516 27.20068359 294.20458984 C27.1889096 297.32469734 27.21832765 300.4388408 27.28466797 303.55810547 C24.65966797 304.74560547 24.65966797 304.74560547 21.28466797 305.55810547 C17.90966797 304.18310547 17.90966797 304.18310547 15.28466797 302.55810547 C15.30207031 301.35033447 15.30207031 301.35033447 15.31982422 300.11816406 C15.87083243 280.10698675 15.87083243 280.10698675 8.03076172 262.25341797 C5.38585148 258.17067062 5.63434569 255.27294201 6.28466797 250.55810547 C4.63466797 249.89810547 2.98466797 249.23810547 1.28466797 248.55810547 C0.56279297 249.15623047 -0.15908203 249.75435547 -0.90283203 250.37060547 C-3.71533203 252.55810547 -3.71533203 252.55810547 -6.35571289 253.82763672 C-8.97840407 255.35261781 -8.97840407 255.35261781 -9.3112793 258.23779297 C-9.30153076 259.29224609 -9.29178223 260.34669922 -9.28173828 261.43310547 C-9.29817383 263.15787109 -9.29817383 263.15787109 -9.31494141 264.91748047 C-9.30269531 266.11888672 -9.29044922 267.32029297 -9.27783203 268.55810547 C-9.26126859 270.93304807 -9.26176981 273.30818906 -9.28173828 275.68310547 C-9.27086182 276.73755859 -9.25998535 277.79201172 -9.2487793 278.87841797 C-9.71533203 281.55810547 -9.71533203 281.55810547 -11.58227539 283.43701172 C-13.71533203 284.55810547 -13.71533203 284.55810547 -16.27783203 284.37060547 C-18.71533203 283.55810547 -18.71533203 283.55810547 -21.71533203 281.55810547 C-21.91308594 278.9987793 -21.91308594 278.9987793 -21.69189453 275.76513672 C-20.7231064 257.40304245 -20.7231064 257.40304245 -28.66455078 241.49951172 C-30.77155082 238.47747166 -31.31068469 236.92227107 -31.46533203 233.30810547 C-31.54783203 232.07060547 -31.63033203 230.83310547 -31.71533203 229.55810547 C-34.10521136 227.41949777 -34.10521136 227.41949777 -36.71533203 226.55810547 C-36.71533203 227.21810547 -36.71533203 227.87810547 -36.71533203 228.55810547 C-37.35269287 228.75879639 -37.99005371 228.9594873 -38.64672852 229.16625977 C-41.51199053 230.34406724 -43.46480343 231.41139038 -45.71533203 233.55810547 C-47.02048169 238.15165322 -46.88345219 242.62261093 -46.77783203 247.37060547 C-46.78492188 248.63582031 -46.79201172 249.90103516 -46.79931641 251.20458984 C-46.8110904 254.32469734 -46.78167235 257.4388408 -46.71533203 260.55810547 C-50.39501953 262.58935547 -50.39501953 262.58935547 -53.27783203 262.30810547 C-55.71533203 261.55810547 -55.71533203 261.55810547 -58.71533203 259.55810547 C-59.00488281 256.90698242 -59.00488281 256.90698242 -58.91064453 253.54638672 C-58.89420898 251.70693481 -58.89420898 251.70693481 -58.87744141 249.83032227 C-58.86519531 248.52361572 -58.85294922 247.21690918 -58.84033203 245.87060547 C-58.87390572 234.86733317 -59.83775263 227.32147796 -66.68408203 218.60107422 C-68.68017811 215.61076874 -68.98488617 214.68397881 -69.24658203 211.29638672 C-69.40126953 210.06275391 -69.55595703 208.82912109 -69.71533203 207.55810547 C-71.67686516 206.28485391 -71.67686516 206.28485391 -73.71533203 205.55810547 C-77.23753188 207.09915101 -80.05246135 208.75997385 -82.71533203 211.55810547 C-83.89392508 215.96161536 -83.70411032 220.21450851 -83.52783203 224.74560547 C-83.47561234 227.09294416 -83.43967589 229.44071858 -83.42236328 231.78857422 C-83.38602783 232.82393311 -83.34969238 233.85929199 -83.31225586 234.92602539 C-83.71533203 237.55810547 -83.71533203 237.55810547 -85.57348633 239.43041992 C-87.71533203 240.55810547 -87.71533203 240.55810547 -90.27783203 240.37060547 C-92.71533203 239.55810547 -92.71533203 239.55810547 -95.71533203 237.55810547 C-96.00488281 235.09057617 -96.00488281 235.09057617 -95.91064453 231.98388672 C-95.89420898 230.28026978 -95.89420898 230.28026978 -95.87744141 228.54223633 C-95.85907227 226.72477905 -95.85907227 226.72477905 -95.84033203 224.87060547 C-95.93727258 214.00827438 -97.31393505 207.2898729 -103.69580078 198.60498047 C-106.22941924 194.78250001 -106.62631189 191.92310449 -106.42236328 187.41357422 C-106.51904297 186.80126953 -106.61572266 186.18896484 -106.71533203 185.55810547 C-108.65549061 184.24633529 -108.65549061 184.24633529 -110.71533203 183.55810547 C-111.29283203 184.17685547 -111.87033203 184.79560547 -112.46533203 185.43310547 C-115.54434148 188.34105884 -117.45666797 189.55810547 -121.71533203 189.55810547 C-121.69962158 190.39583496 -121.68391113 191.23356445 -121.66772461 192.09667969 C-121.61663196 195.20147424 -121.57899969 198.30605478 -121.55053711 201.41113281 C-121.52800952 203.41729921 -121.48989633 205.42327073 -121.45166016 207.42919922 C-121.44199219 208.68603516 -121.43232422 209.94287109 -121.42236328 211.23779297 C-121.40665283 212.40036621 -121.39094238 213.56293945 -121.37475586 214.76074219 C-121.487146 215.68387207 -121.59953613 216.60700195 -121.71533203 217.55810547 C-124.71533203 219.55810547 -124.71533203 219.55810547 -127.15283203 219.30810547 C-129.53874737 218.60978878 -131.51699659 217.69694591 -133.71533203 216.55810547 C-133.69849365 215.75816162 -133.68165527 214.95821777 -133.66430664 214.1340332 C-133.61325646 210.42019935 -133.63281481 206.70971079 -133.65283203 202.99560547 C-133.62511719 201.738125 -133.59740234 200.48064453 -133.56884766 199.18505859 C-133.65459259 192.47980474 -133.89092612 188.15329087 -137.95253944 182.69496822 C-145.46424814 172.49345086 -145.03270725 162.09286882 -144.91064453 149.86669922 C-144.91672056 147.70531839 -144.92546634 145.5439436 -144.93673706 143.38258362 C-144.94991823 138.88311411 -144.9309931 134.3852657 -144.88867188 129.88598633 C-144.83711195 124.12488073 -144.86714003 118.36752307 -144.92082405 112.60655117 C-144.95334666 108.1564556 -144.94300137 103.70725012 -144.91967392 99.25712776 C-144.91368433 97.13248304 -144.92098865 95.00775669 -144.9419899 92.88320732 C-145.06946886 76.38305866 -145.06946886 76.38305866 -141.82527161 72.01089478 C-139.4870635 70.41353511 -137.38977247 69.45985403 -134.71533203 68.55810547 C-133.746521 67.98253906 -132.77770996 67.40697266 -131.77954102 66.81396484 C-130.93206299 66.34796875 -130.08458496 65.88197266 -129.21142578 65.40185547 C-128.2364917 64.86189941 -127.26155762 64.32194336 -126.25708008 63.765625 C-125.23267822 63.20214355 -124.20827637 62.63866211 -123.15283203 62.05810547 C-114.68114253 57.3569584 -106.25912724 52.5865019 -97.90283203 47.68310547 C-89.24669732 42.6066022 -80.55827201 37.59006497 -71.84033203 32.62060547 C-63.76902309 28.01958755 -55.70504766 23.40712976 -47.66308594 18.75488281 C-44.45326896 16.8997557 -41.2386852 15.05308812 -38.02392578 13.20654297 C-33.72065523 10.73054225 -29.44795276 8.20939045 -25.18798828 5.65966797 C-23.1138536 4.43817103 -21.03963823 3.21681111 -18.96533203 1.99560547 C-18.01875732 1.41657471 -17.07218262 0.83754395 -16.09692383 0.2409668 C-15.21302979 -0.2744165 -14.32913574 -0.7897998 -13.41845703 -1.32080078 C-12.26845215 -2.0102478 -12.26845215 -2.0102478 -11.09521484 -2.71362305 C-6.87313327 -4.00562852 -3.72885637 -1.98009582 0 0 Z " fill="#4C5C75" transform="translate(179.71533203125,72.44189453125)"/>
<path d="M0 0 C10.48432399 5.17443236 10.48432399 5.17443236 15.3828125 8.05859375 C16.3094873 8.60185303 17.23616211 9.1451123 18.19091797 9.70483398 C19.15916504 10.27661377 20.12741211 10.84839355 21.125 11.4375 C23.2551729 12.68756037 25.38538225 13.93755865 27.515625 15.1875 C28.59392578 15.82171875 29.67222656 16.4559375 30.78320312 17.109375 C35.80774196 20.06247372 40.84094773 23.00065668 45.875 25.9375 C46.86089111 26.51314697 47.84678223 27.08879395 48.86254883 27.68188477 C56.16336188 31.94064313 63.48567567 36.16119539 70.8125 40.375 C79.70896912 45.49286127 88.55652153 50.68648527 97.375 55.9375 C107.22008622 61.79872411 117.12788196 67.53353186 127.08755493 73.19683838 C135.86526556 78.18919073 144.58843964 83.26521657 153.27124023 88.42089844 C159.72047256 92.24962819 166.19765949 96.02637918 172.69335938 99.77563477 C178.99478119 103.41383139 185.28006241 107.07913342 191.5625 110.75 C199.9864874 115.66939264 208.42404265 120.56458431 216.875 125.4375 C217.95539551 126.06052002 219.03579102 126.68354004 220.14892578 127.32543945 C225.58789691 130.46050866 231.02908318 133.59167855 236.47265625 136.71875 C247.08998405 142.82325242 257.67950507 148.96919992 268.20892334 155.22393799 C269.91841401 156.23867079 271.62936539 157.25094145 273.34033203 158.26318359 C278.48344751 161.30734582 283.61357074 164.36804779 288.7109375 167.48828125 C290.41139402 168.51312755 292.11191057 169.53787426 293.8125 170.5625 C294.5645874 171.03397461 295.3166748 171.50544922 296.09155273 171.99121094 C297.1387146 172.61624512 297.1387146 172.61624512 298.20703125 173.25390625 C298.7997583 173.61814697 299.39248535 173.9823877 300.00317383 174.35766602 C303.93329818 175.62189846 307.22705533 174.36599874 310.83886719 172.65576172 C312.30308105 171.80135498 312.30308105 171.80135498 313.796875 170.9296875 C315.46169922 169.96772461 315.46169922 169.96772461 317.16015625 168.98632812 C318.35684366 168.28267593 319.55345626 167.57889647 320.75 166.875 C322.00338767 166.14689302 323.25730293 165.41969358 324.51171875 164.69335938 C327.09065868 163.19838245 329.6666571 161.69852537 332.24023438 160.19433594 C337.81280507 156.93862402 343.40788332 153.72197657 349 150.5 C350.58699707 149.58323486 350.58699707 149.58323486 352.20605469 148.64794922 C360.12353832 144.07428045 368.0585805 139.53190595 376 135 C385.13376377 129.78605498 394.26193169 124.56256745 403.375 119.3125 C404.43267578 118.7033374 405.49035156 118.0941748 406.58007812 117.46655273 C411.88851282 114.40125138 417.1789383 111.30894852 422.4453125 108.171875 C423.4657666 107.56432373 424.4862207 106.95677246 425.53759766 106.33081055 C427.46948115 105.17763499 429.39896789 104.02043184 431.32568359 102.85864258 C432.17727051 102.34970459 433.02885742 101.8407666 433.90625 101.31640625 C434.65197266 100.86724854 435.39769531 100.41809082 436.16601562 99.95532227 C438 99 438 99 440 99 C440.20863214 110.36979454 440.36849526 121.73913308 440.46630955 133.11045265 C440.5132594 138.39089234 440.57692378 143.67002162 440.67895508 148.94970703 C440.776828 154.0461753 440.83057422 159.14138437 440.85389519 164.23871994 C440.87051103 166.18214115 440.9029607 168.12549421 440.95157051 170.06837845 C441.31680744 185.27280439 441.31680744 185.27280439 438.07711792 189.52215576 C434.57577468 191.95495122 431.12671352 193.06640583 427 194 C427.04640625 195.12019531 427.0928125 196.24039063 427.140625 197.39453125 C427.17814423 198.86716085 427.21454423 200.33981927 427.25 201.8125 C427.30027344 202.91948242 427.30027344 202.91948242 427.3515625 204.04882812 C427.45025168 209.5014055 427.45025168 209.5014055 425.14453125 212.0546875 C423 213 423 213 420.4375 212.3125 C418 211 418 211 415 209 C414.3125 205.875 414.3125 205.875 414 203 C401.03182985 210.19025645 388.12240856 217.44989516 375.37988281 225.03417969 C368.32842366 229.22768977 361.23608508 233.34598172 354.125 237.4375 C343.56411953 243.51505453 333.02849886 249.63440537 322.5078125 255.78125 C321.61481445 256.296875 320.72181641 256.8125 319.80175781 257.34375 C317.78426712 258.53638305 315.79134396 259.77093056 313.81542969 261.03125 C312.76000977 261.69125 311.70458984 262.35125 310.6171875 263.03125 C309.66183105 263.64548828 308.70647461 264.25972656 307.72216797 264.89257812 C305 266 305 266 302.32470703 265.30664062 C300 264 300 264 297.1875 262.0625 C294.15119776 260.65360564 294.15119776 260.65360564 291.91015625 261.921875 C290.48858696 262.8370263 289.09446339 263.79652994 287.734375 264.80078125 C286 266 286 266 284 266 C284.02094727 266.80219971 284.04189453 267.60439941 284.06347656 268.4309082 C284.14651316 272.05797848 284.19862204 275.68484906 284.25 279.3125 C284.28351563 280.57513672 284.31703125 281.83777344 284.3515625 283.13867188 C284.36445313 284.34716797 284.37734375 285.55566406 284.390625 286.80078125 C284.4220459 288.47394409 284.4220459 288.47394409 284.45410156 290.1809082 C284 293 284 293 282.13574219 294.89916992 C280 296 280 296 277.4375 295.8125 C275 295 275 295 272 293 C271.71044922 290.42480469 271.71044922 290.42480469 271.8046875 287.171875 C271.8210022 285.39272705 271.8210022 285.39272705 271.83764648 283.57763672 C271.84997314 282.3145166 271.8622998 281.05139648 271.875 279.75 C271.78739729 268.81414612 270.78369109 262.29398509 263.96875 253.796875 C261.29958391 250.00496444 261.22685324 247.20471879 261.68359375 242.6953125 C261.78800781 242.13585937 261.89242188 241.57640625 262 241 C259.95976672 239.4951208 259.95976672 239.4951208 257 239 C254.09840091 240.34261373 251.59629618 242.14877778 249 244 C248.34 244.33 247.68 244.66 247 245 C246.98541748 245.80743652 246.97083496 246.61487305 246.95581055 247.44677734 C246.88153914 251.0900127 246.78480975 254.73231033 246.6875 258.375 C246.65366211 260.28152344 246.65366211 260.28152344 246.61914062 262.2265625 C246.58369141 263.43828125 246.54824219 264.65 246.51171875 265.8984375 C246.48553467 267.01911621 246.45935059 268.13979492 246.43237305 269.29443359 C246.28968994 270.18727051 246.14700684 271.08010742 246 272 C243 274 243 274 240.5625 273.75 C238.17658466 273.05168332 236.19833544 272.13884044 234 271 C234.01683838 270.23034912 234.03367676 269.46069824 234.05102539 268.66772461 C234.46257421 248.53530618 234.46257421 248.53530618 225.96875 230.953125 C223.12673728 226.69010593 223.21780044 223.95393056 224 219 C221.8949521 218.02138736 221.8949521 218.02138736 219 218 C216.78568207 219.13467917 214.80536158 220.44250918 212.76953125 221.87109375 C211 223 211 223 209 223 C209.02094727 223.80219971 209.04189453 224.60439941 209.06347656 225.4309082 C209.14651316 229.05797848 209.19862204 232.68484906 209.25 236.3125 C209.28351563 237.57513672 209.31703125 238.83777344 209.3515625 240.13867188 C209.36445313 241.34716797 209.37734375 242.55566406 209.390625 243.80078125 C209.41157227 244.91622314 209.43251953 246.03166504 209.45410156 247.1809082 C209 250 209 250 207.13574219 251.89916992 C205 253 205 253 202.4375 252.8125 C200 252 200 252 197 250 C196.69458008 247.44067383 196.69458008 247.44067383 196.76953125 244.20703125 C196.77525146 243.0260083 196.78097168 241.84498535 196.78686523 240.62817383 C196.79955444 238.73941528 196.79955444 238.73941528 196.8125 236.8125 C196.70463587 226.08510678 195.59487303 218.87703566 189.74609375 209.953125 C187.22622941 205.69134101 187.32437043 202.81386069 188 198 C187.21625 197.690625 186.4325 197.38125 185.625 197.0625 C183 196 183 196 181 195 C181 195.66 181 196.32 181 197 C180.36263916 197.20069092 179.72527832 197.40138184 179.06860352 197.6081543 C176.20334151 198.78596178 174.2505286 199.85328491 172 202 C170.69485034 206.59354775 170.83187984 211.06450546 170.9375 215.8125 C170.93041016 217.07771484 170.92332031 218.34292969 170.91601562 219.64648438 C170.90424163 222.76659187 170.93365968 225.88073533 171 229 C168.375 230.1875 168.375 230.1875 165 231 C161.625 229.625 161.625 229.625 159 228 C159.01740234 226.792229 159.01740234 226.792229 159.03515625 225.56005859 C159.58616446 205.54888128 159.58616446 205.54888128 151.74609375 187.6953125 C149.10118351 183.61256515 149.34967772 180.71483654 150 176 C148.35 175.34 146.7 174.68 145 174 C144.278125 174.598125 143.55625 175.19625 142.8125 175.8125 C140 178 140 178 137.35961914 179.26953125 C134.73692796 180.79451234 134.73692796 180.79451234 134.40405273 183.6796875 C134.41380127 184.73414063 134.4235498 185.78859375 134.43359375 186.875 C134.4171582 188.59976563 134.4171582 188.59976563 134.40039062 190.359375 C134.41263672 191.56078125 134.42488281 192.7621875 134.4375 194 C134.45406344 196.3749426 134.45356222 198.75008359 134.43359375 201.125 C134.44447021 202.17945313 134.45534668 203.23390625 134.46655273 204.3203125 C134 207 134 207 132.13305664 208.87890625 C130 210 130 210 127.4375 209.8125 C125 209 125 209 122 207 C121.80224609 204.44067383 121.80224609 204.44067383 122.0234375 201.20703125 C122.99222563 182.84493698 122.99222563 182.84493698 115.05078125 166.94140625 C112.94378121 163.9193662 112.40464734 162.3641656 112.25 158.75 C112.1675 157.5125 112.085 156.275 112 155 C109.61012067 152.8613923 109.61012067 152.8613923 107 152 C107 152.66 107 153.32 107 154 C106.36263916 154.20069092 105.72527832 154.40138184 105.06860352 154.6081543 C102.20334151 155.78596178 100.2505286 156.85328491 98 159 C96.69485034 163.59354775 96.83187984 168.06450546 96.9375 172.8125 C96.93041016 174.07771484 96.92332031 175.34292969 96.91601562 176.64648438 C96.90424163 179.76659187 96.93365968 182.88073533 97 186 C93.3203125 188.03125 93.3203125 188.03125 90.4375 187.75 C88 187 88 187 85 185 C84.71044922 182.34887695 84.71044922 182.34887695 84.8046875 178.98828125 C84.82112305 177.14882935 84.82112305 177.14882935 84.83789062 175.2722168 C84.85013672 173.96551025 84.86238281 172.65880371 84.875 171.3125 C84.84142631 160.3092277 83.8775794 152.7633725 77.03125 144.04296875 C75.03515392 141.05266327 74.73044586 140.12587334 74.46875 136.73828125 C74.3140625 135.50464844 74.159375 134.27101563 74 133 C72.03846687 131.72674845 72.03846687 131.72674845 70 131 C66.47780015 132.54104554 63.66287068 134.20186838 61 137 C59.82140695 141.40350989 60.01122171 145.65640304 60.1875 150.1875 C60.23971969 152.53483869 60.27565614 154.88261311 60.29296875 157.23046875 C60.3293042 158.26582764 60.36563965 159.30118652 60.40307617 160.36791992 C60 163 60 163 58.1418457 164.87231445 C56 166 56 166 53.4375 165.8125 C51 165 51 165 48 163 C47.71044922 160.5324707 47.71044922 160.5324707 47.8046875 157.42578125 C47.82112305 155.72216431 47.82112305 155.72216431 47.83789062 153.98413086 C47.85625977 152.16667358 47.85625977 152.16667358 47.875 150.3125 C47.77805945 139.45016891 46.40139698 132.73176743 40.01953125 124.046875 C37.48591279 120.22439454 37.08902014 117.36499902 37.29296875 112.85546875 C37.19628906 112.24316406 37.09960938 111.63085938 37 111 C35.05984142 109.68822982 35.05984142 109.68822982 33 109 C32.4225 109.61875 31.845 110.2375 31.25 110.875 C28.17099055 113.78295337 26.25866406 115 22 115 C22.01571045 115.83772949 22.0314209 116.67545898 22.04760742 117.53857422 C22.09870007 120.64336877 22.13633234 123.74794931 22.16479492 126.85302734 C22.18732251 128.85919374 22.2254357 130.86516526 22.26367188 132.87109375 C22.27333984 134.12792969 22.28300781 135.38476562 22.29296875 136.6796875 C22.3086792 137.84226074 22.32438965 139.00483398 22.34057617 140.20263672 C22.22818604 141.1257666 22.1157959 142.04889648 22 143 C19 145 19 145 16.5625 144.75 C14.17658466 144.05168332 12.19833544 143.13884044 10 142 C10.01683838 141.20005615 10.03367676 140.4001123 10.05102539 139.57592773 C10.10207557 135.86209388 10.08251723 132.15160532 10.0625 128.4375 C10.09021484 127.18001953 10.11792969 125.92253906 10.14648438 124.62695312 C10.06061693 117.91211885 9.8306179 113.60195447 5.746665 108.14761448 C-1.85300132 97.87117937 -1.16108017 87.39667496 -0.87890625 75.09765625 C-0.8620831 72.92193762 -0.84928949 70.74618448 -0.84031677 68.57041931 C-0.80624419 62.89294336 -0.71809513 57.21759866 -0.61798096 51.54095459 C-0.52527724 45.72876809 -0.48467396 39.91623115 -0.43945312 34.10351562 C-0.34344555 22.73474977 -0.19020281 11.36755332 0 0 Z " fill="#111D33" transform="translate(36,147)"/>
<path d="M0 0 C1.86544891 0.99058994 3.70107989 2.03878994 5.5078125 3.1328125 C6.56250732 3.76590332 7.61720215 4.39899414 8.70385742 5.05126953 C9.2601181 5.38854065 9.81637878 5.72581177 10.38949585 6.07330322 C13.39629364 7.89539022 16.4152698 9.69709247 19.43359375 11.5 C20.05810928 11.87351593 20.68262482 12.24703186 21.32606506 12.63186646 C27.89586299 16.55214469 34.53593772 20.34567693 41.1875 24.125 C52.86288613 30.76642317 64.48165538 37.50002761 76.07324219 44.28662109 C81.00508069 47.17381184 85.9396018 50.05639926 90.875 52.9375 C92.35601196 53.8022998 92.35601196 53.8022998 93.86694336 54.68457031 C101.16640213 58.94224279 108.48716354 63.16205109 115.8125 67.375 C124.70897061 72.49286212 133.55646714 77.68657508 142.375 82.9375 C152.76038225 89.11909609 163.21761037 95.15853218 173.72119141 101.13598633 C184.21665164 107.11024791 194.65147527 113.18492884 205.07324219 119.28662109 C210.00508069 122.17381184 214.9396018 125.05639926 219.875 127.9375 C220.86234131 128.5140332 221.84968262 129.09056641 222.86694336 129.68457031 C230.16640229 133.94224288 237.48717573 138.16202963 244.8125 142.375 C255.1526041 148.32371661 265.42520951 154.37917493 275.67822266 160.47607422 C283.40601472 165.06785107 291.16332586 169.59639752 299 174 C295.59166354 176.8455204 292.16533016 179.18211602 288.30078125 181.36328125 C287.18767578 181.99492187 286.07457031 182.6265625 284.92773438 183.27734375 C284.04541138 183.77403564 284.04541138 183.77403564 283.14526367 184.28076172 C280.63143941 185.6958971 278.12305265 187.12055205 275.61422729 188.54452515 C274.31659948 189.28088741 273.01868436 190.0167436 271.7204895 190.75210571 C265.4599667 194.29958137 259.22818157 197.89608193 253 201.5 C243.42890188 207.03157137 233.8380163 212.52764431 224.23654175 218.00622559 C216.76436775 222.27041323 209.30044673 226.5484567 201.85058594 230.8515625 C199.68189483 232.1036966 197.51199759 233.35374434 195.34082031 234.6015625 C190.17393223 237.57320069 185.02829781 240.57260334 179.91796875 243.640625 C178.96011475 244.20813477 178.00226074 244.77564453 177.01538086 245.36035156 C175.22550003 246.42160694 173.44314519 247.49570374 171.67016602 248.58496094 C165.90363436 251.9784849 165.90363436 251.9784849 161.8828125 252.07421875 C158.2031173 250.70305861 154.94731551 248.87428167 151.625 246.8125 C150.10598625 245.89497604 148.58642317 244.9783611 147.06640625 244.0625 C146.25059082 243.5675 145.43477539 243.0725 144.59423828 242.5625 C139.9460658 239.76292312 135.25222032 237.0416976 130.5625 234.3125 C129.04354126 233.42630981 129.04354126 233.42630981 127.49389648 232.5222168 C120.0739121 228.19606521 112.63296625 223.90709879 105.1875 219.625 C96.1853835 214.44709596 87.2350848 209.1886855 78.3125 203.875 C68.9411784 198.29546863 59.50682991 192.84879388 49.99707031 187.5090332 C43.10596679 183.63715923 36.27842122 179.67056355 29.4765625 175.64453125 C24.14442949 172.48865535 18.79073569 169.36990258 13.4375 166.25 C12.41906006 165.65638672 11.40062012 165.06277344 10.35131836 164.45117188 C8.26890529 163.23742441 6.18646697 162.02372027 4.10400391 160.81005859 C1.08268252 159.04821521 -1.93739749 157.28426522 -4.95703125 155.51953125 C-15.28788352 149.48360435 -25.63256982 143.47290989 -36 137.5 C-49.35009178 129.80871162 -62.65733042 122.0451709 -75.95898438 114.27050781 C-88.52501168 106.92720972 -101.11142926 99.62115159 -113.72363281 92.35742188 C-122.51369783 87.29087022 -131.26921574 82.16794333 -140 77 C-138.74327861 73.22983584 -137.70437669 72.99288597 -134.27734375 71.13671875 C-133.27662842 70.58709473 -132.27591309 70.0374707 -131.24487305 69.47119141 C-130.15343994 68.88257324 -129.06200684 68.29395508 -127.9375 67.6875 C-125.62915499 66.41983071 -123.32183508 65.15044067 -121.015625 63.87890625 C-120.42641769 63.55517029 -119.83721039 63.23143433 -119.23014832 62.89788818 C-113.49104941 59.73817672 -107.83443818 56.44574815 -102.1875 53.125 C-93.57160844 48.07200166 -84.92562098 43.07461356 -76.25 38.125 C-75.66701141 37.79230103 -75.08402283 37.45960205 -74.48336792 37.11682129 C-69.72617909 34.4023631 -64.96737899 31.69073475 -60.20849609 28.97924805 C-56.05491021 26.61248565 -51.90204179 24.24447022 -47.75 21.875 C-47.17439331 21.54661133 -46.59878662 21.21822266 -46.0057373 20.87988281 C-36.45384963 15.42819623 -26.94316625 9.90955814 -17.45996094 4.33935547 C-16.53473633 3.79682129 -15.60951172 3.25428711 -14.65625 2.6953125 C-13.44678711 1.9839917 -13.44678711 1.9839917 -12.21289062 1.25830078 C-11.48263672 0.84306152 -10.75238281 0.42782227 -10 0 C-9.36771484 -0.42684082 -8.73542969 -0.85368164 -8.08398438 -1.29345703 C-4.8950103 -2.37462983 -3.03681997 -1.29629131 0 0 Z M-11.3359375 16.9375 C-13.00462891 17.8965625 -13.00462891 17.8965625 -14.70703125 18.875 C-15.92970703 19.58329962 -17.15236272 20.29163392 -18.375 21 C-19.64166578 21.72962049 -20.90859705 22.45878026 -22.17578125 23.1875 C-24.81190926 24.70393816 -27.44687558 26.22236665 -30.08105469 27.7421875 C-36.04340284 31.18007003 -42.02243193 34.58866886 -48 38 C-50.32700686 39.32910524 -52.65375462 40.65866365 -54.98046875 41.98828125 C-55.55706741 42.31774246 -56.13366608 42.64720367 -56.72773743 42.98664856 C-60.27840732 45.01560721 -63.82838884 47.04576523 -67.37789917 49.07675171 C-82.55959669 57.76345654 -97.76195227 66.41241833 -113 75 C-111.73707574 78.78877279 -110.65511028 79.03289649 -107.20703125 80.8984375 C-106.19584229 81.45329834 -105.18465332 82.00815918 -104.14282227 82.57983398 C-103.04381592 83.17223877 -101.94480957 83.76464355 -100.8125 84.375 C-98.50402112 85.64237117 -96.19674976 86.91194403 -93.890625 88.18359375 C-93.30632217 88.50487747 -92.72201935 88.82616119 -92.12001038 89.15718079 C-86.7025121 92.14360963 -81.37403116 95.26751677 -76.0625 98.4375 C-68.11885657 103.16725329 -60.13835638 107.82678359 -52.125 112.4375 C-40.71718085 119.00316342 -29.34041827 125.62030964 -17.9765625 132.26171875 C-14.96486876 134.02051627 -11.95145816 135.77633606 -8.9375 137.53125 C-7.93444824 138.11575928 -6.93139648 138.70026855 -5.89794922 139.30249023 C-3.90066933 140.46533878 -1.90231501 141.62634409 0.09716797 142.78540039 C5.18920356 145.74419505 10.24413058 148.74987109 15.2578125 151.83984375 C16.26440918 152.45400146 17.27100586 153.06815918 18.30810547 153.70092773 C20.22942506 154.87588243 22.14295905 156.06369111 24.04736328 157.26586914 C24.90313965 157.78656982 25.75891602 158.30727051 26.640625 158.84375 C27.38860352 159.30974609 28.13658203 159.77574219 28.90722656 160.25585938 C31.00777235 161.23139882 31.00777235 161.23139882 33.22558594 160.36132812 C35.41397942 158.98946976 35.41397942 158.98946976 35.75 155.375 C35.8325 154.26125 35.915 153.1475 36 152 C36.66 152 37.32 152 38 152 C38.061875 153.010625 38.12375 154.02125 38.1875 155.0625 C38.85713804 159.5940232 40.83273538 162.73553033 44 166 C47.32138509 168.45945965 50.87957238 170.34073158 55 171 C54.01 171.66 53.02 172.32 52 173 C68.632345 182.72676952 85.303658 192.38350154 102 202 C115.01454143 209.49591244 128.02455361 216.99905022 141 224.5625 C141.9605127 225.12203369 142.92102539 225.68156738 143.91064453 226.25805664 C144.82700684 226.79293701 145.74336914 227.32781738 146.6875 227.87890625 C147.57179688 228.38953613 148.45609375 228.90016602 149.3671875 229.42626953 C151.17220026 230.50519314 152.94779687 231.63444012 154.6953125 232.80419922 C159.4334494 236.12435532 159.4334494 236.12435532 164.9453125 236.765625 C165.95335937 236.18296875 166.96140625 235.6003125 168 235 C168.76538086 234.57912109 169.53076172 234.15824219 170.31933594 233.72460938 C173.20314057 232.11675922 176.03864385 230.44008868 178.875 228.75 C181.04159347 227.47253211 183.2082622 226.19519184 185.375 224.91796875 C186.4784375 224.26489746 187.581875 223.61182617 188.71875 222.93896484 C193.75932 219.96037802 198.81670801 217.01085772 203.875 214.0625 C204.85839355 213.48854492 205.84178711 212.91458984 206.85498047 212.32324219 C215.30084923 207.39728404 223.77033122 202.51273969 232.24243164 197.63208008 C239.9447355 193.19235204 247.63345486 188.72983391 255.3125 184.25 C256.31474609 183.66541016 257.31699219 183.08082031 258.34960938 182.47851562 C262.17730707 180.24352654 262.17730707 180.24352654 266 178 C267.38674927 177.23187988 267.38674927 177.23187988 268.80151367 176.44824219 C269.52701416 175.97032227 270.25251465 175.49240234 271 175 C271 174.34 271 173.68 271 173 C269.9162207 172.38294189 269.9162207 172.38294189 268.81054688 171.75341797 C255.14961858 163.97152151 241.50963683 156.15857684 227.93896484 148.2199707 C217.41304776 142.06463149 206.84815833 135.97742889 196.28222656 129.89111328 C190.85340058 126.76319852 185.42680719 123.63141552 180 120.5 C177.83334417 119.24998121 175.6666775 117.99998122 173.5 116.75 C151.83333333 104.25 130.16666667 91.75 108.5 79.25 C107.42733887 78.63116943 106.35467773 78.01233887 105.24951172 77.37475586 C103.08442929 76.12564482 100.91939018 74.87645871 98.75439453 73.62719727 C93.31384294 70.48797691 87.87252784 67.35009437 82.4296875 64.21484375 C70.95204938 57.60153798 59.4903356 50.96248753 48.05395508 44.27807617 C39.4795072 39.27013532 30.87911092 34.3078401 22.27148438 29.35717773 C17.38227887 26.54201134 12.50143734 23.71584536 7.65234375 20.83203125 C6.85691162 20.35926758 6.06147949 19.88650391 5.24194336 19.39941406 C3.79114478 18.53427489 2.34257863 17.66537628 0.89672852 16.79199219 C-4.65372772 13.47986513 -5.81693948 13.75023121 -11.3359375 16.9375 Z " fill="#4C5C75" transform="translate(177,71)"/>
<path d="M0 0 C0.66 0 1.32 0 2 0 C2.20863214 11.36979454 2.36849526 22.73913308 2.46630955 34.11045265 C2.5132594 39.39089234 2.57692378 44.67002162 2.67895508 49.94970703 C2.776828 55.0461753 2.83057422 60.14138437 2.85389519 65.23871994 C2.87051103 67.18214115 2.9029607 69.12549421 2.95157051 71.06837845 C3.31680744 86.27280439 3.31680744 86.27280439 0.07711792 90.52215576 C-3.42422532 92.95495122 -6.87328648 94.06640583 -11 95 C-10.95359375 96.12019531 -10.9071875 97.24039063 -10.859375 98.39453125 C-10.82185577 99.86716085 -10.78545577 101.33981927 -10.75 102.8125 C-10.71648437 103.55048828 -10.68296875 104.28847656 -10.6484375 105.04882812 C-10.54974832 110.5014055 -10.54974832 110.5014055 -12.85546875 113.0546875 C-15 114 -15 114 -17.5625 113.3125 C-20 112 -20 112 -23 110 C-23.6875 106.875 -23.6875 106.875 -24 104 C-36.96817015 111.19025645 -49.87759144 118.44989516 -62.62011719 126.03417969 C-69.67157634 130.22768977 -76.76391492 134.34598172 -83.875 138.4375 C-94.43588047 144.51505453 -104.97150114 150.63440537 -115.4921875 156.78125 C-116.3800293 157.29945313 -117.26787109 157.81765625 -118.18261719 158.3515625 C-120.23238158 159.55087005 -122.27956751 160.75458783 -124.32519531 161.9609375 C-125.41670898 162.60289062 -126.50822266 163.24484375 -127.6328125 163.90625 C-128.6345752 164.49728516 -129.63633789 165.08832031 -130.66845703 165.69726562 C-133 167 -133 167 -134 167 C-134 137.3 -134 107.6 -134 77 C-125.09 72.05 -116.18 67.1 -107 62 C-98.06871145 56.80964906 -98.06871145 56.80964906 -89.15234375 51.59375 C-82.50555738 47.6991738 -75.81780045 43.87719996 -69.125 40.0625 C-59.01347172 34.29782519 -48.9208578 28.50151415 -38.84448242 22.67553711 C-32.96692792 19.28004733 -27.08096222 15.89998181 -21.18359375 12.5390625 C-20.53444 12.16896057 -19.88528625 11.79885864 -19.21646118 11.4175415 C-16.052477 9.61400958 -12.88740567 7.81242643 -9.72070312 6.01367188 C-8.59470703 5.37236328 -7.46871094 4.73105469 -6.30859375 4.0703125 C-4.80510376 3.21590576 -4.80510376 3.21590576 -3.27124023 2.34423828 C-1.10819715 1.19098526 -1.10819715 1.19098526 0 0 Z " fill="#1D2943" transform="translate(474,246)"/>
<path d="M0 0 C2.57348633 1.26831055 2.57348633 1.26831055 5.33203125 2.88671875 C6.36521484 3.48806641 7.39839844 4.08941406 8.46289062 4.70898438 C10.12094727 5.68834961 10.12094727 5.68834961 11.8125 6.6875 C12.97942801 7.36980755 14.1467522 8.05143794 15.31445312 8.73242188 C17.71404049 10.13334131 20.11123378 11.53822353 22.50634766 12.94677734 C26.69157008 15.40797062 30.88612215 17.85307831 35.08081055 20.2980957 C37.03985157 21.44022793 38.99834097 22.58330682 40.95629883 23.72729492 C48.28931582 28.01084338 55.64108944 32.26111455 63 36.5 C76.35015665 44.19117469 89.65733128 51.9548296 102.95898438 59.72949219 C115.38082591 66.98853142 127.82158421 74.21304171 140.28857422 81.39428711 C148.52969191 86.14414532 156.7486691 90.93095041 164.9609375 95.73046875 C172.29283764 100.01222146 179.64270807 104.26204691 187 108.5 C200.35015665 116.19117469 213.65733128 123.9548296 226.95898438 131.72949219 C229.93065502 133.46606834 232.90272155 135.20196438 235.875 136.9375 C236.84695313 137.50525146 237.81890625 138.07300293 238.8203125 138.65795898 C244.22978087 141.81392589 249.6483265 144.95340744 255.078125 148.07421875 C255.96330307 148.58332039 255.96330307 148.58332039 256.86636353 149.10270691 C259.72559138 150.74692886 262.58606705 152.38885878 265.44873047 154.02709961 C276.52040834 160.38729623 276.52040834 160.38729623 280 163 C280 163.66 280 164.32 280 165 C277.4607789 166.42196381 274.92155579 167.84392403 272.38232422 169.26586914 C270.13782488 170.52280858 267.89335965 171.7798089 265.64892578 173.03686523 C259.96075668 176.22261608 254.27211938 179.4075211 248.58203125 182.58984375 C237.5997442 188.73331084 226.62994617 194.89783834 215.67895508 201.09692383 C207.42948524 205.76398566 199.16777891 210.40920044 190.88549805 215.01782227 C186.25045629 217.59968451 181.63339966 220.19740525 177.078125 222.91796875 C176.347146 223.34883789 175.61616699 223.77970703 174.86303711 224.22363281 C173.548193 225.00198796 172.24085769 225.79325493 170.94360352 226.60058594 C166.79707444 229.0373203 164.60432857 229.1363327 160 228 C157.28466797 226.67163086 157.28466797 226.67163086 154.4921875 224.96484375 C153.43749268 224.32853027 152.38279785 223.6922168 151.29614258 223.03662109 C150.7398819 222.69524109 150.18362122 222.35386108 149.61050415 222.00213623 C146.60771648 220.16009134 143.58558654 218.35015937 140.56640625 216.53515625 C139.94189072 216.15854858 139.31737518 215.78194092 138.67393494 215.3939209 C132.11454321 211.44645442 125.4700358 207.6537517 118.8125 203.875 C109.16609257 198.38999702 99.55586991 192.84725049 89.97851562 187.24243164 C81.16156863 182.08516813 72.31546197 176.9794502 63.46240234 171.88452148 C61.91286865 170.99228882 61.91286865 170.99228882 60.33203125 170.08203125 C59.42171143 169.55843018 58.5113916 169.0348291 57.57348633 168.49536133 C55.79581619 167.46242047 54.03729592 166.39606115 52.2956543 165.3034668 C50.14071866 163.81686651 50.14071866 163.81686651 47.9375 164.0625 C45.42925669 165.27616612 43.85557973 166.94560816 42 169 C37.60616294 167.40376856 33.71004193 165.21975667 29.6875 162.875 C29.04232422 162.50246094 28.39714844 162.12992188 27.73242188 161.74609375 C26.15324055 160.83367787 24.57638136 159.91724491 23 159 C25.46741391 156.35892646 27.57440916 155.20358597 31 154 C31 153.34 31 152.68 31 152 C30.28497314 151.73155273 29.56994629 151.46310547 28.83325195 151.18652344 C25.95715155 149.98205571 23.36331631 148.58145042 20.66796875 147.015625 C19.63478516 146.4175 18.60160156 145.819375 17.53710938 145.203125 C15.87905273 144.23632812 15.87905273 144.23632812 14.1875 143.25 C13.02034057 142.57264387 11.85302025 141.89556488 10.68554688 141.21875 C7.12089194 139.15063886 3.56001978 137.07607734 0 135 C-1.03817871 134.39478516 -2.07635742 133.78957031 -3.14599609 133.16601562 C-7.08363286 130.86965015 -11.02067602 128.57227653 -14.95629883 126.27246094 C-22.28954097 121.9893815 -29.64108887 117.73880273 -37 113.5 C-46.33437746 108.1233099 -55.64898153 102.71414125 -64.94775391 97.27612305 C-71.29055333 93.57015324 -77.65113257 89.89655271 -84.02197266 86.23901367 C-92.92885468 81.1214801 -101.82421542 75.9859679 -110.625 70.6875 C-111.38345215 70.23737549 -112.1419043 69.78725098 -112.92333984 69.32348633 C-114.65123253 68.27216327 -116.33216546 67.14421207 -118 66 C-118 65.34 -118 64.68 -118 64 C-116.40885417 63.08203125 -114.81770833 62.1640625 -113.2265625 61.24609375 C-111.66832764 60.34709351 -111.66832764 60.34709351 -110.07861328 59.42993164 C-107.74109133 58.08138671 -105.40353227 56.73290632 -103.06591797 55.38452148 C-97.19915714 52.00032899 -91.33297885 48.61514162 -85.46875 45.2265625 C-73.7466543 38.45493807 -62.00908777 31.71131945 -50.25119019 25.00210571 C-39.2762957 18.73910694 -28.32768972 12.43144791 -17.38671875 6.109375 C-16.44876465 5.57248047 -15.51081055 5.03558594 -14.54443359 4.48242188 C-12.9781137 3.56986244 -11.42517874 2.63324615 -9.89697266 1.65820312 C-6.05705775 -0.75917672 -4.32855148 -1.27063156 0 0 Z M-10.3359375 4.9375 C-12.00462891 5.8965625 -12.00462891 5.8965625 -13.70703125 6.875 C-14.92970703 7.58329962 -16.15236272 8.29163392 -17.375 9 C-18.64166578 9.72962049 -19.90859705 10.45878026 -21.17578125 11.1875 C-23.81190926 12.70393816 -26.44687558 14.22236665 -29.08105469 15.7421875 C-35.04340284 19.18007003 -41.02243193 22.58866886 -47 26 C-49.32700686 27.32910524 -51.65375462 28.65866365 -53.98046875 29.98828125 C-54.55706741 30.31774246 -55.13366608 30.64720367 -55.72773743 30.98664856 C-59.27840732 33.01560721 -62.82838884 35.04576523 -66.37789917 37.07675171 C-81.55959669 45.76345654 -96.76195227 54.41241833 -112 63 C-110.73707574 66.78877279 -109.65511028 67.03289649 -106.20703125 68.8984375 C-105.19584229 69.45329834 -104.18465332 70.00815918 -103.14282227 70.57983398 C-102.04381592 71.17223877 -100.94480957 71.76464355 -99.8125 72.375 C-97.50402112 73.64237117 -95.19674976 74.91194403 -92.890625 76.18359375 C-92.30632217 76.50487747 -91.72201935 76.82616119 -91.12001038 77.15718079 C-85.7025121 80.14360963 -80.37403116 83.26751677 -75.0625 86.4375 C-67.11885657 91.16725329 -59.13835638 95.82678359 -51.125 100.4375 C-39.71718085 107.00316342 -28.34041827 113.62030964 -16.9765625 120.26171875 C-13.96486876 122.02051627 -10.95145816 123.77633606 -7.9375 125.53125 C-6.93444824 126.11575928 -5.93139648 126.70026855 -4.89794922 127.30249023 C-2.90066933 128.46533878 -0.90231501 129.62634409 1.09716797 130.78540039 C6.18920356 133.74419505 11.24413058 136.74987109 16.2578125 139.83984375 C17.26440918 140.45400146 18.27100586 141.06815918 19.30810547 141.70092773 C21.22942506 142.87588243 23.14295905 144.06369111 25.04736328 145.26586914 C25.90313965 145.78656982 26.75891602 146.30727051 27.640625 146.84375 C28.38860352 147.30974609 29.13658203 147.77574219 29.90722656 148.25585938 C32.00777235 149.23139882 32.00777235 149.23139882 34.22558594 148.36132812 C36.41397942 146.98946976 36.41397942 146.98946976 36.75 143.375 C36.8325 142.26125 36.915 141.1475 37 140 C37.66 140 38.32 140 39 140 C39.061875 141.010625 39.12375 142.02125 39.1875 143.0625 C39.85713804 147.5940232 41.83273538 150.73553033 45 154 C48.32138509 156.45945965 51.87957238 158.34073158 56 159 C55.01 159.66 54.02 160.32 53 161 C69.632345 170.72676952 86.303658 180.38350154 103 190 C116.01454143 197.49591244 129.02455361 204.99905022 142 212.5625 C142.9605127 213.12203369 143.92102539 213.68156738 144.91064453 214.25805664 C145.82700684 214.79293701 146.74336914 215.32781738 147.6875 215.87890625 C148.57179688 216.38953613 149.45609375 216.90016602 150.3671875 217.42626953 C152.17220026 218.50519314 153.94779687 219.63444012 155.6953125 220.80419922 C160.4334494 224.12435532 160.4334494 224.12435532 165.9453125 224.765625 C166.95335937 224.18296875 167.96140625 223.6003125 169 223 C169.76538086 222.57912109 170.53076172 222.15824219 171.31933594 221.72460938 C174.20314057 220.11675922 177.03864385 218.44008868 179.875 216.75 C182.04159347 215.47253211 184.2082622 214.19519184 186.375 212.91796875 C187.4784375 212.26489746 188.581875 211.61182617 189.71875 210.93896484 C194.75932 207.96037802 199.81670801 205.01085772 204.875 202.0625 C205.85839355 201.48854492 206.84178711 200.91458984 207.85498047 200.32324219 C216.30084923 195.39728404 224.77033122 190.51273969 233.24243164 185.63208008 C240.9447355 181.19235204 248.63345486 176.72983391 256.3125 172.25 C257.31474609 171.66541016 258.31699219 171.08082031 259.34960938 170.47851562 C263.17730707 168.24352654 263.17730707 168.24352654 267 166 C268.38674927 165.23187988 268.38674927 165.23187988 269.80151367 164.44824219 C270.52701416 163.97032227 271.25251465 163.49240234 272 163 C272 162.34 272 161.68 272 161 C270.9162207 160.38294189 270.9162207 160.38294189 269.81054688 159.75341797 C256.14961858 151.97152151 242.50963683 144.15857684 228.93896484 136.2199707 C218.41304776 130.06463149 207.84815833 123.97742889 197.28222656 117.89111328 C191.85340058 114.76319852 186.42680719 111.63141552 181 108.5 C178.83334417 107.24998121 176.6666775 105.99998122 174.5 104.75 C152.83333333 92.25 131.16666667 79.75 109.5 67.25 C108.42733887 66.63116943 107.35467773 66.01233887 106.24951172 65.37475586 C104.08442929 64.12564482 101.91939018 62.87645871 99.75439453 61.62719727 C94.31384294 58.48797691 88.87252784 55.35009437 83.4296875 52.21484375 C71.95204938 45.60153798 60.4903356 38.96248753 49.05395508 32.27807617 C40.4795072 27.27013532 31.87911092 22.3078401 23.27148438 17.35717773 C18.38227887 14.54201134 13.50143734 11.71584536 8.65234375 8.83203125 C7.85691162 8.35926758 7.06147949 7.88650391 6.24194336 7.39941406 C4.79114478 6.53427489 3.34257863 5.66537628 1.89672852 4.79199219 C-3.65372772 1.47986513 -4.81693948 1.75023121 -10.3359375 4.9375 Z " fill="#BEC4D9" transform="translate(176,83)"/>
<path d="M0 0 C0.66 0 1.32 0 2 0 C2.15855469 0.59167969 2.31710938 1.18335938 2.48046875 1.79296875 C4.39659636 8.28239542 6.79020102 11.83338569 12.5 15.6875 C14.95281281 16.97522672 17.40430389 18.0358843 20 19 C19.01 19.66 18.02 20.32 17 21 C18.69576172 21.91265625 18.69576172 21.91265625 20.42578125 22.84375 C30.99317794 28.57296729 41.38797812 34.54758661 51.70977783 40.70794678 C60.4830399 45.94187708 69.30752321 51.0742846 78.1875 56.125 C87.19219856 61.24850339 96.17706423 66.40286173 105.125 71.625 C106.07785889 72.18074707 107.03071777 72.73649414 108.01245117 73.30908203 C108.91842041 73.83872559 109.82438965 74.36836914 110.7578125 74.9140625 C112.06540527 75.67058105 112.06540527 75.67058105 113.39941406 76.44238281 C115.19041829 77.5151022 116.95208898 78.63784078 118.68652344 79.79980469 C123.42884318 83.122671 123.42884318 83.122671 128.9453125 83.765625 C129.95335937 83.18296875 130.96140625 82.6003125 132 82 C132.76538086 81.57912109 133.53076172 81.15824219 134.31933594 80.72460938 C137.20314057 79.11675922 140.03864385 77.44008868 142.875 75.75 C145.04159347 74.47253211 147.2082622 73.19519184 149.375 71.91796875 C150.4784375 71.26489746 151.581875 70.61182617 152.71875 69.93896484 C157.75932 66.96037802 162.81670801 64.01085772 167.875 61.0625 C168.85839355 60.48854492 169.84178711 59.91458984 170.85498047 59.32324219 C179.30052316 54.39747422 187.76816867 49.51044011 196.24243164 44.63427734 C201.77473781 41.44828967 207.2963912 38.24573565 212.80078125 35.01171875 C213.89455078 34.36976563 214.98832031 33.7278125 216.11523438 33.06640625 C218.19512133 31.84413915 220.27334066 30.61902836 222.34960938 29.390625 C223.28224609 28.84277344 224.21488281 28.29492188 225.17578125 27.73046875 C225.98958252 27.24989014 226.80338379 26.76931152 227.6418457 26.27416992 C230.03952196 24.97864529 232.45200056 23.96119424 235 23 C235 22.34 235 21.68 235 21 C234.01 20.67 233.02 20.34 232 20 C232.33 19.34 232.66 18.68 233 18 C236.5875213 19.33250791 239.8364623 20.830717 243 23 C243 23.66 243 24.32 243 25 C240.4607789 26.42196381 237.92155579 27.84392403 235.38232422 29.26586914 C233.13782488 30.52280858 230.89335965 31.7798089 228.64892578 33.03686523 C222.96075668 36.22261608 217.27211938 39.4075211 211.58203125 42.58984375 C200.5997442 48.73331084 189.62994617 54.89783834 178.67895508 61.09692383 C170.42948524 65.76398566 162.16777891 70.40920044 153.88549805 75.01782227 C149.25045629 77.59968451 144.63339966 80.19740525 140.078125 82.91796875 C139.347146 83.34883789 138.61616699 83.77970703 137.86303711 84.22363281 C136.548193 85.00198796 135.24085769 85.79325493 133.94360352 86.60058594 C129.79707444 89.0373203 127.60432857 89.1363327 123 88 C120.28466797 86.67163086 120.28466797 86.67163086 117.4921875 84.96484375 C116.43749268 84.32853027 115.38279785 83.6922168 114.29614258 83.03662109 C113.7398819 82.69524109 113.18362122 82.35386108 112.61050415 82.00213623 C109.60771648 80.16009134 106.58558654 78.35015937 103.56640625 76.53515625 C102.94189072 76.15854858 102.31737518 75.78194092 101.67393494 75.3939209 C95.11454321 71.44645442 88.4700358 67.6537517 81.8125 63.875 C72.16609257 58.38999702 62.55586991 52.84725049 52.97851562 47.24243164 C44.16156863 42.08516813 35.31546197 36.9794502 26.46240234 31.88452148 C25.42937988 31.28969971 24.39635742 30.69487793 23.33203125 30.08203125 C22.42171143 29.55843018 21.5113916 29.0348291 20.57348633 28.49536133 C18.79581619 27.46242047 17.03729592 26.39606115 15.2956543 25.3034668 C13.14071866 23.81686651 13.14071866 23.81686651 10.9375 24.0625 C8.42925669 25.27616612 6.85557973 26.94560816 5 29 C0.60616294 27.40376856 -3.28995807 25.21975667 -7.3125 22.875 C-7.95767578 22.50246094 -8.60285156 22.12992188 -9.26757812 21.74609375 C-10.84675945 20.83367787 -12.42361864 19.91724491 -14 19 C-12.19049772 17.10081393 -10.73211141 15.84318717 -8.4375 14.5 C-5.75281489 13.08195341 -5.75281489 13.08195341 -4 10 C-3.34 10 -2.68 10 -2 10 C-1.34 6.7 -0.68 3.4 0 0 Z " fill="#C1C7DB" transform="translate(213,223)"/>
<path d="M0 0 C1.90281206 0.93584647 3.78094454 1.92253877 5.640625 2.94140625 C6.71054688 3.52470703 7.78046875 4.10800781 8.8828125 4.70898438 C9.99398437 5.32064453 11.10515625 5.93230469 12.25 6.5625 C13.37664062 7.17802734 14.50328125 7.79355469 15.6640625 8.42773438 C18.44492185 9.94778037 21.2227532 11.47336357 24 13 C24 19.6 24 26.2 24 33 C22.53691406 33.54011719 21.07382813 34.08023438 19.56640625 34.63671875 C17.00073363 35.92516814 17.00073363 35.92516814 15 38 C13.69485034 42.59354775 13.83187984 47.06450546 13.9375 51.8125 C13.93041016 53.07771484 13.92332031 54.34292969 13.91601562 55.64648438 C13.90424163 58.76659187 13.93365968 61.88073533 14 65 C10.3203125 67.03125 10.3203125 67.03125 7.4375 66.75 C5 66 5 66 2 64 C1.71044922 61.34887695 1.71044922 61.34887695 1.8046875 57.98828125 C1.81556396 56.76286621 1.82644043 55.53745117 1.83764648 54.27490234 C1.84997314 52.96730957 1.8622998 51.6597168 1.875 50.3125 C1.8497121 40.33210964 1.32305329 33.20843823 -4.83032227 25.23144531 C-10.0689714 18.03642325 -8.73886863 9.47418471 -8 1 C-4.83562846 -0.92122558 -3.48387445 -1.16936669 0 0 Z " fill="#AFB7CE" transform="translate(119,268)"/>
<path d="M0 0 C1.82173704 0.89621162 3.62170999 1.8378867 5.3984375 2.8203125 C6.37167969 3.35527344 7.34492187 3.89023438 8.34765625 4.44140625 C9.34667969 4.99699219 10.34570312 5.55257812 11.375 6.125 C12.39722656 6.68832031 13.41945313 7.25164062 14.47265625 7.83203125 C16.98422404 9.21691442 19.4924468 10.60786096 22 12 C22 18.6 22 25.2 22 32 C15 36 15 36 12 36 C12.01571045 36.83772949 12.0314209 37.67545898 12.04760742 38.53857422 C12.09870007 41.64336877 12.13633234 44.74794931 12.16479492 47.85302734 C12.18732251 49.85919374 12.2254357 51.86516526 12.26367188 53.87109375 C12.27333984 55.12792969 12.28300781 56.38476562 12.29296875 57.6796875 C12.3086792 58.84226074 12.32438965 60.00483398 12.34057617 61.20263672 C12.22818604 62.1257666 12.1157959 63.04889648 12 64 C9 66 9 66 6.5625 65.75 C4.17658466 65.05168332 2.19833544 64.13884044 0 63 C0.01683838 62.20005615 0.03367676 61.4001123 0.05102539 60.57592773 C0.82989403 41.28573729 0.82989403 41.28573729 -6.82958984 24.23193359 C-12.069483 17.03746023 -10.73886814 8.47417902 -10 0 C-6.17206408 -2.65010948 -4.16371368 -1.60721515 0 0 Z " fill="#AFB7CE" transform="translate(46,226)"/>
<path d="M0 0 C6.6050005 4.32309202 6.6050005 4.32309202 8.1862793 8.35961914 C9.05454226 13.99438269 8.32623074 19.33514654 7.21801758 24.88793945 C6.57848145 25.09008057 5.93894531 25.29222168 5.2800293 25.50048828 C2.41895012 26.6780717 0.46343631 27.74197437 -1.78198242 29.88793945 C-3.01510416 34.44376654 -2.81345121 38.88382063 -2.65698242 43.57543945 C-2.62139201 46.03753336 -2.59734668 48.49983022 -2.58666992 50.9621582 C-2.55557129 52.05101318 -2.52447266 53.13986816 -2.49243164 54.26171875 C-2.5879834 55.12837158 -2.68353516 55.99502441 -2.78198242 56.88793945 C-5.78198242 58.88793945 -5.78198242 58.88793945 -8.21948242 58.63793945 C-10.60539776 57.93962277 -12.58364698 57.0267799 -14.78198242 55.88793945 C-14.75672485 54.73346313 -14.75672485 54.73346313 -14.73095703 53.55566406 C-14.34673958 33.41442542 -14.34673958 33.41442542 -22.80932617 15.7980957 C-25.67792904 11.56619642 -25.59446585 8.75419658 -24.78198242 3.88793945 C-24.74331055 2.92500977 -24.70463867 1.96208008 -24.66479492 0.9699707 C-24.41346964 -4.74398347 -24.41346964 -4.74398347 -23.78198242 -7.11206055 C-17.62493785 -12.42035365 -5.75598879 -3.31572412 0 0 Z " fill="#B0B8CF" transform="translate(284.781982421875,362.112060546875)"/>
<path d="M0 0 C17.79393556 8.37456518 17.79393556 8.37456518 20.546875 14.47070312 C21.71160108 20.04742827 21.26777544 25.39889594 20.42871094 30.99462891 C19.14057752 31.83341346 17.84807838 32.66549674 16.55371094 33.49462891 C15.83441406 33.95869141 15.11511719 34.42275391 14.37402344 34.90087891 C12.42871094 35.99462891 12.42871094 35.99462891 10.42871094 35.99462891 C10.4496582 36.79682861 10.47060547 37.59902832 10.4921875 38.42553711 C10.5752241 42.05260739 10.62733298 45.67947796 10.67871094 49.30712891 C10.71222656 50.56976563 10.74574219 51.83240234 10.78027344 53.13330078 C10.79316406 54.34179688 10.80605469 55.55029297 10.81933594 56.79541016 C10.8402832 57.91085205 10.86123047 59.02629395 10.8828125 60.17553711 C10.42871094 62.99462891 10.42871094 62.99462891 8.56445312 64.89379883 C6.42871094 65.99462891 6.42871094 65.99462891 3.86621094 65.80712891 C1.42871094 64.99462891 1.42871094 64.99462891 -1.57128906 62.99462891 C-1.86083984 60.41943359 -1.86083984 60.41943359 -1.76660156 57.16650391 C-1.7557251 55.9812915 -1.74484863 54.7960791 -1.73364258 53.57495117 C-1.72131592 52.31094482 -1.70898926 51.04693848 -1.69628906 49.74462891 C-1.64935556 37.76368043 -1.64935556 37.76368043 -7.13378906 27.55712891 C-13.79298343 19.37011304 -12.41511887 10.07154346 -11.57128906 -0.00537109 C-7.28007211 -2.70724843 -4.53657686 -1.77379638 0 0 Z " fill="#AFB7CE" transform="translate(309.5712890625,377.00537109375)"/>
<path d="M0 0 C0.85110352 0.42087891 1.70220703 0.84175781 2.57910156 1.27539062 C3.42762695 1.64986328 4.27615234 2.02433594 5.15039062 2.41015625 C22.55241992 10.62234985 22.55241992 10.62234985 25.84228516 16.55224609 C26.58408582 19.00892427 26.90429275 21.1518298 27.01660156 23.71289062 C27.05495117 24.46957031 27.09330078 25.22625 27.1328125 26.00585938 C26.99849888 28.46936771 26.72177805 30.08012419 25.57910156 32.27539062 C23.4987793 33.67944336 23.4987793 33.67944336 21.04003906 34.98632812 C17.88279329 36.82389353 16.77555298 37.54459637 15.81274414 41.1262207 C15.61312035 44.59906124 15.63137659 47.98703752 15.76660156 51.46289062 C15.81882125 53.81022932 15.85475771 56.15800374 15.87207031 58.50585938 C15.90840576 59.54121826 15.94474121 60.57657715 15.98217773 61.64331055 C15.57910156 64.27539062 15.57910156 64.27539062 13.72094727 66.14770508 C11.57910156 67.27539062 11.57910156 67.27539062 9.01660156 67.08789062 C6.57910156 66.27539062 6.57910156 66.27539062 3.57910156 64.27539062 C3.28955078 61.80786133 3.28955078 61.80786133 3.38378906 58.70117188 C3.39466553 57.56631348 3.40554199 56.43145508 3.41674805 55.26220703 C3.42907471 54.04968262 3.44140137 52.8371582 3.45410156 51.58789062 C3.37330411 41.82984884 2.69408525 35.49291896 -3.2512207 27.74902344 C-8.72824977 20.0484475 -7.18128963 10.2714033 -6.42089844 1.27539062 C-3.90590827 -0.40126949 -2.96165102 -0.88646432 0 0 Z " fill="#AFB7CE" transform="translate(80.4208984375,245.724609375)"/>
<path d="M0 0 C18.36036047 7.84183961 18.36036047 7.84183961 24.4296875 14.46484375 C26.85119974 20.64623304 25.69539958 27.12288955 24.4296875 33.46484375 C23.79232666 33.66553467 23.15496582 33.86622559 22.49829102 34.07299805 C19.63302901 35.25080553 17.6802161 36.31812866 15.4296875 38.46484375 C14.12453784 43.0583915 14.26156734 47.52934921 14.3671875 52.27734375 C14.36009766 53.54255859 14.35300781 54.80777344 14.34570312 56.11132812 C14.33392913 59.23143562 14.36334718 62.34557908 14.4296875 65.46484375 C11.8046875 66.65234375 11.8046875 66.65234375 8.4296875 67.46484375 C5.0546875 66.08984375 5.0546875 66.08984375 2.4296875 64.46484375 C2.44128906 63.65966309 2.45289063 62.85448242 2.46484375 62.02490234 C3.04080315 42.3621873 3.04080315 42.3621873 -4.82421875 24.890625 C-8.45040634 17.77615851 -7.13336096 9.23804048 -6.5703125 1.46484375 C-2.89160156 -0.60205078 -2.89160156 -0.60205078 0 0 Z " fill="#AFB7CE" transform="translate(192.5703125,310.53515625)"/>
<path d="M0 0 C2.52048729 1.28315278 4.95812738 2.62308336 7.37988281 4.08422852 C8.26160156 4.61467773 9.14332031 5.14512695 10.05175781 5.69165039 C10.95925781 6.24272461 11.86675781 6.79379883 12.80175781 7.36157227 C13.72472656 7.91651367 14.64769531 8.47145508 15.59863281 9.04321289 C22.40434942 13.15166387 22.40434942 13.15166387 23.55175781 14.29907227 C24.15174762 17.33646806 24.39401383 20.40603099 24.67675781 23.48657227 C24.79535156 24.33799805 24.91394531 25.18942383 25.03613281 26.06665039 C25.25962237 28.74231709 25.32475075 30.71948277 24.55175781 33.29907227 C22.5637207 34.78710938 22.5637207 34.78710938 20.09472656 36.08813477 C17.5620691 37.39037612 17.5620691 37.39037612 15.55175781 39.29907227 C14.36000738 43.6953491 14.56317099 47.960397 14.73925781 52.48657227 C14.7914775 54.83391096 14.82741396 57.18168538 14.84472656 59.52954102 C14.88106201 60.5648999 14.91739746 61.60025879 14.95483398 62.66699219 C14.55175781 65.29907227 14.55175781 65.29907227 12.69360352 67.17138672 C10.55175781 68.29907227 10.55175781 68.29907227 7.98925781 68.11157227 C5.55175781 67.29907227 5.55175781 67.29907227 2.55175781 65.29907227 C2.35400391 62.73974609 2.35400391 62.73974609 2.57519531 59.50610352 C2.63126953 58.32604736 2.68734375 57.14599121 2.74511719 55.93017578 C2.80505859 54.67003662 2.865 53.40989746 2.92675781 52.11157227 C3.21243158 42.13742289 2.94016558 35.62574829 -3.2277832 27.72192383 C-8.78976408 20.07378156 -7.2082281 10.29029024 -6.44824219 1.29907227 C-3.92910419 -0.38035306 -2.97473492 -0.85166174 0 0 Z " fill="#AFB8CF" transform="translate(155.4482421875,288.700927734375)"/>
<path d="M0 0 C8.68935849 2.52328691 18.26929589 7.29379908 24.64160156 13.76708984 C27.38744084 19.84750512 26.60603223 26.33528814 25.64160156 32.76708984 C24.35346815 33.60587439 23.060969 34.43795768 21.76660156 35.26708984 C21.04730469 35.73115234 20.32800781 36.19521484 19.58691406 36.67333984 C17.64160156 37.76708984 17.64160156 37.76708984 15.64160156 37.76708984 C15.66254883 38.56928955 15.68349609 39.37148926 15.70507812 40.19799805 C15.78811473 43.82506833 15.8402236 47.4519389 15.89160156 51.07958984 C15.92511719 52.34222656 15.95863281 53.60486328 15.99316406 54.90576172 C16.00605469 56.11425781 16.01894531 57.32275391 16.03222656 58.56787109 C16.05317383 59.68331299 16.07412109 60.79875488 16.09570312 61.94799805 C15.64160156 64.76708984 15.64160156 64.76708984 13.77734375 66.66625977 C11.64160156 67.76708984 11.64160156 67.76708984 9.07910156 67.57958984 C6.64160156 66.76708984 6.64160156 66.76708984 3.64160156 64.76708984 C3.33618164 62.20776367 3.33618164 62.20776367 3.41113281 58.97412109 C3.41685303 57.79398437 3.42257324 56.61384766 3.4284668 55.39794922 C3.44115601 53.50786133 3.44115601 53.50786133 3.45410156 51.57958984 C3.39539011 39.51888848 3.39539011 39.51888848 -1.42089844 28.76708984 C-5.38590391 22.72010122 -6.09626533 18.17171932 -6.04589844 10.95458984 C-6.04017822 10.07480469 -6.03445801 9.19501953 -6.02856445 8.28857422 C-5.85046141 3.68780564 -5.85046141 3.68780564 -5.35839844 1.76708984 C-2.35839844 -0.23291016 -2.35839844 -0.23291016 0 0 Z " fill="#AFB7CF" transform="translate(229.3583984375,332.23291015625)"/>
<path d="M0 0 C0.66 0 1.32 0 2 0 C2.15855469 0.59167969 2.31710938 1.18335938 2.48046875 1.79296875 C4.39659636 8.28239542 6.79020102 11.83338569 12.5 15.6875 C14.95281281 16.97522672 17.40430389 18.0358843 20 19 C20 19.33 20 19.66 20 20 C19.12988281 20.22042969 19.12988281 20.22042969 18.2421875 20.4453125 C12.23781543 22.16934013 9.08828599 24.28274694 5 29 C0.60616294 27.40376856 -3.28995807 25.21975667 -7.3125 22.875 C-7.95767578 22.50246094 -8.60285156 22.12992188 -9.26757812 21.74609375 C-10.84675945 20.83367787 -12.42361864 19.91724491 -14 19 C-12.19049772 17.10081393 -10.73211141 15.84318717 -8.4375 14.5 C-5.75281489 13.08195341 -5.75281489 13.08195341 -4 10 C-3.34 10 -2.68 10 -2 10 C-1.34 6.7 -0.68 3.4 0 0 Z " fill="#F7F8F9" transform="translate(213,223)"/>
<path d="M0 0 C0.1079859 2.43868168 0.18726589 4.87259133 0.25 7.3125 C0.30027344 8.34793945 0.30027344 8.34793945 0.3515625 9.40429688 C0.4160185 12.73989513 0.44935116 14.50997074 -1.85546875 17.0234375 C-4 18 -4 18 -6.5625 17.3125 C-9 16 -9 16 -12 14 C-13.08333333 9 -13.08333333 9 -12 6 C-8.71723968 3.18451547 -4.46580125 0 0 0 Z " fill="#AFB7CE" transform="translate(463,342)"/>
<path d="M0 0 C2.5871582 1.30688477 2.5871582 1.30688477 5.30078125 2.94140625 C6.76547852 3.81635742 6.76547852 3.81635742 8.25976562 4.70898438 C9.26716797 5.32064453 10.27457031 5.93230469 11.3125 6.5625 C12.33923828 7.17802734 13.36597656 7.79355469 14.42382812 8.42773438 C16.95320506 9.94536054 19.47833212 11.46961065 22 13 C21.01 13.99 20.02 14.98 19 16 C13.05384306 14.36036204 7.96477922 11.37624538 2.625 8.375 C1.69816406 7.859375 0.77132813 7.34375 -0.18359375 6.8125 C-2.45829425 5.54617189 -4.73028792 4.27524075 -7 3 C-7 2.01 -7 1.02 -7 0 C-4.24642304 -1.37678848 -2.94408901 -0.81191521 0 0 Z " fill="#DCE0EA" transform="translate(307,376)"/>
<path d="M0 0 C2.78182077 1.28739202 5.37474985 2.72134201 8.00708008 4.29150391 C9.47177734 5.16162109 9.47177734 5.16162109 10.96606445 6.04931641 C11.9734668 6.65259766 12.98086914 7.25587891 14.01879883 7.87744141 C15.04553711 8.48845703 16.07227539 9.09947266 17.13012695 9.72900391 C19.65743758 11.23363535 22.18273282 12.74154081 24.70629883 14.25244141 C23.71629883 15.24244141 22.72629883 16.23244141 21.70629883 17.25244141 C15.66826424 15.6376182 10.64394278 12.50176991 5.33129883 9.31494141 C3.94104492 8.50766602 3.94104492 8.50766602 2.52270508 7.68408203 C1.20979492 6.90000977 1.20979492 6.90000977 -0.12963867 6.10009766 C-0.92934082 5.62580322 -1.72904297 5.15150879 -2.55297852 4.6628418 C-3.12741699 4.19740967 -3.70185547 3.73197754 -4.29370117 3.25244141 C-4.29370117 2.26244141 -4.29370117 1.27244141 -4.29370117 0.25244141 C-2.29370117 -0.74755859 -2.29370117 -0.74755859 0 0 Z " fill="#DBE0EA" transform="translate(80.293701171875,245.74755859375)"/>
<path d="M0 0 C4.78741797 1.96530469 9.00342009 4.60759346 13.3671875 7.37109375 C14.24632812 7.90927734 15.12546875 8.44746094 16.03125 9.00195312 C16.86140625 9.52466797 17.6915625 10.04738281 18.546875 10.5859375 C19.30468262 11.06023193 20.06249023 11.53452637 20.84326172 12.02319336 C21.38740723 12.48862549 21.93155273 12.95405762 22.4921875 13.43359375 C22.4921875 14.42359375 22.4921875 15.41359375 22.4921875 16.43359375 C20.83105469 17.11230469 20.83105469 17.11230469 18.4921875 17.43359375 C15.92675781 16.30957031 15.92675781 16.30957031 13.0703125 14.57421875 C12.04550781 13.95289063 11.02070313 13.3315625 9.96484375 12.69140625 C8.90136719 12.02882813 7.83789062 11.36625 6.7421875 10.68359375 C5.66324219 10.03648437 4.58429688 9.389375 3.47265625 8.72265625 C-2.44720016 5.08542463 -2.44720016 5.08542463 -4.5078125 3.43359375 C-4.5078125 2.44359375 -4.5078125 1.45359375 -4.5078125 0.43359375 C-2.5078125 -0.56640625 -2.5078125 -0.56640625 0 0 Z " fill="#DBE0EA" transform="translate(192.5078125,310.56640625)"/>
<path d="M0 0 C0.99 0.33 1.98 0.66 3 1 C2.67 9.91 2.34 18.82 2 28 C0.02 28.66 -1.96 29.32 -4 30 C-3.93121386 26.04840742 -3.84329572 22.09775377 -3.73754883 18.14697266 C-3.68790041 16.14117664 -3.65345836 14.13502313 -3.61914062 12.12890625 C-3.58369141 10.87207031 -3.54824219 9.61523438 -3.51171875 8.3203125 C-3.48553467 7.15773926 -3.45935059 5.99516602 -3.43237305 4.79736328 C-3.28968994 3.8742334 -3.14700684 2.95110352 -3 2 C-2.01 1.34 -1.02 0.68 0 0 Z " fill="#9FAAC9" transform="translate(131,305)"/>
<path d="M0 0 C5.4690099 2.06782687 10.29918506 4.95785487 15.3125 7.9375 C16.24384766 8.47568359 17.17519531 9.01386719 18.13476562 9.56835938 C19.01455078 10.09107422 19.89433594 10.61378906 20.80078125 11.15234375 C21.60684814 11.62663818 22.41291504 12.10093262 23.2434082 12.58959961 C23.8230835 13.05503174 24.40275879 13.52046387 25 14 C25 14.99 25 15.98 25 17 C22.66203637 17.82378893 21.45173869 18.17207438 19.09643555 17.27490234 C18.449729 16.88254395 17.80302246 16.49018555 17.13671875 16.0859375 C16.41419922 15.65410156 15.69167969 15.22226562 14.94726562 14.77734375 C14.20154297 14.31457031 13.45582031 13.85179687 12.6875 13.375 C11.95337891 12.93542969 11.21925781 12.49585938 10.46289062 12.04296875 C5.81561345 9.23068567 1.38282878 6.20751274 -3 3 C-2.01 2.01 -1.02 1.02 0 0 Z " fill="#DBE0EA" transform="translate(153,288)"/>
<path d="M0 0 C1.75694836 0.86304106 3.48963987 1.77625458 5.203125 2.72265625 C6.1828125 3.26083984 7.1625 3.79902344 8.171875 4.35351562 C9.69554687 5.19946289 9.69554687 5.19946289 11.25 6.0625 C12.796875 6.91424805 12.796875 6.91424805 14.375 7.78320312 C16.91895018 9.18473123 19.46048283 10.5904602 22 12 C22 12.99 22 13.98 22 15 C19.21759459 16.13432088 18.17655282 16.07174689 15.34277344 14.92016602 C14.35825195 14.37030029 13.37373047 13.82043457 12.359375 13.25390625 C10.75449219 12.36928711 10.75449219 12.36928711 9.1171875 11.46679688 C8.00601563 10.83837891 6.89484375 10.20996094 5.75 9.5625 C4.62335938 8.93794922 3.49671875 8.31339844 2.3359375 7.66992188 C-0.44895992 6.1240678 -3.22704444 4.56714387 -6 3 C-6 2.01 -6 1.02 -6 0 C-3.42309921 -1.2884504 -2.70064338 -0.89931545 0 0 Z " fill="#DADFE9" transform="translate(119,268)"/>
<path d="M0 0 C5.94844737 1.57000004 10.73222354 4.68066641 15.875 7.9375 C16.75414062 8.47568359 17.63328125 9.01386719 18.5390625 9.56835938 C19.36921875 10.09107422 20.199375 10.61378906 21.0546875 11.15234375 C21.81249512 11.62663818 22.57030273 12.10093262 23.35107422 12.58959961 C23.89521973 13.05503174 24.43936523 13.52046387 25 14 C25 14.99 25 15.98 25 17 C23.35253906 17.69897461 23.35253906 17.69897461 21 18 C18.34277344 16.73657227 18.34277344 16.73657227 15.359375 14.81640625 C14.28945313 14.13642578 13.21953125 13.45644531 12.1171875 12.75585938 C10.99461647 12.02500862 9.87222284 11.29388529 8.75 10.5625 C7.61271366 9.83413833 6.47470021 9.10691064 5.3359375 8.38085938 C2.54992597 6.5982842 -0.22809156 4.80439727 -3 3 C-2.01 2.01 -1.02 1.02 0 0 Z " fill="#DCE0EA" transform="translate(265,353)"/>
<path d="M0 0 C0.14483042 4.43715855 0.23391752 8.87371277 0.3125 13.3125 C0.35439453 14.57513672 0.39628906 15.83777344 0.43945312 17.13867188 C0.45556641 18.34716797 0.47167969 19.55566406 0.48828125 20.80078125 C0.51446533 21.91622314 0.54064941 23.03166504 0.56762695 24.1809082 C0 27 0 27 -2.53051758 28.88745117 C-3.75291138 29.43816284 -3.75291138 29.43816284 -5 30 C-5.07409401 26.04907941 -5.12857406 22.09842706 -5.16479492 18.14697266 C-5.18732251 16.14080626 -5.2254357 14.13483474 -5.26367188 12.12890625 C-5.27333984 10.87207031 -5.28300781 9.61523438 -5.29296875 8.3203125 C-5.3086792 7.15773926 -5.32438965 5.99516602 -5.34057617 4.79736328 C-5.22818604 3.8742334 -5.1157959 2.95110352 -5 2 C-2 0 -2 0 0 0 Z " fill="#9FAACA" transform="translate(245,370)"/>
<path d="M0 0 C0 9.24 0 18.48 0 28 C-1.65 28.66 -3.3 29.32 -5 30 C-5 20.76 -5 11.52 -5 2 C-1 0 -1 0 0 0 Z " fill="#A0AACA" transform="translate(58,262)"/>
<path d="M0 0 C4.02082718 0.45712216 6.86073387 1.86933093 10.30078125 3.94140625 C11.76547852 4.81635742 11.76547852 4.81635742 13.25976562 5.70898438 C14.26716797 6.32064453 15.27457031 6.93230469 16.3125 7.5625 C17.33923828 8.17802734 18.36597656 8.79355469 19.42382812 9.42773438 C21.95320506 10.94536054 24.47833212 12.46961065 27 14 C26.01 14.99 25.02 15.98 24 17 C18.20303743 15.39395627 13.29617983 12.54916787 8.125 9.5625 C7.24585938 9.07201172 6.36671875 8.58152344 5.4609375 8.07617188 C4.21570313 7.35977539 4.21570313 7.35977539 2.9453125 6.62890625 C2.18750488 6.19650635 1.42969727 5.76410645 0.64892578 5.31860352 C0.10478027 4.88346436 -0.43936523 4.4483252 -1 4 C-1 1 -1 1 0 0 Z " fill="#DBDFE9" transform="translate(227,332)"/>
<path d="M0 0 C0.66 0.33 1.32 0.66 2 1 C1.89053657 5.29221231 1.75981105 9.5835149 1.625 13.875 C1.5940625 15.09832031 1.563125 16.32164062 1.53125 17.58203125 C1.49257812 18.74863281 1.45390625 19.91523438 1.4140625 21.1171875 C1.3826416 22.19597168 1.3512207 23.27475586 1.31884766 24.38623047 C1 27 1 27 -1 29 C-1.99 29 -2.98 29 -4 29 C-4 20.09 -4 11.18 -4 2 C-2.68 1.34 -1.36 0.68 0 0 Z " fill="#9EA9C8" transform="translate(169,327)"/>
<path d="M0 0 C0 8.91 0 17.82 0 27 C-1.65 27.66 -3.3 28.32 -5 29 C-5.08674429 24.54178834 -5.14030513 20.08379196 -5.1875 15.625 C-5.21263672 14.35398437 -5.23777344 13.08296875 -5.26367188 11.7734375 C-5.27333984 10.56171875 -5.28300781 9.35 -5.29296875 8.1015625 C-5.3086792 6.98088379 -5.32438965 5.86020508 -5.34057617 4.70556641 C-5.22818604 3.81272949 -5.1157959 2.91989258 -5 2 C-2 0 -2 0 0 0 Z " fill="#9FA9C9" transform="translate(282,392)"/>
<path d="M0 0 C0 8.91 0 17.82 0 27 C-1.65 27.66 -3.3 28.32 -5 29 C-5 19.76 -5 10.52 -5 1 C-3 0 -3 0 0 0 Z " fill="#9FAAC9" transform="translate(207,349)"/>
<path d="M0 0 C5.94615694 1.63963796 11.03522078 4.62375462 16.375 7.625 C17.30183594 8.140625 18.22867188 8.65625 19.18359375 9.1875 C21.45829425 10.45382811 23.73028792 11.72475925 26 13 C26 13.99 26 14.98 26 16 C23.34418249 17.03155061 22.2467986 17.09443411 19.54223633 16.05957031 C18.20068481 15.32625488 18.20068481 15.32625488 16.83203125 14.578125 C15.85685547 14.04703125 14.88167969 13.5159375 13.87695312 12.96875 C12.86568359 12.4015625 11.85441406 11.834375 10.8125 11.25 C9.78962891 10.69828125 8.76675781 10.1465625 7.71289062 9.578125 C0.13068836 5.39206509 0.13068836 5.39206509 -1 2 C-0.67 1.34 -0.34 0.68 0 0 Z " fill="#DBE0EA" transform="translate(40,224)"/>
<path d="M0 0 C0.33 8.91 0.66 17.82 1 27 C-0.65 27.66 -2.3 28.32 -4 29 C-4.08674429 24.54178834 -4.14030513 20.08379196 -4.1875 15.625 C-4.21263672 14.35398437 -4.23777344 13.08296875 -4.26367188 11.7734375 C-4.27333984 10.56171875 -4.28300781 9.35 -4.29296875 8.1015625 C-4.3086792 6.98088379 -4.32438965 5.86020508 -4.34057617 4.70556641 C-4.22818604 3.81272949 -4.1157959 2.91989258 -4 2 C-1 0 -1 0 0 0 Z " fill="#9EA9C9" transform="translate(319,413)"/>
<path d="M0 0 C0 8.91 0 17.82 0 27 C-1.32 27.33 -2.64 27.66 -4 28 C-4.0867562 23.70845978 -4.1403089 19.41714332 -4.1875 15.125 C-4.21263672 13.90167969 -4.23777344 12.67835938 -4.26367188 11.41796875 C-4.27333984 10.25136719 -4.28300781 9.08476562 -4.29296875 7.8828125 C-4.3086792 6.80402832 -4.32438965 5.72524414 -4.34057617 4.61376953 C-4.22818604 3.75122559 -4.1157959 2.88868164 -4 2 C-1 0 -1 0 0 0 Z " fill="#9EA9C8" transform="translate(95,284)"/>
<path d="M0 0 C0 6.6 0 13.2 0 20 C-1.65 20.66 -3.3 21.32 -5 22 C-5.10806144 19.08234109 -5.18732877 16.16868875 -5.25 13.25 C-5.28351562 12.425 -5.31703125 11.6 -5.3515625 10.75 C-5.45083504 4.59510226 -5.45083504 4.59510226 -3.046875 1.421875 C-1 0 -1 0 0 0 Z " fill="#9CA7C7" transform="translate(68,238)"/>
<path d="M0 0 C0 6.6 0 13.2 0 20 C-1.65 20.66 -3.3 21.32 -5 22 C-5.10806144 19.08234109 -5.18732877 16.16868875 -5.25 13.25 C-5.28351563 12.425 -5.31703125 11.6 -5.3515625 10.75 C-5.45083504 4.59510226 -5.45083504 4.59510226 -3.046875 1.421875 C-1 0 -1 0 0 0 Z " fill="#97A2C1" transform="translate(143,281)"/>
<path d="M0 0 C0 6.27 0 12.54 0 19 C-1.65 19.66 -3.3 20.32 -5 21 C-5.107834 18.06152347 -5.18721916 15.12698849 -5.25 12.1875 C-5.28351563 11.35412109 -5.31703125 10.52074219 -5.3515625 9.66210938 C-5.45089201 3.47884732 -5.45089201 3.47884732 -3.046875 0.92578125 C-1 0 -1 0 0 0 Z " fill="#9CA7C6" transform="translate(292,368)"/>
<path d="M0 0 C0 6.27 0 12.54 0 19 C-1.65 19.33 -3.3 19.66 -5 20 C-5.10787818 17.22813012 -5.18723327 14.46044463 -5.25 11.6875 C-5.28351563 10.90181641 -5.31703125 10.11613281 -5.3515625 9.30664062 C-5.45088196 3.47162253 -5.45088196 3.47162253 -3.046875 0.95703125 C-1 0 -1 0 0 0 Z " fill="#9DA8C7" transform="translate(217,325)"/>
<path d="M0 0 C0.13501894 2.43934225 0.23403897 4.87124104 0.3125 7.3125 C0.35439453 8.00279297 0.39628906 8.69308594 0.43945312 9.40429688 C0.48828125 11.42578125 0.48828125 11.42578125 0 15 C-2.475 16.485 -2.475 16.485 -5 18 C-5.33 12.72 -5.66 7.44 -6 2 C-2 0 -2 0 0 0 Z " fill="#9DA8C8" transform="translate(463,342)"/>
<path d="M0 0 C0.33 5.94 0.66 11.88 1 18 C-0.65 18.99 -2.3 19.98 -4 21 C-4.08687496 17.87517438 -4.14034568 14.75065754 -4.1875 11.625 C-4.21263672 10.73554688 -4.23777344 9.84609375 -4.26367188 8.9296875 C-4.27333984 8.07890625 -4.28300781 7.228125 -4.29296875 6.3515625 C-4.3086792 5.56604004 -4.32438965 4.78051758 -4.34057617 3.97119141 C-4.22818604 3.32069824 -4.1157959 2.67020508 -4 2 C-1 0 -1 0 0 0 Z " fill="#9EA9C8" transform="translate(254,347)"/>
<path d="M0 0 C0.2210949 2.95789127 0.42740245 5.91552764 0.625 8.875 C0.68945312 9.71675781 0.75390625 10.55851562 0.8203125 11.42578125 C0.871875 12.23144531 0.9234375 13.03710938 0.9765625 13.8671875 C1.02893066 14.61081543 1.08129883 15.35444336 1.13525391 16.12060547 C1 18 1 18 -1 20 C-1.99 20 -2.98 20 -4 20 C-4.08069658 17.04112541 -4.14034665 14.0844341 -4.1875 11.125 C-4.21263672 10.28324219 -4.23777344 9.44148438 -4.26367188 8.57421875 C-4.27333984 7.76855469 -4.28300781 6.96289062 -4.29296875 6.1328125 C-4.3086792 5.38918457 -4.32438965 4.64555664 -4.34057617 3.87939453 C-4.22818604 3.25919434 -4.1157959 2.63899414 -4 2 C-1 0 -1 0 0 0 Z " fill="#9EA9C9" transform="translate(179,304)"/>
<path d="M0 0 C0.33 5.94 0.66 11.88 1 18 C-0.65 18.99 -2.3 19.98 -4 21 C-4.08687496 17.87517438 -4.14034568 14.75065754 -4.1875 11.625 C-4.21263672 10.73554688 -4.23777344 9.84609375 -4.26367188 8.9296875 C-4.27333984 8.07890625 -4.28300781 7.228125 -4.29296875 6.3515625 C-4.3086792 5.56604004 -4.32438965 4.78051758 -4.34057617 3.97119141 C-4.22818604 3.32069824 -4.1157959 2.67020508 -4 2 C-1 0 -1 0 0 0 Z " fill="#A0AAC9" transform="translate(329,390)"/>
<path d="M0 0 C0.22114415 2.79119779 0.42743301 5.5821212 0.625 8.375 C0.68945312 9.1690625 0.75390625 9.963125 0.8203125 10.78125 C0.96058587 12.85028224 0.98758237 14.92625536 1 17 C0.34 17.66 -0.32 18.32 -1 19 C-1.99 19 -2.98 19 -4 19 C-4.08071788 16.20775927 -4.14035408 13.41783434 -4.1875 10.625 C-4.21263672 9.8309375 -4.23777344 9.036875 -4.26367188 8.21875 C-4.29004405 6.14413852 -4.15486462 4.06899135 -4 2 C-1 0 -1 0 0 0 Z " fill="#9EA9C8" transform="translate(105,261)"/>
</svg>
