<?xml version="1.0" encoding="UTF-8"?>
<svg version="1.1" xmlns="http://www.w3.org/2000/svg" width="512" height="512">
<path d="M0 0 C26.07 0 52.14 0 79 0 C79 19.47 79 38.94 79 59 C81.97 59.33 84.94 59.66 88 60 C90.69555664 60.62915039 90.69555664 60.62915039 92.91015625 61.34765625 C93.74635498 61.61868164 94.58255371 61.88970703 95.4440918 62.16894531 C96.3081665 62.46381836 97.17224121 62.75869141 98.0625 63.0625 C98.9800708 63.37413086 99.8976416 63.68576172 100.84301758 64.00683594 C113.86366882 68.5619676 125.44512278 75.02558856 137.06323242 82.40722656 C137.77970947 82.85936523 138.49618652 83.31150391 139.234375 83.77734375 C139.86569336 84.18202881 140.49701172 84.58671387 141.14746094 85.00366211 C143.21990938 86.11827229 144.64808715 86.75726566 147 87 C149.06052831 85.63501864 149.06052831 85.63501864 150.97070312 83.51757812 C152.12209778 82.3414093 152.12209778 82.3414093 153.29675293 81.14147949 C154.11663696 80.28010376 154.936521 79.41872803 155.78125 78.53125 C157.0569989 77.22710144 157.0569989 77.22710144 158.35852051 75.89660645 C161.08454188 73.10930931 163.79398551 70.30671678 166.5 67.5 C170.05876364 63.80879965 173.63330183 60.13401442 177.21875 56.46875 C178.03863403 55.60737427 178.85851807 54.74599854 179.70324707 53.85852051 C180.47084351 53.07440796 181.23843994 52.29029541 182.02929688 51.48242188 C182.70118042 50.78435425 183.37306396 50.08628662 184.06530762 49.36706543 C186 48 186 48 187.92045593 47.98088074 C190.9096036 49.44576817 192.87941926 51.48118024 195.2434082 53.82348633 C195.75278427 54.32439285 196.26216034 54.82529938 196.78697205 55.34138489 C198.46613295 56.99717095 200.13388466 58.66390521 201.80078125 60.33203125 C202.96301818 61.48716884 204.1255539 62.64200589 205.28837585 63.79655457 C207.72196729 66.21670145 210.14953921 68.64270516 212.57348633 71.07250977 C215.68517407 74.19010494 218.81475085 77.28903475 221.94950581 80.38341236 C224.354131 82.76223485 226.74723965 85.15238483 229.13716698 87.54596519 C230.28671345 88.69381463 231.44026464 89.83766754 232.59780312 90.97745705 C234.21186876 92.56947177 235.80936319 94.17645805 237.40356445 95.78833008 C238.31749466 96.70020584 239.23142487 97.6120816 240.17304993 98.55158997 C242 101 242 101 242.01812744 103.07359314 C240.74284232 105.48657006 239.24849384 107.11081639 237.30639648 109.03417969 C236.52566269 109.81468689 235.74492889 110.59519409 234.9405365 111.39935303 C234.09262039 112.23178528 233.24470428 113.06421753 232.37109375 113.921875 C231.07474754 115.21185394 231.07474754 115.21185394 229.75221252 116.52789307 C226.98759388 119.27570575 224.21273138 122.01291036 221.4375 124.75 C219.56246749 126.60998825 217.68810982 128.47065707 215.81445312 130.33203125 C211.21743983 134.89594973 206.61197045 139.45119938 202 144 C202.53036865 144.98782471 203.0607373 145.97564941 203.60717773 146.9934082 C214.19227989 166.74542653 222.45757768 186.34824899 228.4375 208 C228.82639404 209.407052 228.82639404 209.407052 229.22314453 210.8425293 C229.57481689 212.15797729 229.57481689 212.15797729 229.93359375 213.5 C230.14040771 214.2734375 230.34722168 215.046875 230.56030273 215.84375 C231 218 231 218 231 222 C250.47 222 269.94 222 290 222 C290 248.07 290 274.14 290 301 C270.53 301 251.06 301 231 301 C230.34 304.63 229.68 308.26 229 312 C228.07153054 315.20480225 227.11368469 318.30242118 226 321.4375 C225.7016626 322.28296387 225.4033252 323.12842773 225.09594727 323.99951172 C220.80001686 335.74960261 215.42153394 347.45963767 208 357.5625 C206.52890178 359.69543832 206.52890178 359.69543832 206 362 C206.8719386 365.11939531 208.16530248 367.34269447 209.99804688 370.01000977 C211.87046478 372.80653441 213.41670088 375.62954128 214.98828125 378.6015625 C219.22791169 385.93354291 224.87372415 391.26872505 231 397 C233.11854559 398.98554272 235.21979371 400.98728492 237.3125 403 C238.23675781 403.86625 239.16101563 404.7325 240.11328125 405.625 C242 408 242 408 241.921875 410.140625 C240.63326906 412.73967766 238.88623092 414.80953829 237 417 C243.88719151 429.40137378 250.81674936 441.7673497 258 454 C263.43067759 463.2497538 268.71637968 472.57197226 273.93017578 481.94555664 C278.12119296 489.46993054 282.40564067 496.93436076 286.80151367 504.34106445 C290 509.78536118 290 509.78536118 290 512 C194.3 512 98.6 512 0 512 C0 492.53 0 473.06 0 453 C-2.97 452.67 -5.94 452.34 -9 452 C-33.50259551 446.93619746 -56.65181032 436.87596186 -78 424 C-78.4922406 424.50334366 -78.9844812 425.00668732 -79.49163818 425.52528381 C-84.12816953 430.26191617 -88.77659346 434.98650725 -93.43880844 439.6978693 C-95.83541871 442.12059605 -98.22714919 444.54776171 -100.60839844 446.9855957 C-103.34490315 449.78671672 -106.10145099 452.56761482 -108.859375 455.34765625 C-109.71368103 456.22776871 -110.56798706 457.10788116 -111.44818115 458.0146637 C-112.24870911 458.81556931 -113.04923706 459.61647491 -113.87402344 460.44165039 C-114.57573669 461.15446671 -115.27744995 461.86728302 -116.00042725 462.60169983 C-118 464 -118 464 -119.93016052 464.02386475 C-122.90853694 462.55058402 -124.8835884 460.51468885 -127.2434082 458.17651367 C-127.75278427 457.67560715 -128.26216034 457.17470062 -128.78697205 456.65861511 C-130.46613295 455.00282905 -132.13388466 453.33609479 -133.80078125 451.66796875 C-134.96301818 450.51283116 -136.1255539 449.35799411 -137.28837585 448.20344543 C-139.72196729 445.78329855 -142.14953921 443.35729484 -144.57348633 440.92749023 C-147.68517407 437.80989506 -150.81475085 434.71096525 -153.94950581 431.61658764 C-156.354131 429.23776515 -158.74723965 426.84761517 -161.13716698 424.45403481 C-162.28671345 423.30618537 -163.44026464 422.16233246 -164.59780312 421.02254295 C-166.21186876 419.43052823 -167.80936319 417.82354195 -169.40356445 416.21166992 C-170.31749466 415.29979416 -171.23142487 414.3879184 -172.17304993 413.44841003 C-174 411 -174 411 -174.01812744 408.92640686 C-172.74284232 406.51342994 -171.24849384 404.88918361 -169.30639648 402.96582031 C-168.52566269 402.18531311 -167.74492889 401.40480591 -166.9405365 400.60064697 C-166.09262039 399.76821472 -165.24470428 398.93578247 -164.37109375 398.078125 C-163.07474754 396.78814606 -163.07474754 396.78814606 -161.75221252 395.47210693 C-158.98759388 392.72429425 -156.21273138 389.98708964 -153.4375 387.25 C-151.56246749 385.39001175 -149.68810982 383.52934293 -147.81445312 381.66796875 C-143.21743983 377.10405027 -138.61197045 372.54880062 -134 368 C-134.45310547 367.22438721 -134.90621094 366.44877441 -135.37304688 365.6496582 C-163 318.32936508 -163 318.32936508 -163 301 C-182.47 301 -201.94 301 -222 301 C-222 274.93 -222 248.86 -222 222 C-202.53 222 -183.06 222 -163 222 C-162.34 218.37 -161.68 214.74 -161 211 C-155.80907581 189.36009799 -148.35779662 167.43236598 -136.30078125 148.609375 C-134.80798491 146.19559031 -134.80798491 146.19559031 -135.19259644 144.0793457 C-136.21634949 141.44282462 -137.58605629 140.08735485 -139.61767578 138.12109375 C-140.38161652 137.37351807 -141.14555725 136.62594238 -141.93264771 135.85571289 C-142.76182709 135.05770264 -143.59100647 134.25969238 -144.4453125 133.4375 C-146.17863459 131.73723314 -147.91169977 130.03670436 -149.64453125 128.3359375 C-152.39037367 125.65858101 -155.1400887 122.9853874 -157.89501953 120.31738281 C-160.54746717 117.7431016 -163.18456179 115.15385786 -165.8203125 112.5625 C-166.65354034 111.76448975 -167.48676819 110.96647949 -168.34524536 110.14428711 C-169.48169998 109.02292358 -169.48169998 109.02292358 -170.64111328 107.87890625 C-171.31538361 107.2247876 -171.98965393 106.57066895 -172.68435669 105.89672852 C-174 104 -174 104 -174.01139832 102.08528137 C-172.55699218 99.08661509 -170.52145191 97.12323726 -168.17651367 94.7565918 C-167.67560715 94.24721573 -167.17470062 93.73783966 -166.65861511 93.21302795 C-165.00282905 91.53386705 -163.33609479 89.86611534 -161.66796875 88.19921875 C-160.51283116 87.03698182 -159.35799411 85.8744461 -158.20344543 84.71162415 C-155.78329855 82.27803271 -153.35729484 79.85046079 -150.92749023 77.42651367 C-147.80989506 74.31482593 -144.71096525 71.18524915 -141.61658764 68.05049419 C-139.23776515 65.645869 -136.84761517 63.25276035 -134.45403481 60.86283302 C-133.30618537 59.71328655 -132.16233246 58.55973536 -131.02254295 57.40219688 C-129.43052823 55.78813124 -127.82354195 54.19063681 -126.21166992 52.59643555 C-125.29979416 51.68250534 -124.3879184 50.76857513 -123.44841003 49.82695007 C-121 48 -121 48 -118.92640686 47.98187256 C-116.51342994 49.25715768 -114.88918361 50.75150616 -112.96582031 52.69360352 C-112.18531311 53.47433731 -111.40480591 54.25507111 -110.60064697 55.0594635 C-109.76821472 55.90737961 -108.93578247 56.75529572 -108.078125 57.62890625 C-107.21813904 58.49313705 -106.35815308 59.35736786 -105.47210693 60.24778748 C-102.72429425 63.01240612 -99.98708964 65.78726862 -97.25 68.5625 C-95.39001175 70.43753251 -93.52934293 72.31189018 -91.66796875 74.18554688 C-87.10405027 78.78256017 -82.54880062 83.38802955 -78 88 C-77.01217529 87.46963135 -76.02435059 86.9392627 -75.0065918 86.39282227 C-55.25457347 75.80772011 -35.65175101 67.54242232 -14 61.5625 C-13.06196533 61.3032373 -12.12393066 61.04397461 -11.1574707 60.77685547 C-10.28050537 60.54240723 -9.40354004 60.30795898 -8.5 60.06640625 C-7.7265625 59.85959229 -6.953125 59.65277832 -6.15625 59.43969727 C-4 59 -4 59 0 59 C0 39.53 0 20.06 0 0 Z M12 205 C11.21753906 205.350625 10.43507812 205.70125 9.62890625 206.0625 C-5.23121907 213.4796856 -14.8246603 226.88418973 -20.11328125 242.23046875 C-23.86570648 258.18240859 -20.49930328 273.33402408 -12.04296875 287.109375 C-6.20487579 295.36977422 0.98331527 301.48455788 10 306 C10.76699219 306.38929688 11.53398437 306.77859375 12.32421875 307.1796875 C24.74649216 312.80564273 38.25846107 313.1416463 51.125 308.9921875 C66.63986522 303.01579809 78.39771017 292.45748793 85.22265625 277.28125 C90.43290538 264.58243493 91.40280118 249.43883592 86.1875 236.52734375 C85.5996875 235.27630859 85.5996875 235.27630859 85 234 C84.649375 233.21753906 84.29875 232.43507812 83.9375 231.62890625 C76.5203144 216.76878093 63.11581027 207.1753397 47.76953125 201.88671875 C36.09339631 199.14010462 22.86167157 199.89652526 12 205 Z " fill="#9365A9" transform="translate(222,0)"/>
<path d="M0 0 C25.74935373 18.88504897 44.47499653 44.5204319 50.30859375 76.421875 C52.25140896 91.04952602 51.89954473 106.66668545 47.8125 120.87109375 C47.51448486 121.92321045 47.51448486 121.92321045 47.21044922 122.99658203 C42.53833391 139.14775216 35.49547782 152.83049324 24.8125 165.87109375 C24.12671875 166.721875 23.4409375 167.57265625 22.734375 168.44921875 C4.89522469 189.45977356 -22.06766094 202.34946416 -49.1875 205.87109375 C-80.91843267 207.98825081 -109.82964988 199.63979046 -134.1875 178.87109375 C-135.29351562 177.98357422 -135.29351562 177.98357422 -136.421875 177.078125 C-157.03303036 159.9387068 -170.43925985 132.3211614 -173.1875 105.87109375 C-173.93116809 93.98761999 -173.66165414 82.53152058 -171.1875 70.87109375 C-170.93871094 69.65421875 -170.68992188 68.43734375 -170.43359375 67.18359375 C-163.50685172 38.80737517 -145.48711254 14.10900157 -120.7421875 -1.31640625 C-107.56219427 -9.24511149 -94.16702937 -14.05739392 -79.1875 -17.12890625 C-78.39714355 -17.30542725 -77.60678711 -17.48194824 -76.79248047 -17.66381836 C-50.66649364 -22.32829867 -21.84477646 -14.58995487 0 0 Z M-83.1875 42.87109375 C-83.96996094 43.22171875 -84.75242187 43.57234375 -85.55859375 43.93359375 C-100.41871907 51.35077935 -110.0121603 64.75528348 -115.30078125 80.1015625 C-119.05320648 96.05350234 -115.68680328 111.20511783 -107.23046875 124.98046875 C-101.39237579 133.24086797 -94.20418473 139.35565163 -85.1875 143.87109375 C-84.42050781 144.26039063 -83.65351563 144.6496875 -82.86328125 145.05078125 C-70.44100784 150.67673648 -56.92903893 151.01274005 -44.0625 146.86328125 C-28.54763478 140.88689184 -16.78978983 130.32858168 -9.96484375 115.15234375 C-4.75459462 102.45352868 -3.78469882 87.30992967 -9 74.3984375 C-9.5878125 73.14740234 -9.5878125 73.14740234 -10.1875 71.87109375 C-10.538125 71.08863281 -10.88875 70.30617188 -11.25 69.5 C-18.6671856 54.63987468 -32.07168973 45.04643345 -47.41796875 39.7578125 C-59.09410369 37.01119837 -72.32582843 37.76761901 -83.1875 42.87109375 Z " fill="#553980" transform="translate(317.1875,162.12890625)"/>
<path d="M0 0 C0.66 0 1.32 0 2 0 C3.62550581 2.84463517 5.25100312 5.68927519 6.87646484 8.53393555 C8.30889779 11.04071407 9.74153888 13.54737349 11.17431641 16.05395508 C14.87739875 22.53274843 18.57828421 29.01277444 22.2734375 35.49609375 C35.84465854 59.31386535 35.84465854 59.31386535 50.015625 82.77734375 C51.10785764 84.55114675 52.1792023 86.34080812 53.14868164 88.18457031 C57.80638092 96.71052832 64.59429812 102.84105352 71.57836914 109.42089844 C73.15496785 110.91349706 74.71643296 112.42071811 76.27734375 113.9296875 C77.20796631 114.80866699 78.13858887 115.68764648 79.09741211 116.59326172 C81 119 81 119 80.92407227 121.14501953 C79.6314887 123.73974871 77.8849679 125.81100502 76 128 C82.88719151 140.40137378 89.81674936 152.7673497 97 165 C102.43067759 174.2497538 107.71637968 183.57197226 112.93017578 192.94555664 C117.12119296 200.46993054 121.40564067 207.93436076 125.80151367 215.34106445 C129 220.78536118 129 220.78536118 129 223 C44.52 223 -39.96 223 -127 223 C-117.27903794 205.17823621 -107.48863673 187.42227268 -97.20117188 169.92114258 C-93.04215763 162.83058469 -88.99694311 155.68302526 -85 148.5 C-79.86374835 139.27065229 -74.59787376 130.12762875 -69.25 121.01953125 C-65.07756041 113.8947181 -61.01504756 106.71453859 -57 99.5 C-51.86368611 90.27068598 -46.59787465 81.12763027 -41.25 72.01953125 C-37.07755958 64.89471669 -33.01510023 57.7145106 -29 50.5 C-23.18460322 40.05206828 -17.20347431 29.7096704 -11.15625 19.39453125 C-7.3842672 12.95977282 -3.67842063 6.4886426 0 0 Z " fill="#F8C325" transform="translate(383,289)"/>
<path d="M0 0 C10.56 0 21.12 0 32 0 C32 31.68 32 63.36 32 96 C21.44 96 10.88 96 0 96 C0 64.32 0 32.64 0 0 Z " fill="#27314D" transform="translate(368,352)"/>
<path d="M0 0 C4.06371049 2.32791399 6.31017233 4.94621412 7.6875 9.4375 C8.59759627 14.75072868 8.26305866 19.12300029 5.625 23.875 C2.88317369 27.67669194 0.27480618 29.21421835 -4.3125 30.4375 C-10.31047853 31.38853083 -14.67316215 30.51866258 -19.6484375 26.98046875 C-23.54056131 23.3715746 -24.4637486 19.03797951 -24.75 13.9375 C-24.5608157 9.31036734 -23.37543996 5.93541369 -20.3125 2.4375 C-14.36267539 -2.77245005 -7.10508527 -3.05069646 0 0 Z " fill="#2A334C" transform="translate(392.3125,465.5625)"/>
<path d="M0 0 C5.55909675 4.65722201 10.82422685 9.54621749 16 14.625 C16.78761719 15.37523437 17.57523437 16.12546875 18.38671875 16.8984375 C19.12535156 17.62546875 19.86398437 18.3525 20.625 19.1015625 C21.29789062 19.75463379 21.97078125 20.40770508 22.6640625 21.08056641 C24 23 24 23 23.83984375 25.10302734 C22.71669079 27.63991644 21.04113713 29.15639227 19 31 C15.05961254 29.68653751 14.69889113 28.20111085 12.71484375 24.609375 C12.10189453 23.50722656 11.48894531 22.40507812 10.85742188 21.26953125 C10.54216553 20.69154785 10.22690918 20.11356445 9.90209961 19.51806641 C8.94619502 17.76593757 7.97608142 16.0215852 7.00585938 14.27734375 C4.41546981 9.58789247 1.89282716 5.02068231 0 0 Z " fill="#9568A7" transform="translate(440,385)"/>
</svg>
