<svg xmlns="http://www.w3.org/2000/svg" width="521" height="594" viewBox="0 0 521 594"><path d="M0 0 C2 -0.04 4 -0.04 6 0 C8.19 2.19 7.76 6.79 8.06 9.75 C8.15 10.6 8.24 11.46 8.33 12.34 C9.01 19.26 9.22 26.05 9 33 C9.99 33.33 10.98 33.66 12 34 C12.03 34.99 12.05 35.98 12.08 37 C12.17 40.66 12.27 44.33 12.37 47.99 C12.42 49.58 12.46 51.16 12.5 52.75 C12.55 55.03 12.62 57.31 12.68 59.59 C12.71 60.65 12.71 60.65 12.73 61.74 C12.8 65.5 12.8 65.5 14 69 C15.28 78.83 15.22 88.83 15.24 98.72 C15.25 101.26 15.28 103.8 15.31 106.34 C15.4 120.66 15.4 120.66 12.7 127.16 C11.49 130.33 11.47 133.57 11.38 136.94 C11.11 143.79 11.11 143.79 10 146 C9.8 148.95 9.65 151.9 9.57 154.86 C9.33 159.59 9.33 159.59 7.53 161.81 C7.02 162.2 6.52 162.59 6 163 C5.65 163.7 5.3 164.4 4.94 165.12 C4 167 4 167 2 168 C1.5 168.85 1.01 169.69 0.5 170.56 C-0.24 171.77 -0.24 171.77 -1 173 C-1.66 173 -2.32 173 -3 173 C-3.06 173.72 -3.12 174.44 -3.19 175.19 C-4.09 178.32 -5.38 179.41 -7.74 181.55 C-9.68 183.78 -10.34 186.33 -11.26 189.1 C-12.32 191.82 -14.17 193.74 -16 196 C-17.32 198.6 -18.55 201.23 -19.75 203.89 C-21 206 -21 206 -24 207 C-24.73 209.02 -24.73 209.02 -25 211 C-25.99 211 -26.98 211 -28 211 C-28 211.99 -28 212.98 -28 214 C-29.33 214.59 -29.33 214.59 -30.69 215.19 C-34.81 217.24 -37.45 220.26 -40.5 223.69 C-42.46 225.41 -44.58 226.07 -47 227 C-47.66 227.66 -48.32 228.32 -49 229 C-50.3 229.37 -50.3 229.37 -51.62 229.75 C-56.08 231.12 -59.38 234.17 -63 237 C-66.96 239.79 -71.08 242.28 -75.25 244.75 C-75.78 245.07 -76.31 245.39 -76.86 245.71 C-80.77 248 -80.77 248 -83 248 C-83.33 248.99 -83.66 249.98 -84 251 C-84.96 251.22 -84.96 251.22 -85.94 251.44 C-88.17 251.79 -88.17 251.79 -89.12 253.88 C-89.56 254.93 -89.56 254.93 -90 256 C-91 257.75 -91 257.75 -92 259 C-92.66 259 -93.32 259 -94 259 C-94.33 259.99 -94.66 260.98 -95 262 C-96.52 263.54 -96.52 263.54 -98.38 265.06 C-98.98 265.57 -99.59 266.08 -100.21 266.6 C-104.55 270 -104.55 270 -108 270 C-108 270.66 -108 271.32 -108 272 C-108.85 272.27 -108.85 272.27 -109.72 272.55 C-113.95 273.93 -118.06 275.38 -122.12 277.18 C-124.4 278.17 -126.69 279.09 -129 280 C-129.85 280.34 -130.7 280.69 -131.57 281.04 C-133.05 281.62 -134.53 282.19 -136.02 282.71 C-143.31 285.41 -146.26 291.08 -149.69 297.75 C-151 300 -151 300 -153.13 302.37 C-155.48 305.67 -155.37 307.55 -155.31 311.56 C-155.49 319.29 -158.12 324.98 -163 331 C-164.33 331.67 -165.66 332.34 -167 333 C-172.24 339.37 -175.13 345.82 -176 354 C-176.66 354 -177.32 354 -178 354 C-178.02 354.74 -178.05 355.47 -178.07 356.23 C-178.28 363.16 -178.51 370.1 -178.73 377.03 C-178.85 380.59 -178.96 384.15 -179.07 387.72 C-179.18 391.15 -179.29 394.59 -179.4 398.03 C-179.44 399.34 -179.48 400.65 -179.52 401.97 C-179.58 403.8 -179.64 405.64 -179.7 407.47 C-179.74 408.52 -179.77 409.56 -179.8 410.64 C-180 413 -180 413 -181 414 C-181.53 416.97 -181.73 419.99 -182 423 C-182.09 423.97 -182.18 424.94 -182.27 425.94 C-183.3 438.77 -183.44 451.64 -183.66 464.5 C-183.67 465.38 -183.69 466.26 -183.71 467.17 C-183.74 468.86 -183.76 470.54 -183.79 472.22 C-183.81 473.34 -183.81 473.34 -183.83 474.49 C-183.84 475.14 -183.85 475.8 -183.86 476.48 C-184 478 -184 478 -185 479 C-186.35 479.07 -187.71 479.08 -189.06 479.06 C-189.8 479.05 -190.53 479.04 -191.29 479.04 C-191.85 479.02 -192.42 479.01 -193 479 C-195.32 473.91 -197.5 468.84 -199.29 463.53 C-199.91 461.79 -199.91 461.79 -202 461 C-202.71 459.36 -202.71 459.36 -203.38 457.31 C-204.52 454.06 -205.94 451.58 -207.95 448.77 C-211.13 443.42 -212.91 437.09 -214 431 C-214.66 431 -215.32 431 -216 431 C-216.17 430.13 -216.34 429.26 -216.52 428.37 C-216.76 427.2 -217 426.04 -217.25 424.88 C-217.36 424.31 -217.47 423.74 -217.58 423.15 C-218.29 419.85 -218.93 418.09 -221.05 415.34 C-224.31 410.8 -223.79 405.01 -224 399.62 C-224.31 391.81 -224.78 385.7 -229 379 C-229.54 378.05 -230.07 377.1 -230.62 376.12 C-231.96 373.9 -231.96 373.9 -234 372 C-235.38 365.22 -235.17 358.03 -235.2 351.14 C-235.21 350.14 -235.21 349.15 -235.22 348.12 C-235.23 346.04 -235.24 343.95 -235.24 341.87 C-235.25 338.68 -235.28 335.49 -235.31 332.3 C-235.32 330.27 -235.32 328.23 -235.33 326.2 C-235.34 325.25 -235.35 324.3 -235.37 323.32 C-235.35 318.22 -234.98 315.29 -232 311 C-231.47 308.49 -231.47 308.49 -231.38 305.87 C-231.31 304.9 -231.24 303.92 -231.17 302.92 C-231.12 301.92 -231.06 300.91 -231 299.88 C-229.84 279.84 -229.84 279.84 -226 276 C-225.8 273.45 -225.68 270.9 -225.57 268.35 C-225 266 -225 266 -222.96 264.68 C-222.31 264.46 -221.67 264.23 -221 264 C-221.02 263.52 -221.05 263.03 -221.07 262.53 C-221.09 261.86 -221.11 261.19 -221.12 260.5 C-221.15 259.85 -221.17 259.2 -221.2 258.53 C-220.66 251.65 -218.11 245.2 -215.62 238.81 C-215.33 238.03 -215.04 237.25 -214.74 236.45 C-213.01 231.97 -211.23 228.56 -208 225 C-205.59 222.22 -203.88 219.87 -202.62 216.44 C-201.05 212.6 -198.73 210.71 -195 209 C-193.19 208.36 -191.38 207.74 -189.56 207.12 C-185.88 205.87 -183.31 204.7 -180.5 202 C-175.72 197.45 -169.02 195.18 -162.5 194.56 C-161.68 194.38 -160.85 194.19 -160 194 C-159.56 193.22 -159.11 192.44 -158.65 191.63 C-155.76 187.03 -151 185.71 -146 184 C-142.88 183.31 -139.8 182.78 -136.63 182.36 C-134.33 182.05 -132.2 181.74 -130 181 C-129.73 180.38 -129.46 179.76 -129.19 179.12 C-127.35 175.84 -124.43 175.25 -121 174 C-116.54 172.36 -113.49 170.79 -110.25 167.27 C-108.07 165.06 -105.68 163.57 -103 162 C-102.01 162 -101.02 162 -100 162 C-99.75 161.43 -99.5 160.86 -99.25 160.27 C-97.82 157.66 -96.1 155.79 -94.06 153.62 C-90.93 150.18 -88.87 147.23 -87 143 C-85.44 140.62 -85.44 140.62 -84 139 C-83.34 139 -82.68 139 -82 139 C-81.92 138.42 -81.83 137.83 -81.75 137.23 C-80.78 134.35 -79.37 133.2 -77.06 131.25 C-76.35 130.64 -75.64 130.02 -74.91 129.39 C-73 128 -73 128 -71 128 C-70.98 127.42 -70.96 126.84 -70.94 126.25 C-69.64 123.14 -67.73 122.58 -64.82 121.05 C-62.68 119.81 -61.08 118.24 -59.39 116.44 C-57.61 114.6 -55.73 112.89 -53.81 111.19 C-53.14 110.58 -52.46 109.98 -51.77 109.36 C-50 108 -50 108 -48 108 C-47.69 107.2 -47.38 106.39 -47.06 105.56 C-46 103 -46 103 -45 102 C-44.68 100.61 -44.39 99.21 -44.12 97.81 C-43.27 93.77 -42.02 90.59 -40 87 C-39.34 87 -38.68 87 -38 87 C-37.89 86.32 -37.78 85.65 -37.67 84.95 C-37.51 84.06 -37.35 83.17 -37.19 82.25 C-36.96 80.93 -36.96 80.93 -36.73 79.58 C-35.94 76.79 -34.79 75.25 -33 73 C-32.6 71.52 -32.6 71.52 -32.19 70 C-30.79 66.48 -29.65 65.83 -26.52 64 C-24.16 62.45 -22.71 60.22 -21 58 C-17.48 55 -17.48 55 -15 55 C-12.6 47.64 -11.02 40.29 -9.62 32.69 C-7.89 23.59 -5.66 15.48 -2 7 C-1.24 4.68 -0.61 2.37 0 0 Z " fill="#A249A2" transform="translate(350,45)"/><path d="M0 0 C1.04 0 1.04 0 2.1 0 C2.81 -0 3.53 -0.01 4.27 -0.01 C5.78 -0.02 7.3 -0.02 8.82 -0.01 C11.12 -0.01 13.43 -0.03 15.74 -0.06 C17.21 -0.06 18.69 -0.06 20.16 -0.06 C20.85 -0.07 21.53 -0.08 22.24 -0.09 C26.93 -0.04 29.83 0.95 33.9 3.3 C35.88 4.07 37.86 4.67 39.9 5.3 C39.88 5.95 39.85 6.59 39.83 7.25 C40 14.43 41.97 18.93 45.93 24.71 C50.25 31.03 51.21 36.56 51.08 44.12 C51.08 45.28 51.08 45.28 51.08 46.47 C51.04 52.16 51.04 52.16 49.9 53.3 C49.76 55.28 49.66 57.26 49.58 59.24 C49.27 64.52 48.19 68.75 46 73.55 C44.37 77.62 43.41 81.85 42.47 86.13 C41.46 90.32 40.2 92.36 36.9 95.3 C36.08 96.57 35.31 97.86 34.58 99.18 C31.51 104.26 27.61 108.4 21.9 110.3 C20.74 111.57 19.64 112.89 18.58 114.24 C15.46 117.96 13.49 119.1 8.9 120.3 C8.4 121.79 8.4 121.79 7.9 123.3 C6.37 124.22 6.37 124.22 4.52 124.93 C3.92 125.17 3.31 125.41 2.68 125.66 C1.1 126.23 -0.5 126.77 -2.1 127.3 C-2.73 129.11 -2.73 129.11 -2.98 131.3 C-3.64 134.9 -4.58 137.28 -6.6 140.3 C-10.35 146.48 -10.38 153.72 -10.89 160.77 C-11.1 162.3 -11.1 162.3 -12.1 163.3 C-12.32 165.95 -12.48 168.59 -12.6 171.24 C-12.66 172.43 -12.66 172.43 -12.73 173.65 C-12.86 176.2 -12.98 178.75 -13.1 181.3 C-13.27 184.66 -13.43 188.01 -13.6 191.37 C-13.64 192.15 -13.67 192.92 -13.71 193.73 C-13.99 199.19 -13.99 199.19 -15.1 200.3 C-17.74 200.46 -20.34 200.54 -22.98 200.55 C-24.08 200.58 -24.08 200.58 -25.2 200.62 C-25.91 200.62 -26.62 200.63 -27.35 200.63 C-27.99 200.64 -28.64 200.65 -29.31 200.66 C-31.78 200.17 -32.62 199.32 -34.1 197.3 C-34.54 195.13 -34.54 195.13 -34.62 192.64 C-34.65 191.74 -34.69 190.85 -34.72 189.93 C-34.75 189 -34.77 188.07 -34.79 187.12 C-34.83 186.18 -34.86 185.24 -34.9 184.27 C-34.98 181.95 -35.05 179.63 -35.1 177.3 C-36.75 176.97 -38.4 176.64 -40.1 176.3 C-40.13 175.62 -40.15 174.93 -40.17 174.22 C-40.39 167.72 -40.61 161.21 -40.83 154.71 C-40.95 151.37 -41.06 148.02 -41.17 144.68 C-41.28 141.45 -41.39 138.22 -41.5 134.99 C-41.55 133.77 -41.59 132.54 -41.63 131.31 C-41.68 129.58 -41.75 127.85 -41.81 126.13 C-41.84 125.14 -41.87 124.16 -41.91 123.15 C-42.11 120.15 -42.58 117.26 -43.1 114.3 C-43.23 112.58 -43.32 110.85 -43.39 109.12 C-43.42 108.17 -43.46 107.22 -43.5 106.25 C-43.6 103.3 -43.6 103.3 -43.71 100.36 C-43.93 94.79 -43.93 94.79 -44.61 89.26 C-46.39 78.59 -47.11 66.16 -41.2 56.75 C-40.66 56.04 -40.66 56.04 -40.1 55.3 C-39.44 55.3 -38.78 55.3 -38.1 55.3 C-37.97 54.45 -37.84 53.59 -37.7 52.71 C-37.44 51.06 -37.44 51.06 -37.17 49.37 C-36.99 48.26 -36.82 47.16 -36.64 46.03 C-36.1 43.3 -36.1 43.3 -35.1 42.3 C-34.94 40.95 -34.83 39.6 -34.73 38.24 C-34.25 33.53 -32.96 29.64 -31.1 25.3 C-30.85 24.66 -30.6 24.02 -30.35 23.35 C-29.06 20.12 -27.97 17.45 -25.1 15.3 C-24.11 14.97 -23.12 14.64 -22.1 14.3 C-21.86 13.56 -21.61 12.82 -21.35 12.05 C-19.4 7.76 -15.73 5.35 -11.38 3.62 C-9.96 3.17 -8.53 2.74 -7.1 2.3 C-4.67 -0.13 -3.33 0.05 0 0 Z M-5.1 8.3 C-6.97 8.75 -6.97 8.75 -8.98 8.99 C-11.69 9.56 -12.79 9.9 -14.53 12.1 C-15.74 14.21 -15.74 14.21 -16.71 16.33 C-18.1 18.3 -18.1 18.3 -21.14 19.62 C-24.42 21.06 -24.42 21.06 -25.28 24.59 C-25.49 25.84 -25.69 27.1 -25.85 28.37 C-26.9 35.1 -26.9 35.1 -29.1 37.3 C-29.35 39.28 -29.35 39.28 -29.23 41.43 C-29.21 42.15 -29.19 42.88 -29.17 43.62 C-29.15 44.18 -29.13 44.73 -29.1 45.3 C-28.11 44.81 -28.11 44.81 -27.1 44.3 C-26.39 41.22 -25.85 38.15 -25.34 35.03 C-24.42 29.9 -23.18 26.06 -19.06 22.57 C-18.35 22.09 -17.65 21.61 -16.92 21.12 C-14.8 19.71 -14.8 19.71 -13.1 18.3 C-13.1 17.64 -13.1 16.98 -13.1 16.3 C-11.45 15.64 -9.8 14.98 -8.1 14.3 C-8.1 13.64 -8.1 12.98 -8.1 12.3 C-7.11 12.04 -6.12 11.77 -5.1 11.49 C-2.28 10.68 0.5 9.79 3.27 8.8 C3.94 8.57 4.61 8.33 5.29 8.08 C7.1 7.41 7.1 7.41 7.9 5.3 C6.29 5.22 4.69 5.16 3.08 5.12 C2.19 5.08 1.3 5.05 0.38 5.01 C-2.6 5.36 -3.13 6.17 -5.1 8.3 Z M-30.1 45.3 C-29.1 47.3 -29.1 47.3 -29.1 47.3 Z " fill="#A249A2" transform="translate(152.10406494140625,51.69645690917969)"/><path d="M0 0 C2.02 0.52 2.02 0.52 3.89 2.71 C4.26 3.64 4.63 4.57 5.02 5.52 C5.52 6.24 6.03 6.95 6.55 7.68 C8.49 11.44 8.5 14.61 8.58 18.77 C8.69 23.22 8.91 27.4 9.98 31.73 C11.05 36.37 11.52 40.93 11.83 45.68 C11.89 46.51 11.95 47.34 12.02 48.19 C12.21 50.8 12.4 53.41 12.58 56.02 C12.77 58.66 12.95 61.3 13.15 63.94 C13.27 65.58 13.39 67.21 13.5 68.85 C13.45 72.49 13.45 72.49 15.02 75.52 C16.39 83.22 16.17 90.99 16.14 98.77 C16.14 99.9 16.14 99.9 16.14 101.04 C16.11 124.54 15.53 148.03 15.02 171.52 C13.37 171.85 11.72 172.18 10.02 172.52 C9.36 176.81 8.7 181.1 8.02 185.52 C7.36 185.52 6.7 185.52 6.02 185.52 C5.96 186.41 5.96 186.41 5.91 187.31 C5.74 190.03 5.53 192.74 5.33 195.46 C5.27 196.39 5.22 197.31 5.17 198.27 C4.68 204.29 3.4 208.49 0.11 213.58 C-1.04 215.62 -1.32 216.96 -1.48 219.27 C-2.16 223.66 -3.66 224.68 -6.98 227.52 C-7.64 228.18 -8.3 228.84 -8.98 229.52 C-11.11 229.65 -11.11 229.65 -12.98 229.52 C-13.31 230.51 -13.64 231.5 -13.98 232.52 C-18.97 234.89 -23.79 234.79 -29.23 234.71 C-30.05 234.71 -30.86 234.71 -31.7 234.71 C-37.7 234.66 -37.7 234.66 -39.98 233.52 C-40.89 230.85 -41.12 228.32 -41.2 225.51 C-41.51 216.36 -41.84 208.41 -46.24 200.18 C-50.05 192.77 -50.64 186.65 -50.36 178.4 C-50.35 177.26 -50.33 176.13 -50.32 174.96 C-50.17 166.71 -50.17 166.71 -48.98 165.52 C-48.73 163.64 -48.54 161.76 -48.37 159.87 C-48.26 158.69 -48.14 157.51 -48.03 156.33 C-47.85 154.47 -47.67 152.62 -47.51 150.76 C-46.89 143.65 -45.85 137.45 -42.91 130.85 C-41.1 126.3 -40.73 121.45 -40.12 116.61 C-40.01 115.85 -39.9 115.09 -39.79 114.3 C-39.71 113.62 -39.62 112.94 -39.54 112.24 C-38.83 110.06 -37.91 109.67 -35.98 108.52 C-33.68 103.14 -32.61 97.32 -31.98 91.52 C-30.5 91.03 -30.5 91.03 -28.98 90.52 C-28.49 89.04 -28.49 89.04 -27.98 87.52 C-27.49 87.05 -26.99 86.57 -26.48 86.08 C-24.7 84.23 -24.47 83.19 -24.11 80.69 C-23.93 79.59 -23.93 79.59 -23.75 78.46 C-23.59 77.32 -23.59 77.32 -23.42 76.15 C-23.2 74.64 -22.97 73.13 -22.73 71.62 C-22.59 70.62 -22.59 70.62 -22.44 69.6 C-21.98 67.52 -21.98 67.52 -20.98 65.1 C-19.93 62.38 -19.59 60.12 -19.35 57.22 C-19.27 56.25 -19.18 55.27 -19.1 54.26 C-19.02 53.26 -18.94 52.25 -18.86 51.21 C-18.77 50.18 -18.69 49.16 -18.6 48.1 C-18.39 45.57 -18.18 43.05 -17.98 40.52 C-16.99 40.19 -16 39.86 -14.98 39.52 C-14.96 38.88 -14.94 38.23 -14.92 37.57 C-14.83 34.6 -14.72 31.62 -14.61 28.65 C-14.58 27.64 -14.55 26.62 -14.52 25.58 C-13.8 6.96 -13.8 6.96 -8.61 1.53 C-5.82 -0.19 -3.22 -0.22 0 0 Z " fill="#A14AA1" transform="translate(341.984375,272.4765625)"/><path d="M0 0 C2 -0.04 4 -0.04 6 0 C8.19 2.19 7.76 6.79 8.06 9.75 C8.15 10.6 8.24 11.46 8.33 12.34 C9.01 19.26 9.22 26.05 9 33 C9.99 33.33 10.98 33.66 12 34 C12.03 34.99 12.05 35.98 12.08 37 C12.17 40.66 12.27 44.33 12.37 47.99 C12.42 49.58 12.46 51.16 12.5 52.75 C12.55 55.03 12.62 57.31 12.68 59.59 C12.71 60.65 12.71 60.65 12.73 61.74 C12.8 65.5 12.8 65.5 14 69 C15.28 78.83 15.22 88.83 15.24 98.72 C15.25 101.26 15.28 103.8 15.31 106.34 C15.4 120.66 15.4 120.66 12.7 127.16 C11.49 130.33 11.47 133.57 11.38 136.94 C11.11 143.79 11.11 143.79 10 146 C9.8 148.95 9.65 151.9 9.57 154.86 C9.33 159.59 9.33 159.59 7.53 161.81 C7.02 162.2 6.52 162.59 6 163 C5.65 163.7 5.3 164.4 4.94 165.12 C4 167 4 167 2 168 C1.5 168.85 1.01 169.69 0.5 170.56 C-0.24 171.77 -0.24 171.77 -1 173 C-1.66 173 -2.32 173 -3 173 C-3.06 173.72 -3.12 174.44 -3.19 175.19 C-4.09 178.32 -5.38 179.41 -7.74 181.55 C-9.68 183.78 -10.34 186.33 -11.26 189.1 C-12.32 191.82 -14.17 193.74 -16 196 C-17.32 198.6 -18.55 201.23 -19.75 203.89 C-21 206 -21 206 -24 207 C-24.73 209.02 -24.73 209.02 -25 211 C-25.99 211 -26.98 211 -28 211 C-28 211.99 -28 212.98 -28 214 C-29.33 214.59 -29.33 214.59 -30.69 215.19 C-34.81 217.24 -37.45 220.26 -40.5 223.69 C-42.46 225.41 -44.58 226.07 -47 227 C-47.66 227.66 -48.32 228.32 -49 229 C-50.3 229.37 -50.3 229.37 -51.62 229.75 C-56.08 231.12 -59.38 234.17 -63 237 C-66.96 239.79 -71.08 242.28 -75.25 244.75 C-75.78 245.07 -76.31 245.39 -76.86 245.71 C-80.77 248 -80.77 248 -83 248 C-83.33 248.99 -83.66 249.98 -84 251 C-84.96 251.22 -84.96 251.22 -85.94 251.44 C-88.17 251.79 -88.17 251.79 -89.12 253.88 C-89.56 254.93 -89.56 254.93 -90 256 C-91 257.75 -91 257.75 -92 259 C-92.66 259 -93.32 259 -94 259 C-94.33 259.99 -94.66 260.98 -95 262 C-96.52 263.54 -96.52 263.54 -98.38 265.06 C-98.98 265.57 -99.59 266.08 -100.21 266.6 C-104.55 270 -104.55 270 -108 270 C-108 270.66 -108 271.32 -108 272 C-108.85 272.27 -108.85 272.27 -109.72 272.55 C-113.95 273.93 -118.06 275.38 -122.12 277.18 C-124.4 278.17 -126.69 279.09 -129 280 C-129.85 280.34 -130.7 280.69 -131.57 281.04 C-133.05 281.62 -134.53 282.19 -136.02 282.71 C-143.31 285.41 -146.26 291.08 -149.69 297.75 C-151 300 -151 300 -153.13 302.37 C-155.48 305.67 -155.37 307.55 -155.31 311.56 C-155.49 319.29 -158.12 324.98 -163 331 C-164.33 331.67 -165.66 332.34 -167 333 C-172.24 339.37 -175.13 345.82 -176 354 C-176.66 354 -177.32 354 -178 354 C-178.02 354.74 -178.05 355.47 -178.07 356.23 C-178.28 363.16 -178.51 370.1 -178.73 377.03 C-178.85 380.59 -178.96 384.15 -179.07 387.72 C-179.18 391.15 -179.29 394.59 -179.4 398.03 C-179.44 399.34 -179.48 400.65 -179.52 401.97 C-179.58 403.8 -179.64 405.64 -179.7 407.47 C-179.74 408.52 -179.77 409.56 -179.8 410.64 C-180 413 -180 413 -181 414 C-181.53 416.97 -181.73 419.99 -182 423 C-182.09 423.97 -182.18 424.94 -182.27 425.94 C-183.3 438.77 -183.44 451.64 -183.66 464.5 C-183.67 465.38 -183.69 466.26 -183.71 467.17 C-183.74 468.86 -183.76 470.54 -183.79 472.22 C-183.81 473.34 -183.81 473.34 -183.83 474.49 C-183.84 475.14 -183.85 475.8 -183.86 476.48 C-184 478 -184 478 -185 479 C-186.35 479.07 -187.71 479.08 -189.06 479.06 C-189.8 479.05 -190.53 479.04 -191.29 479.04 C-191.85 479.02 -192.42 479.01 -193 479 C-195.32 473.91 -197.5 468.84 -199.29 463.53 C-199.91 461.79 -199.91 461.79 -202 461 C-202.71 459.36 -202.71 459.36 -203.38 457.31 C-204.52 454.06 -205.94 451.58 -207.95 448.77 C-211.13 443.42 -212.91 437.09 -214 431 C-214.66 431 -215.32 431 -216 431 C-216.17 430.13 -216.34 429.26 -216.52 428.37 C-216.76 427.2 -217 426.04 -217.25 424.88 C-217.36 424.31 -217.47 423.74 -217.58 423.15 C-218.29 419.85 -218.93 418.09 -221.05 415.34 C-224.31 410.8 -223.79 405.01 -224 399.62 C-224.31 391.81 -224.78 385.7 -229 379 C-229.54 378.05 -230.07 377.1 -230.62 376.12 C-231.96 373.9 -231.96 373.9 -234 372 C-235.38 365.22 -235.17 358.03 -235.2 351.14 C-235.21 350.14 -235.21 349.15 -235.22 348.12 C-235.23 346.04 -235.24 343.95 -235.24 341.87 C-235.25 338.68 -235.28 335.49 -235.31 332.3 C-235.32 330.27 -235.32 328.23 -235.33 326.2 C-235.34 325.25 -235.35 324.3 -235.37 323.32 C-235.35 318.22 -234.98 315.29 -232 311 C-231.47 308.49 -231.47 308.49 -231.38 305.87 C-231.31 304.9 -231.24 303.92 -231.17 302.92 C-231.12 301.92 -231.06 300.91 -231 299.88 C-229.84 279.84 -229.84 279.84 -226 276 C-225.8 273.45 -225.68 270.9 -225.57 268.35 C-225 266 -225 266 -222.96 264.68 C-222.31 264.46 -221.67 264.23 -221 264 C-221.02 263.52 -221.05 263.03 -221.07 262.53 C-221.09 261.86 -221.11 261.19 -221.12 260.5 C-221.15 259.85 -221.17 259.2 -221.2 258.53 C-220.66 251.65 -218.11 245.2 -215.62 238.81 C-215.33 238.03 -215.04 237.25 -214.74 236.45 C-213.01 231.97 -211.23 228.56 -208 225 C-205.59 222.22 -203.88 219.87 -202.62 216.44 C-201.05 212.6 -198.73 210.71 -195 209 C-193.19 208.36 -191.38 207.74 -189.56 207.12 C-185.88 205.87 -183.31 204.7 -180.5 202 C-175.72 197.45 -169.02 195.18 -162.5 194.56 C-161.68 194.38 -160.85 194.19 -160 194 C-159.56 193.22 -159.11 192.44 -158.65 191.63 C-155.76 187.03 -151 185.71 -146 184 C-142.88 183.31 -139.8 182.78 -136.63 182.36 C-134.33 182.05 -132.2 181.74 -130 181 C-129.73 180.38 -129.46 179.76 -129.19 179.12 C-127.35 175.84 -124.43 175.25 -121 174 C-116.54 172.36 -113.49 170.79 -110.25 167.27 C-108.07 165.06 -105.68 163.57 -103 162 C-102.01 162 -101.02 162 -100 162 C-99.75 161.43 -99.5 160.86 -99.25 160.27 C-97.82 157.66 -96.1 155.79 -94.06 153.62 C-90.93 150.18 -88.87 147.23 -87 143 C-85.44 140.62 -85.44 140.62 -84 139 C-83.34 139 -82.68 139 -82 139 C-81.92 138.42 -81.83 137.83 -81.75 137.23 C-80.78 134.35 -79.37 133.2 -77.06 131.25 C-76.35 130.64 -75.64 130.02 -74.91 129.39 C-73 128 -73 128 -71 128 C-70.98 127.42 -70.96 126.84 -70.94 126.25 C-69.64 123.14 -67.73 122.58 -64.82 121.05 C-62.68 119.81 -61.08 118.24 -59.39 116.44 C-57.61 114.6 -55.73 112.89 -53.81 111.19 C-53.14 110.58 -52.46 109.98 -51.77 109.36 C-50 108 -50 108 -48 108 C-47.69 107.2 -47.38 106.39 -47.06 105.56 C-46 103 -46 103 -45 102 C-44.68 100.61 -44.39 99.21 -44.12 97.81 C-43.27 93.77 -42.02 90.59 -40 87 C-39.34 87 -38.68 87 -38 87 C-37.89 86.32 -37.78 85.65 -37.67 84.95 C-37.51 84.06 -37.35 83.17 -37.19 82.25 C-36.96 80.93 -36.96 80.93 -36.73 79.58 C-35.94 76.79 -34.79 75.25 -33 73 C-32.6 71.52 -32.6 71.52 -32.19 70 C-30.79 66.48 -29.65 65.83 -26.52 64 C-24.16 62.45 -22.71 60.22 -21 58 C-17.48 55 -17.48 55 -15 55 C-12.6 47.64 -11.02 40.29 -9.62 32.69 C-7.89 23.59 -5.66 15.48 -2 7 C-1.24 4.68 -0.61 2.37 0 0 Z M0 15 C-1.6 18.51 -2.22 21.14 -2 25 C-2.66 25 -3.32 25 -4 25 C-4.07 25.59 -4.14 26.18 -4.21 26.78 C-4.54 29.5 -4.9 32.22 -5.25 34.94 C-5.36 35.86 -5.47 36.79 -5.58 37.74 C-6.68 46 -8.62 53.3 -15 59 C-15 59.66 -15 60.32 -15 61 C-16.32 61.33 -17.64 61.66 -19 62 C-19.08 62.62 -19.16 63.24 -19.25 63.88 C-20 66 -20 66 -21.88 67.12 C-22.58 67.41 -23.28 67.7 -24 68 C-25.74 68.85 -25.74 68.85 -27 70 C-27 70.99 -27 71.98 -27 73 C-27.66 73 -28.32 73 -29 73 C-29.17 73.47 -29.34 73.95 -29.52 74.43 C-34.32 87.54 -34.32 87.54 -37.75 92.56 C-39.53 96.03 -39.26 99.18 -39 103 C-39.66 103 -40.32 103 -41 103 C-41.33 104.65 -41.66 106.3 -42 108 C-42.66 108 -43.32 108 -44 108 C-44.23 108.6 -44.45 109.2 -44.69 109.81 C-46.36 112.6 -48.21 113.38 -51 115 C-51.9 115.83 -52.77 116.68 -53.62 117.56 C-56 120 -56 120 -57.81 121.19 C-58.4 121.59 -58.4 121.59 -59 122 C-59 122.66 -59 123.32 -59 124 C-60.32 124.33 -61.64 124.66 -63 125 C-63 125.66 -63 126.32 -63 127 C-65.97 127.99 -65.97 127.99 -69 129 C-69 129.99 -69 130.98 -69 132 C-69.96 132.4 -69.96 132.4 -70.94 132.81 C-73.33 133.89 -73.33 133.89 -74 137 C-74.99 137 -75.98 137 -77 137 C-79.52 138.81 -80.04 140.12 -81 143.12 C-81.33 144.07 -81.66 145.02 -82 146 C-82.99 146.33 -83.98 146.66 -85 147 C-85.27 147.91 -85.54 148.81 -85.81 149.75 C-87.17 153.46 -88.5 154.53 -91.54 156.84 C-93.44 158.35 -94.75 159.92 -96 162 C-96 162.99 -96 163.98 -96 165 C-97.39 165.43 -97.39 165.43 -98.81 165.88 C-102.17 167.02 -102.17 167.02 -105 169 C-105 169.66 -105 170.32 -105 171 C-105.78 171.1 -106.57 171.21 -107.38 171.31 C-110.03 171.7 -110.03 171.7 -110.96 173.45 C-112.21 175.32 -113.11 175.7 -115.19 176.5 C-115.8 176.74 -116.41 176.99 -117.05 177.24 C-118.01 177.62 -118.01 177.62 -119 178 C-120.31 178.56 -121.63 179.12 -122.94 179.69 C-123.95 180.12 -124.96 180.55 -126 181 C-126 181.66 -126 182.32 -126 183 C-126.66 183 -127.32 183 -128 183 C-128.33 183.66 -128.66 184.32 -129 185 C-130.77 185.5 -130.77 185.5 -133.04 185.85 C-134.25 186.04 -134.25 186.04 -135.49 186.24 C-136.34 186.37 -137.19 186.49 -138.06 186.62 C-139.34 186.83 -139.34 186.83 -140.65 187.03 C-142.77 187.36 -144.88 187.68 -147 188 C-147 188.66 -147 189.32 -147 190 C-147.93 190.08 -148.86 190.16 -149.81 190.25 C-153.04 190.72 -153.04 190.72 -154.88 192.88 C-156.23 195.04 -156.23 195.04 -156 198 C-164.41 199.98 -164.41 199.98 -173 202 C-173 202.66 -173 203.32 -173 204 C-173.72 204.08 -174.44 204.16 -175.19 204.25 C-178.58 205.16 -180.37 206.71 -183 209 C-185.31 210.76 -187.36 211.48 -190.19 212.12 C-190.9 212.29 -191.62 212.46 -192.36 212.63 C-192.9 212.75 -193.44 212.88 -194 213 C-194 213.66 -194 214.32 -194 215 C-194.9 215.03 -194.9 215.03 -195.81 215.06 C-198.48 216.2 -198.57 216.83 -199.62 219.44 C-199.84 220.05 -200.06 220.67 -200.29 221.31 C-201 223 -201 223 -203 225 C-203 225.99 -203 226.98 -203 228 C-203.66 228 -204.32 228 -205 228 C-205 228.99 -205 229.98 -205 231 C-205.99 231.33 -206.98 231.66 -208 232 C-209.2 234.34 -210.11 236.54 -211 239 C-211.36 239.95 -211.71 240.91 -212.08 241.89 C-214.06 247.45 -215.54 252.09 -215 258 C-215.66 258 -216.32 258 -217 258 C-217.04 258.55 -217.07 259.11 -217.11 259.68 C-217.18 260.4 -217.24 261.13 -217.31 261.88 C-217.37 262.59 -217.43 263.31 -217.49 264.05 C-218 266 -218 266 -219.5 266.9 C-221.14 267.86 -221.14 267.86 -221.43 269.6 C-221.47 270.53 -221.47 270.53 -221.51 271.48 C-221.55 272.15 -221.58 272.82 -221.62 273.51 C-221.65 274.56 -221.65 274.56 -221.69 275.62 C-221.74 276.68 -221.74 276.68 -221.79 277.77 C-221.87 279.51 -221.94 281.25 -222 283 C-222.66 283 -223.32 283 -224 283 C-225.68 292.75 -226.25 302.11 -226 312 C-226.66 312 -227.32 312 -228 312 C-230.52 316.83 -230.27 321.45 -230.23 326.76 C-230.23 327.71 -230.23 328.65 -230.23 329.63 C-230.23 331.63 -230.22 333.63 -230.21 335.63 C-230.19 338.66 -230.19 341.69 -230.19 344.72 C-230.18 346.67 -230.17 348.62 -230.17 350.57 C-230.17 351.47 -230.17 352.36 -230.16 353.29 C-230.12 359.24 -229.69 365.09 -229 371 C-228.01 371.33 -227.02 371.66 -226 372 C-225.16 373.86 -225.16 373.86 -224.5 376.19 C-223.71 378.93 -222.96 381.07 -221.46 383.52 C-218.5 389.25 -219.19 396.58 -218.92 402.88 C-218.54 409.32 -217.93 412.91 -214 418 C-213.46 420.74 -213.46 420.74 -213.38 423.31 C-213.32 425.84 -213.32 425.84 -213 428 C-212.34 428.33 -211.68 428.66 -211 429 C-208.05 433.05 -207.02 437.18 -206 442 C-205.34 442 -204.68 442 -204 442 C-203.9 442.72 -203.79 443.44 -203.69 444.19 C-202.93 447.27 -201.65 449.3 -200 452 C-199.23 453.98 -198.62 455.96 -198 458 C-197.34 458 -196.68 458 -196 458 C-195.89 458.72 -195.78 459.43 -195.66 460.17 C-194.96 463.19 -193.87 465.56 -192.44 468.31 C-191.75 469.64 -191.75 469.64 -191.06 470.99 C-190.71 471.65 -190.36 472.32 -190 473 C-189.67 473 -189.34 473 -189 473 C-188.85 468.01 -188.71 463.01 -188.57 458.02 C-188.53 456.32 -188.48 454.63 -188.43 452.94 C-188.12 442.29 -187.93 431.65 -188 421 C-187.34 421 -186.68 421 -186 421 C-184.81 413.24 -184.65 405.46 -184.44 397.62 C-184.41 396.55 -184.41 396.55 -184.37 395.44 C-183.97 381.63 -183.88 367.82 -184 354 C-183.01 353.67 -182.02 353.34 -181 353 C-181 351.35 -181 349.7 -181 348 C-180.34 348 -179.68 348 -179 348 C-178.75 346.36 -178.75 346.36 -178.5 344.69 C-176.55 336.71 -170.27 330.03 -164.43 324.52 C-159.6 319.22 -159.31 314.34 -159.31 307.46 C-159.3 305.64 -159.16 303.82 -159 302 C-157.54 300.89 -157.54 300.89 -156 300 C-155.07 298.42 -155.07 298.42 -154.44 296.62 C-154.19 296 -153.94 295.38 -153.68 294.74 C-153.46 294.17 -153.23 293.59 -153 293 C-151.68 290.04 -150.38 288.19 -148 286 C-147.32 285.3 -146.64 284.6 -145.94 283.88 C-144 282 -144 282 -142 281 C-142 280.34 -142 279.68 -142 279 C-141.39 278.87 -140.77 278.73 -140.14 278.6 C-139.33 278.42 -138.52 278.24 -137.69 278.06 C-136.89 277.89 -136.09 277.71 -135.26 277.54 C-132.85 277 -132.85 277 -130 276 C-130 275.34 -130 274.68 -130 274 C-129.36 273.9 -128.72 273.79 -128.06 273.69 C-120.15 271.91 -113.14 268.8 -106 265 C-105.07 264.53 -104.14 264.05 -103.19 263.56 C-100.69 261.78 -99.01 259.8 -97.12 257.41 C-95.85 255.81 -94.47 254.41 -93 253 C-91.82 251.79 -91.82 251.79 -90.62 250.56 C-85.63 245.63 -80.64 242.67 -74.33 239.56 C-71.84 238.22 -71.84 238.22 -71.17 235.81 C-71.12 235.21 -71.06 234.62 -71 234 C-69.79 233.97 -69.79 233.97 -68.56 233.94 C-64.27 233.27 -61.46 230.44 -58.25 227.69 C-55.88 225.91 -53.77 225 -51 224 C-49.57 223.4 -48.16 222.77 -46.75 222.12 C-46.06 221.82 -45.38 221.51 -44.67 221.2 C-42.8 220.13 -42.8 220.13 -42.52 217.99 C-42 216 -42 216 -40.26 214.96 C-39.51 214.64 -38.77 214.33 -38 214 C-36.27 212.91 -34.56 211.78 -32.88 210.62 C-32.01 210.04 -31.14 209.45 -30.24 208.85 C-27.92 206.93 -27.25 205.67 -26 203 C-24.67 201.66 -23.34 200.33 -22 199 C-18.06 193.38 -15.2 187.51 -12.96 181.03 C-11.9 178.79 -11.06 178.25 -9 177 C-9 176.34 -9 175.68 -9 175 C-8.34 175 -7.68 175 -7 175 C-5.15 171.38 -3.45 167.8 -2 164 C-1.01 164 -0.02 164 1 164 C1.29 163.36 1.58 162.72 1.88 162.06 C3 160 3 160 5 159 C5.48 156.3 5.48 156.3 5.62 153 C5.66 152.39 5.7 151.78 5.74 151.15 C6.17 143.44 6.08 135.72 6 128 C6.66 128 7.32 128 8 128 C10.32 119.58 10.27 111.29 10.21 102.63 C10.19 100.27 10.19 97.9 10.19 95.54 C10.17 87.52 9.9 79.6 9.25 71.6 C8.71 64.46 8.62 57.28 8.44 50.12 C8.39 48.55 8.35 46.98 8.31 45.4 C8.2 41.6 8.1 37.8 8 34 C7.34 33.67 6.68 33.34 6 33 C5.59 30.5 5.59 30.5 5.38 27.44 C5.26 25.92 5.26 25.92 5.15 24.37 C5.1 23.59 5.05 22.81 5 22 C4.34 22 3.68 22 3 22 C2.67 19.69 2.34 17.38 2 15 C1.34 15 0.68 15 0 15 Z " fill="#0B040B" transform="translate(350,45)"/><path d="M0 0 C1.04 0 1.04 0 2.1 0 C2.81 -0 3.53 -0.01 4.27 -0.01 C5.78 -0.02 7.3 -0.02 8.82 -0.01 C11.12 -0.01 13.43 -0.03 15.74 -0.06 C17.21 -0.06 18.69 -0.06 20.16 -0.06 C20.85 -0.07 21.53 -0.08 22.24 -0.09 C26.93 -0.04 29.83 0.95 33.9 3.3 C35.88 4.07 37.86 4.67 39.9 5.3 C39.88 5.95 39.85 6.59 39.83 7.25 C40 14.43 41.97 18.93 45.93 24.71 C50.25 31.03 51.21 36.56 51.08 44.12 C51.08 45.28 51.08 45.28 51.08 46.47 C51.04 52.16 51.04 52.16 49.9 53.3 C49.76 55.28 49.66 57.26 49.58 59.24 C49.27 64.52 48.19 68.75 46 73.55 C44.37 77.62 43.41 81.85 42.47 86.13 C41.46 90.32 40.2 92.36 36.9 95.3 C36.08 96.57 35.31 97.86 34.58 99.18 C31.51 104.26 27.61 108.4 21.9 110.3 C20.74 111.57 19.64 112.89 18.58 114.24 C15.46 117.96 13.49 119.1 8.9 120.3 C8.4 121.79 8.4 121.79 7.9 123.3 C6.37 124.22 6.37 124.22 4.52 124.93 C3.92 125.17 3.31 125.41 2.68 125.66 C1.1 126.23 -0.5 126.77 -2.1 127.3 C-2.73 129.11 -2.73 129.11 -2.98 131.3 C-3.64 134.9 -4.58 137.28 -6.6 140.3 C-10.35 146.48 -10.38 153.72 -10.89 160.77 C-11.1 162.3 -11.1 162.3 -12.1 163.3 C-12.32 165.95 -12.48 168.59 -12.6 171.24 C-12.66 172.43 -12.66 172.43 -12.73 173.65 C-12.86 176.2 -12.98 178.75 -13.1 181.3 C-13.27 184.66 -13.43 188.01 -13.6 191.37 C-13.64 192.15 -13.67 192.92 -13.71 193.73 C-13.99 199.19 -13.99 199.19 -15.1 200.3 C-17.74 200.46 -20.34 200.54 -22.98 200.55 C-24.08 200.58 -24.08 200.58 -25.2 200.62 C-25.91 200.62 -26.62 200.63 -27.35 200.63 C-27.99 200.64 -28.64 200.65 -29.31 200.66 C-31.78 200.17 -32.62 199.32 -34.1 197.3 C-34.54 195.13 -34.54 195.13 -34.62 192.64 C-34.65 191.74 -34.69 190.85 -34.72 189.93 C-34.75 189 -34.77 188.07 -34.79 187.12 C-34.83 186.18 -34.86 185.24 -34.9 184.27 C-34.98 181.95 -35.05 179.63 -35.1 177.3 C-36.75 176.97 -38.4 176.64 -40.1 176.3 C-40.13 175.62 -40.15 174.93 -40.17 174.22 C-40.39 167.72 -40.61 161.21 -40.83 154.71 C-40.95 151.37 -41.06 148.02 -41.17 144.68 C-41.28 141.45 -41.39 138.22 -41.5 134.99 C-41.55 133.77 -41.59 132.54 -41.63 131.31 C-41.68 129.58 -41.75 127.85 -41.81 126.13 C-41.84 125.14 -41.87 124.16 -41.91 123.15 C-42.11 120.15 -42.58 117.26 -43.1 114.3 C-43.23 112.58 -43.32 110.85 -43.39 109.12 C-43.42 108.17 -43.46 107.22 -43.5 106.25 C-43.6 103.3 -43.6 103.3 -43.71 100.36 C-43.93 94.79 -43.93 94.79 -44.61 89.26 C-46.39 78.59 -47.11 66.16 -41.2 56.75 C-40.66 56.04 -40.66 56.04 -40.1 55.3 C-39.44 55.3 -38.78 55.3 -38.1 55.3 C-37.97 54.45 -37.84 53.59 -37.7 52.71 C-37.44 51.06 -37.44 51.06 -37.17 49.37 C-36.99 48.26 -36.82 47.16 -36.64 46.03 C-36.1 43.3 -36.1 43.3 -35.1 42.3 C-34.94 40.95 -34.83 39.6 -34.73 38.24 C-34.25 33.53 -32.96 29.64 -31.1 25.3 C-30.85 24.66 -30.6 24.02 -30.35 23.35 C-29.06 20.12 -27.97 17.45 -25.1 15.3 C-24.11 14.97 -23.12 14.64 -22.1 14.3 C-21.86 13.56 -21.61 12.82 -21.35 12.05 C-19.4 7.76 -15.73 5.35 -11.38 3.62 C-9.96 3.17 -8.53 2.74 -7.1 2.3 C-4.67 -0.13 -3.33 0.05 0 0 Z M-5.1 8.3 C-6.97 8.75 -6.97 8.75 -8.98 8.99 C-11.69 9.56 -12.79 9.9 -14.53 12.1 C-15.74 14.21 -15.74 14.21 -16.71 16.33 C-18.1 18.3 -18.1 18.3 -21.14 19.62 C-24.42 21.06 -24.42 21.06 -25.28 24.59 C-25.49 25.84 -25.69 27.1 -25.85 28.37 C-26.9 35.1 -26.9 35.1 -29.1 37.3 C-29.35 39.28 -29.35 39.28 -29.23 41.43 C-29.21 42.15 -29.19 42.88 -29.17 43.62 C-29.15 44.18 -29.13 44.73 -29.1 45.3 C-28.11 44.81 -28.11 44.81 -27.1 44.3 C-26.39 41.22 -25.85 38.15 -25.34 35.03 C-24.42 29.9 -23.18 26.06 -19.06 22.57 C-18.35 22.09 -17.65 21.61 -16.92 21.12 C-14.8 19.71 -14.8 19.71 -13.1 18.3 C-13.1 17.64 -13.1 16.98 -13.1 16.3 C-11.45 15.64 -9.8 14.98 -8.1 14.3 C-8.1 13.64 -8.1 12.98 -8.1 12.3 C-7.11 12.04 -6.12 11.77 -5.1 11.49 C-2.28 10.68 0.5 9.79 3.27 8.8 C3.94 8.57 4.61 8.33 5.29 8.08 C7.1 7.41 7.1 7.41 7.9 5.3 C6.29 5.22 4.69 5.16 3.08 5.12 C2.19 5.08 1.3 5.05 0.38 5.01 C-2.6 5.36 -3.13 6.17 -5.1 8.3 Z M8.9 12.3 C7.41 12.43 7.41 12.43 5.9 12.55 C-1.89 13.49 -8.42 19.08 -13.57 24.66 C-15.1 26.3 -15.1 26.3 -16.61 27.54 C-19.75 30.15 -20.47 32.21 -20.92 36.12 C-21 37.51 -21.07 38.91 -21.1 40.3 C-21.76 40.3 -22.42 40.3 -23.1 40.3 C-23.25 40.86 -23.4 41.42 -23.55 41.99 C-25.32 48 -27.85 52.68 -32.1 57.3 C-32.62 57.57 -33.14 57.83 -33.67 58.11 C-35.32 59.23 -35.32 59.23 -35.48 61.42 C-35.48 62.29 -35.48 63.16 -35.48 64.06 C-35.48 65.04 -35.49 66.03 -35.5 67.05 C-35.48 68.66 -35.48 68.66 -35.47 70.3 C-35.47 71.39 -35.47 72.49 -35.47 73.62 C-35.47 75.95 -35.46 78.27 -35.44 80.6 C-35.42 83.57 -35.42 86.55 -35.42 89.52 C-35.43 92.36 -35.42 95.2 -35.4 98.05 C-35.41 99.11 -35.41 100.18 -35.41 101.28 C-35.4 102.27 -35.39 103.27 -35.38 104.29 C-35.37 105.16 -35.37 106.04 -35.36 106.94 C-35.24 109.31 -35.24 109.31 -34.11 111.26 C-32.8 113.92 -32.83 116 -32.8 118.96 C-32.78 120.09 -32.77 121.23 -32.75 122.4 C-32.74 123.63 -32.73 124.86 -32.73 126.09 C-32.71 127.36 -32.69 128.63 -32.67 129.89 C-32.63 133.22 -32.59 136.55 -32.56 139.88 C-32.51 145.22 -32.44 150.56 -32.37 155.9 C-32.35 157.76 -32.33 159.62 -32.32 161.49 C-32.31 162.62 -32.29 163.75 -32.28 164.91 C-32.27 165.9 -32.26 166.9 -32.25 167.93 C-32.26 170.32 -32.26 170.32 -31.1 172.3 C-30.99 173.95 -30.93 175.59 -30.89 177.24 C-30.86 178.22 -30.84 179.2 -30.81 180.2 C-30.76 182.27 -30.71 184.34 -30.67 186.41 C-30.64 187.38 -30.61 188.36 -30.58 189.37 C-30.55 190.71 -30.55 190.71 -30.52 192.09 C-30.31 193.19 -30.31 193.19 -30.1 194.3 C-26.58 197.12 -26.58 197.12 -19.1 195.3 C-19.1 188.37 -19.1 181.44 -19.1 174.3 C-18.44 174.3 -17.78 174.3 -17.1 174.3 C-17.03 173.44 -16.96 172.57 -16.89 171.68 C-16.63 168.42 -16.34 165.18 -16.04 161.93 C-15.92 160.53 -15.8 159.13 -15.69 157.72 C-15.05 149.82 -14.45 143.15 -10.1 136.3 C-8.65 133.11 -7.84 130.82 -8.1 127.3 C-7.44 127.3 -6.78 127.3 -6.1 127.3 C-5.75 126.54 -5.4 125.78 -5.04 124.99 C-2.22 121.07 1.35 120.48 5.9 119.3 C5.9 118.31 5.9 117.32 5.9 116.3 C6.56 116.3 7.22 116.3 7.9 116.3 C7.9 115.64 7.9 114.98 7.9 114.3 C8.64 114.22 9.38 114.14 10.15 114.05 C13.46 113.15 14.78 111.97 16.9 109.3 C16.9 108.31 16.9 107.32 16.9 106.3 C17.97 106.22 19.04 106.14 20.15 106.05 C23.88 105.54 25.45 104.21 27.9 101.3 C28.56 100.97 29.22 100.64 29.9 100.3 C30.69 98.82 30.69 98.82 31.33 97.05 C32.28 94.69 33.21 92.8 34.58 90.62 C35.95 88.22 36.2 87.01 35.9 84.3 C36.56 84.3 37.22 84.3 37.9 84.3 C38.23 81.66 38.56 79.02 38.9 76.3 C39.56 76.3 40.22 76.3 40.9 76.3 C41.1 75.52 41.31 74.74 41.52 73.93 C41.79 72.92 42.06 71.91 42.33 70.87 C42.6 69.86 42.87 68.85 43.14 67.81 C43.9 65.3 43.9 65.3 44.9 64.3 C45.45 59.65 45.67 54.98 45.9 50.3 C45.95 49.33 45.95 49.33 46 48.33 C46.42 39.77 45.97 33.08 41.9 25.3 C41.4 24.31 41.4 24.31 40.9 23.3 C40.24 23.3 39.58 23.3 38.9 23.3 C38.82 24.15 38.82 24.15 38.75 25.02 C38.67 25.75 38.6 26.49 38.52 27.24 C38.45 27.97 38.38 28.7 38.31 29.46 C38.17 30.07 38.04 30.68 37.9 31.3 C37.24 31.63 36.58 31.96 35.9 32.3 C35.57 24.71 35.24 17.12 34.9 9.3 C32.24 9.28 29.57 9.26 26.83 9.24 C25.6 9.23 25.6 9.23 24.34 9.21 C15.95 8.82 15.95 8.82 8.9 12.3 Z M-30.1 45.3 C-29.1 47.3 -29.1 47.3 -29.1 47.3 Z " fill="#070207" transform="translate(152.10406494140625,51.69645690917969)"/><path d="M0 0 C2.02 0.52 2.02 0.52 3.89 2.71 C4.26 3.64 4.63 4.57 5.02 5.52 C5.52 6.24 6.03 6.95 6.55 7.68 C8.49 11.44 8.5 14.61 8.58 18.77 C8.69 23.22 8.91 27.4 9.98 31.73 C11.05 36.37 11.52 40.93 11.83 45.68 C11.89 46.51 11.95 47.34 12.02 48.19 C12.21 50.8 12.4 53.41 12.58 56.02 C12.77 58.66 12.95 61.3 13.15 63.94 C13.27 65.58 13.39 67.21 13.5 68.85 C13.45 72.49 13.45 72.49 15.02 75.52 C16.39 83.22 16.17 90.99 16.14 98.77 C16.14 99.9 16.14 99.9 16.14 101.04 C16.11 124.54 15.53 148.03 15.02 171.52 C13.37 171.85 11.72 172.18 10.02 172.52 C9.36 176.81 8.7 181.1 8.02 185.52 C7.36 185.52 6.7 185.52 6.02 185.52 C5.96 186.41 5.96 186.41 5.91 187.31 C5.74 190.03 5.53 192.74 5.33 195.46 C5.27 196.39 5.22 197.31 5.17 198.27 C4.68 204.29 3.4 208.49 0.11 213.58 C-1.04 215.62 -1.32 216.96 -1.48 219.27 C-2.16 223.66 -3.66 224.68 -6.98 227.52 C-7.64 228.18 -8.3 228.84 -8.98 229.52 C-11.11 229.65 -11.11 229.65 -12.98 229.52 C-13.31 230.51 -13.64 231.5 -13.98 232.52 C-18.97 234.89 -23.79 234.79 -29.23 234.71 C-30.05 234.71 -30.86 234.71 -31.7 234.71 C-37.7 234.66 -37.7 234.66 -39.98 233.52 C-40.89 230.85 -41.12 228.32 -41.2 225.51 C-41.51 216.36 -41.84 208.41 -46.24 200.18 C-50.05 192.77 -50.64 186.65 -50.36 178.4 C-50.35 177.26 -50.33 176.13 -50.32 174.96 C-50.17 166.71 -50.17 166.71 -48.98 165.52 C-48.73 163.64 -48.54 161.76 -48.37 159.87 C-48.26 158.69 -48.14 157.51 -48.03 156.33 C-47.85 154.47 -47.67 152.62 -47.51 150.76 C-46.89 143.65 -45.85 137.45 -42.91 130.85 C-41.1 126.3 -40.73 121.45 -40.12 116.61 C-40.01 115.85 -39.9 115.09 -39.79 114.3 C-39.71 113.62 -39.62 112.94 -39.54 112.24 C-38.83 110.06 -37.91 109.67 -35.98 108.52 C-33.68 103.14 -32.61 97.32 -31.98 91.52 C-30.5 91.03 -30.5 91.03 -28.98 90.52 C-28.49 89.04 -28.49 89.04 -27.98 87.52 C-27.49 87.05 -26.99 86.57 -26.48 86.08 C-24.7 84.23 -24.47 83.19 -24.11 80.69 C-23.93 79.59 -23.93 79.59 -23.75 78.46 C-23.59 77.32 -23.59 77.32 -23.42 76.15 C-23.2 74.64 -22.97 73.13 -22.73 71.62 C-22.59 70.62 -22.59 70.62 -22.44 69.6 C-21.98 67.52 -21.98 67.52 -20.98 65.1 C-19.93 62.38 -19.59 60.12 -19.35 57.22 C-19.27 56.25 -19.18 55.27 -19.1 54.26 C-19.02 53.26 -18.94 52.25 -18.86 51.21 C-18.77 50.18 -18.69 49.16 -18.6 48.1 C-18.39 45.57 -18.18 43.05 -17.98 40.52 C-16.99 40.19 -16 39.86 -14.98 39.52 C-14.96 38.88 -14.94 38.23 -14.92 37.57 C-14.83 34.6 -14.72 31.62 -14.61 28.65 C-14.58 27.64 -14.55 26.62 -14.52 25.58 C-13.8 6.96 -13.8 6.96 -8.61 1.53 C-5.82 -0.19 -3.22 -0.22 0 0 Z M-6.07 7.2 C-8.34 9.95 -8.55 11.33 -8.74 14.85 C-8.81 15.88 -8.88 16.91 -8.95 17.97 C-9 19.04 -9.05 20.11 -9.11 21.21 C-10.24 40.78 -10.24 40.78 -12.98 43.52 C-13.06 44.88 -13.07 46.23 -13.05 47.59 C-13.04 48.32 -13.03 49.05 -13.02 49.81 C-13.01 50.37 -13 50.94 -12.98 51.52 C-13.64 51.52 -14.3 51.52 -14.98 51.52 C-15.11 52.67 -15.23 53.82 -15.35 55 C-15.52 56.53 -15.69 58.06 -15.86 59.59 C-15.98 60.71 -15.98 60.71 -16.1 61.87 C-16.57 66.03 -17.3 69.85 -18.54 73.84 C-19.3 76.7 -19.43 79.51 -19.61 82.46 C-19.68 83.6 -19.76 84.75 -19.84 85.93 C-19.88 86.78 -19.93 87.64 -19.98 88.52 C-20.78 88.83 -21.58 89.13 -22.4 89.44 C-24.94 90.31 -24.94 90.31 -26.3 91.84 C-27.23 94.12 -27.12 96.09 -26.98 98.52 C-27.64 98.52 -28.3 98.52 -28.98 98.52 C-29.18 99.45 -29.37 100.38 -29.57 101.33 C-29.83 102.54 -30.1 103.75 -30.36 104.96 C-30.49 105.57 -30.61 106.18 -30.74 106.81 C-31.09 108.4 -31.53 109.96 -31.98 111.52 C-32.97 112.02 -32.97 112.02 -33.98 112.52 C-33.98 114.5 -33.98 116.48 -33.98 118.52 C-34.64 118.52 -35.3 118.52 -35.98 118.52 C-36.18 119.64 -36.37 120.76 -36.57 121.92 C-36.83 123.39 -37.1 124.86 -37.36 126.34 C-37.49 127.07 -37.61 127.81 -37.74 128.57 C-37.87 129.28 -38 130 -38.13 130.73 C-38.25 131.39 -38.36 132.04 -38.48 132.71 C-38.98 134.52 -38.98 134.52 -40 135.96 C-41.35 138.1 -41.37 139.87 -41.55 142.38 C-41.62 143.33 -41.7 144.29 -41.77 145.27 C-41.88 146.75 -41.88 146.75 -41.98 148.27 C-42.77 159.26 -42.77 159.26 -44.02 162.92 C-45.73 168.23 -45.35 173.88 -45.36 179.4 C-45.38 180.53 -45.41 181.66 -45.43 182.83 C-45.46 190.07 -44.42 195.19 -40.98 201.52 C-37.33 209.7 -37.37 218.08 -37.14 226.9 C-37.15 228.57 -37.15 228.57 -35.98 229.52 C-33.37 229.62 -30.79 229.66 -28.17 229.65 C-27.45 229.65 -26.72 229.66 -25.97 229.66 C-22.5 229.65 -19.32 229.63 -15.98 228.52 C-15.98 227.86 -15.98 227.2 -15.98 226.52 C-14.81 226.15 -14.81 226.15 -13.61 225.77 C-10.66 224.37 -10.08 223.52 -8.98 220.52 C-8.32 220.52 -7.66 220.52 -6.98 220.52 C-6.98 218.54 -6.98 216.56 -6.98 214.52 C-6.32 214.52 -5.66 214.52 -4.98 214.52 C-4.65 212.21 -4.32 209.9 -3.98 207.52 C-3.32 207.52 -2.66 207.52 -1.98 207.52 C-0.81 205.17 -0.78 203.57 -0.67 200.95 C-0.61 199.61 -0.61 199.61 -0.54 198.24 C-0.5 197.3 -0.46 196.36 -0.42 195.4 C-0.36 193.98 -0.36 193.98 -0.29 192.54 C-0.18 190.2 -0.08 187.86 0.02 185.52 C1.01 185.19 2 184.86 3.02 184.52 C3.02 182.21 3.02 179.9 3.02 177.52 C3.68 177.52 4.34 177.52 5.02 177.52 C5.21 176.97 5.4 176.41 5.6 175.84 C5.99 174.76 5.99 174.76 6.39 173.65 C6.77 172.57 6.77 172.57 7.16 171.47 C8.02 169.52 8.02 169.52 10.02 167.52 C10.35 165.6 10.35 165.6 10.33 163.37 C10.35 162.5 10.37 161.64 10.39 160.75 C10.41 159.8 10.42 158.85 10.43 157.88 C10.45 156.89 10.47 155.9 10.49 154.88 C10.55 151.64 10.6 148.39 10.64 145.15 C10.68 142.91 10.71 140.68 10.75 138.45 C10.86 131.81 10.94 125.16 11.02 118.52 C11.03 117.57 11.04 116.63 11.05 115.65 C11.12 110.66 11.17 105.67 11.19 100.69 C11.2 99.23 11.21 97.78 11.22 96.32 C11.31 86.28 10.74 76.43 9.02 66.52 C8.69 66.19 8.36 65.86 8.02 65.52 C7.81 63.32 7.66 61.14 7.55 58.93 C7.47 57.58 7.39 56.22 7.31 54.87 C7.19 52.73 7.08 50.58 6.97 48.44 C6.86 46.37 6.74 44.31 6.61 42.25 C6.58 41.6 6.55 40.96 6.52 40.3 C6.34 36.48 6.34 36.48 4.02 33.52 C2.9 28.73 3.01 23.79 3.14 18.9 C3.18 13.96 2.6 10.76 0.02 6.52 C-2.82 4.79 -3.5 5.13 -6.07 7.2 Z " fill="#0A030A" transform="translate(341.984375,272.4765625)"/><path d="M0 0 C1 3 1 3 0.36 4.72 C0.02 5.31 -0.33 5.89 -0.69 6.5 C-1.02 7.09 -1.36 7.68 -1.7 8.28 C-3 10 -3 10 -5.05 11.33 C-7.17 12.81 -7.17 12.81 -7.49 15.04 C-7.49 15.82 -7.49 16.6 -7.49 17.4 C-7.49 18.29 -7.5 19.18 -7.5 20.1 C-7.49 21.06 -7.48 22.02 -7.46 23 C-7.46 24 -7.46 24.99 -7.46 26.01 C-7.45 28.12 -7.44 30.22 -7.41 32.33 C-7.38 35.53 -7.37 38.72 -7.37 41.92 C-7.36 43.97 -7.35 46.02 -7.34 48.07 C-7.33 49.48 -7.33 49.48 -7.33 50.93 C-7.27 55.41 -6.97 59.56 -6 63.94 C-4.75 69.62 -4.69 75.16 -4.66 80.96 C-4.64 82.06 -4.63 83.17 -4.61 84.31 C-4.56 88.4 -4.52 92.5 -4.48 96.6 C-4.45 100.63 -4.4 104.67 -4.34 108.71 C-4.34 109.77 -4.33 110.82 -4.33 111.91 C-4.31 112.9 -4.3 113.89 -4.29 114.91 C-4.28 115.77 -4.27 116.64 -4.27 117.53 C-3.97 120.31 -3.1 122.45 -2 125 C-1.8 127.08 -1.8 127.08 -1.88 129.1 C-1.89 129.84 -1.91 130.58 -1.92 131.34 C-1.96 132.47 -1.96 132.47 -2 133.62 C-2.05 135.14 -2.09 136.65 -2.12 138.16 C-2.16 139.16 -2.16 139.16 -2.2 140.18 C-1.96 142.38 -1.56 143.42 0 145 C2.08 145.25 2.08 145.25 4 145 C3.98 144.49 3.97 143.97 3.95 143.45 C3.68 133.15 3.69 123.87 7 114 C7.33 114 7.66 114 8 114 C8 118.29 8 122.58 8 127 C7.34 127 6.68 127 6 127 C6 133.93 6 140.86 6 148 C3.03 148.33 0.06 148.66 -3 149 C-5.51 146.49 -5.28 145.54 -5.38 142.06 C-5.41 141.09 -5.45 140.11 -5.48 139.1 C-5.51 138.08 -5.54 137.05 -5.56 136 C-5.62 133.98 -5.69 131.96 -5.75 129.94 C-5.79 128.59 -5.79 128.59 -5.83 127.21 C-5.86 124.96 -5.86 124.96 -7 123 C-7.11 121.2 -7.16 119.4 -7.17 117.6 C-7.19 116.48 -7.2 115.35 -7.21 114.19 C-7.22 113.58 -7.22 112.98 -7.23 112.35 C-7.25 110.46 -7.27 108.57 -7.29 106.68 C-7.37 101.3 -7.43 95.92 -7.48 90.54 C-7.51 87.26 -7.55 83.97 -7.6 80.68 C-7.61 79.42 -7.63 78.17 -7.63 76.92 C-7.65 75.16 -7.67 73.41 -7.7 71.65 C-7.71 70.66 -7.72 69.66 -7.73 68.63 C-8.01 65.91 -8.77 64.41 -10 62 C-10.28 59.65 -10.28 59.65 -10.32 57.04 C-10.34 56.05 -10.36 55.07 -10.38 54.05 C-10.39 52.99 -10.4 51.94 -10.41 50.85 C-10.42 49.21 -10.42 49.21 -10.44 47.54 C-10.46 45.23 -10.47 42.92 -10.48 40.61 C-10.49 37.66 -10.54 34.71 -10.6 31.76 C-10.64 28.94 -10.65 26.11 -10.66 23.29 C-10.68 22.23 -10.71 21.17 -10.73 20.09 C-10.69 12.9 -10.69 12.9 -8.67 10.26 C-7.17 9.02 -5.65 8.03 -4 7 C-2.53 5.08 -2.53 5.08 -1.62 3.19 C-1.31 2.58 -0.99 1.98 -0.66 1.36 C-0.44 0.91 -0.23 0.46 0 0 Z " fill="#925792" transform="translate(127,99)"/><path d="M0 0 C0.66 0.33 1.32 0.66 2 1 C1.91 3.29 1.81 5.58 1.69 7.88 C1.66 8.53 1.64 9.18 1.62 9.85 C1.51 11.74 1.51 11.74 1 15 C-0.48 16.26 -0.48 16.26 -2 17 C-2.33 17.99 -2.66 18.98 -3 20 C-3.99 20 -4.98 20 -6 20 C-6.27 20.7 -6.54 21.4 -6.81 22.12 C-8.07 25.17 -9.5 28.06 -11 31 C-11.66 31 -12.32 31 -13 31 C-13.33 31.99 -13.66 32.98 -14 34 C-14.99 34.5 -14.99 34.5 -16 35 C-16.81 36.81 -17.55 38.65 -18.25 40.5 C-21.12 47.75 -24.87 54.97 -31 60 C-31.66 60 -32.32 60 -33 60 C-32 57 -32 57 -31.06 55.19 C-29.77 52.53 -28.89 49.81 -28 47 C-27.34 47 -26.68 47 -26 47 C-24.92 44.85 -23.85 42.7 -22.82 40.53 C-22.4 39.67 -21.99 38.82 -21.56 37.94 C-21.15 37.08 -20.74 36.22 -20.32 35.34 C-19.07 33.12 -17.82 31.75 -16 30 C-14.81 27.4 -14.81 27.4 -14 25 C-13.34 25 -12.68 25 -12 25 C-11.74 24.41 -11.48 23.82 -11.22 23.22 C-9.91 20.83 -8.45 19.38 -6.5 17.5 C-2.56 13.17 -1.9 9.15 -1.29 3.44 C-1 1 -1 1 0 0 Z " fill="#905A90" transform="translate(354,189)"/><path d="M0 0 C0 1.65 0 3.3 0 5 C-0.66 5 -1.32 5 -2 5 C-2 6.65 -2 8.3 -2 10 C-2.99 10.33 -3.98 10.66 -5 11 C-4.99 11.61 -4.99 12.23 -4.98 12.86 C-4.88 26.79 -5.03 40.7 -5.44 54.62 C-5.46 55.33 -5.48 56.04 -5.5 56.77 C-5.7 63.89 -5.92 70.95 -7 78 C-7.66 78 -8.32 78 -9 78 C-9 80.31 -9 82.62 -9 85 C-9.33 85 -9.66 85 -10 85 C-10.03 82.75 -10.05 80.5 -10.06 78.25 C-10.08 77.3 -10.08 77.3 -10.09 76.33 C-10.11 71.43 -10.11 71.43 -9.51 69.14 C-8.88 66.51 -8.82 64.05 -8.77 61.35 C-8.74 60.21 -8.71 59.08 -8.68 57.91 C-8.67 57.31 -8.66 56.7 -8.65 56.08 C-8.6 54.18 -8.56 52.28 -8.5 50.38 C-8.36 44.97 -8.21 39.57 -8.1 34.16 C-8.03 30.85 -7.94 27.54 -7.84 24.23 C-7.81 22.98 -7.78 21.72 -7.76 20.46 C-7.64 13.34 -7.45 6.88 -3 1 C-1 0 -1 0 0 0 Z " fill="#8D548D" transform="translate(171,388)"/><path d="M0 0 C0.66 0 1.32 0 2 0 C2.01 0.62 2.02 1.24 2.02 1.87 C2.1 7.7 2.19 13.52 2.29 19.35 C2.34 22.35 2.38 25.34 2.42 28.34 C2.47 31.78 2.53 35.23 2.59 38.67 C2.6 40.28 2.6 40.28 2.62 41.92 C2.64 42.92 2.66 43.92 2.68 44.96 C2.69 45.84 2.71 46.71 2.72 47.62 C2.86 50.01 2.86 50.01 4.01 51.96 C5.31 54.64 5.24 56.71 5.23 59.69 C5.23 61.4 5.23 61.4 5.23 63.14 C5.22 64.38 5.21 65.62 5.2 66.86 C5.19 68.13 5.19 69.4 5.19 70.68 C5.18 74.02 5.16 77.36 5.14 80.7 C5.12 84.11 5.11 87.52 5.1 90.93 C5.08 97.62 5.04 104.31 5 111 C4.67 111 4.34 111 4 111 C4 93.18 4 75.36 4 57 C3.34 57 2.68 57 2 57 C0.01 50.39 -0.26 44.38 -0.2 37.5 C-0.19 36.42 -0.19 35.35 -0.19 34.24 C-0.18 30.83 -0.15 27.41 -0.12 24 C-0.11 21.68 -0.11 19.35 -0.1 17.03 C-0.08 11.35 -0.04 5.68 0 0 Z " fill="#2A1428" transform="translate(115,111)"/><path d="M0 0 C0.33 0.66 0.66 1.32 1 2 C0.54 2.92 0.54 2.92 0.07 3.85 C-1.13 6.26 -1.23 7.67 -1.17 10.34 C-1.15 11.19 -1.14 12.03 -1.13 12.91 C-1.1 13.81 -1.07 14.72 -1.05 15.66 C-1.03 16.6 -1.01 17.53 -0.99 18.5 C-0.94 20.49 -0.89 22.47 -0.83 24.45 C-0.75 27.49 -0.69 30.52 -0.63 33.56 C-0.58 35.49 -0.53 37.42 -0.48 39.34 C-0.47 40.25 -0.45 41.16 -0.43 42.09 C-0.4 42.94 -0.38 43.79 -0.35 44.66 C-0.33 45.41 -0.31 46.15 -0.29 46.91 C0.04 49.3 0.77 50.94 2 53 C2.99 53.68 3.99 54.35 5 55 C8.55 60.98 10.34 68.11 10 75 C9.34 75 8.68 75 8 75 C7.77 74.09 7.55 73.19 7.31 72.25 C5.98 67.52 3.98 63.07 2.02 58.57 C1 56 1 56 1 54 C0.01 53.67 -0.98 53.34 -2 53 C-2.76 46.36 -3.17 39.81 -3.2 33.12 C-3.21 32.23 -3.21 31.34 -3.22 30.42 C-3.23 28.56 -3.24 26.7 -3.24 24.84 C-3.25 21.98 -3.28 19.12 -3.31 16.26 C-3.32 14.45 -3.32 12.63 -3.33 10.81 C-3.34 9.96 -3.35 9.1 -3.37 8.22 C-3.36 7.43 -3.36 6.64 -3.36 5.83 C-3.36 5.14 -3.36 4.44 -3.37 3.73 C-3 2 -3 2 -1.48 0.76 C-0.99 0.51 -0.5 0.26 0 0 Z " fill="#945A93" transform="translate(123,363)"/><path d="M0 0 C0.33 0 0.66 0 1 0 C1 4.29 1 8.58 1 13 C0.34 13 -0.32 13 -1 13 C-1 19.93 -1 26.86 -1 34 C-5.46 34.5 -5.46 34.5 -10 35 C-12.51 32.49 -12.28 31.57 -12.38 28.1 C-12.41 27.13 -12.45 26.15 -12.48 25.15 C-12.51 24.13 -12.54 23.11 -12.56 22.06 C-12.62 20.05 -12.69 18.04 -12.75 16.04 C-12.78 15.14 -12.8 14.25 -12.83 13.33 C-12.92 10.84 -12.92 10.84 -14 8 C-12.68 8 -11.36 8 -10 8 C-9.09 10.72 -8.9 12.13 -8.97 14.91 C-8.98 15.65 -9 16.39 -9.01 17.16 C-9.04 18.72 -9.08 20.28 -9.13 21.84 C-9.14 22.58 -9.15 23.33 -9.16 24.09 C-9.18 24.77 -9.19 25.45 -9.21 26.15 C-8.96 28.36 -8.57 29.41 -7 31 C-4.92 31.25 -4.92 31.25 -3 31 C-3.02 30.49 -3.03 29.97 -3.05 29.45 C-3.32 19.15 -3.31 9.87 0 0 Z " fill="#945892" transform="translate(134,213)"/><path d="M0 0 C0.99 0 1.98 0 3 0 C3 12.21 3 24.42 3 37 C0.3 34.3 -0.73 32.86 -2.19 29.5 C-2.53 28.73 -2.88 27.95 -3.23 27.16 C-4 25 -4 25 -4 22 C-4.66 22 -5.32 22 -6 22 C-6.33 21.01 -6.66 20.02 -7 19 C-6.34 19 -5.68 19 -5 19 C-5.33 17.68 -5.66 16.36 -6 15 C-5.34 15 -4.68 15 -4 15 C-2.11 17.21 -2 17.96 -2 21 C-1.34 21 -0.68 21 0 21 C0 14.07 0 7.14 0 0 Z " fill="#875187" transform="translate(158,481)"/><path d="M0 0 C0.66 0 1.32 0 2 0 C2.33 2.31 2.66 4.62 3 7 C3.66 7 4.32 7 5 7 C5.05 7.78 5.1 8.56 5.15 9.37 C5.22 10.38 5.3 11.39 5.38 12.44 C5.44 13.45 5.51 14.46 5.59 15.5 C5.72 16.32 5.86 17.15 6 18 C6.66 18.33 7.32 18.66 8 19 C8 30.22 8 41.44 8 53 C7.67 53 7.34 53 7 53 C6.99 52.19 6.97 51.38 6.96 50.54 C6.89 47.5 6.82 44.46 6.74 41.42 C6.7 40.11 6.68 38.8 6.65 37.49 C6.53 30.38 6.29 24.46 3 18 C2.56 15.16 2.56 15.16 2.44 12.62 C2.36 10.12 2.36 10.12 2 8 C1.34 7.67 0.68 7.34 0 7 C-0.05 7.61 -0.1 8.23 -0.15 8.86 C-0.22 9.67 -0.3 10.48 -0.38 11.31 C-0.44 12.11 -0.51 12.91 -0.59 13.74 C-1 16.01 -1.58 17.21 -3 19 C-3.66 18.67 -4.32 18.34 -5 18 C-4.67 15.36 -4.34 12.72 -4 10 C-3.34 10 -2.68 10 -2 10 C-1.94 9.45 -1.88 8.89 -1.82 8.32 C-1.69 7.23 -1.69 7.23 -1.56 6.12 C-1.48 5.41 -1.4 4.69 -1.32 3.95 C-1 2 -1 2 0 0 Z " fill="#6A3869" transform="translate(350,60)"/><path d="M0 0 C0.66 0.33 1.32 0.66 2 1 C0.67 6.33 -1.66 9.22 -5.5 13.06 C-8.98 16.57 -11.33 19.26 -13 24 C-15.12 25.81 -15.12 25.81 -17 27 C-16.5 22.55 -16.5 22.55 -16 18 C-15.01 17.67 -14.02 17.34 -13 17 C-12.31 15.01 -11.64 13.01 -11 11 C-9.56 9.12 -9.56 9.12 -8 8 C-7.01 8 -6.02 8 -5 8 C-4.73 7.36 -4.46 6.72 -4.19 6.06 C-3 4 -3 4 0 3 C0 2.01 0 1.02 0 0 Z " fill="#895488" transform="translate(281,174)"/><path d="M0 0 C-1.41 3.31 -3.04 5.11 -5.81 7.38 C-8.42 9.57 -10.7 11.7 -12.81 14.38 C-15 17 -15 17 -18 18 C-18.05 18.59 -18.1 19.18 -18.15 19.79 C-18.56 24.19 -19.05 27.97 -21 32 C-21.99 32 -22.98 32 -24 32 C-23.67 29.69 -23.34 27.38 -23 25 C-22.34 25 -21.68 25 -21 25 C-20.99 24.41 -20.97 23.82 -20.96 23.21 C-20.71 19.12 -20.56 16.69 -17.94 13.44 C-16.96 12.62 -15.98 11.81 -15 11 C-13.66 9.63 -12.33 8.26 -11 6.88 C-4.12 0 -4.12 0 0 0 Z " fill="#8F508F" transform="translate(152,67)"/><path d="M0 0 C0.33 0 0.66 0 1 0 C1.33 17.49 1.66 34.98 2 53 C1.01 53 0.02 53 -1 53 C-1.03 47.06 -1.04 41.12 -1.05 35.18 C-1.06 33.16 -1.07 31.14 -1.08 29.13 C-1.09 26.21 -1.09 23.3 -1.1 20.38 C-1.11 19.05 -1.11 19.05 -1.11 17.69 C-1.11 11.74 -0.7 5.91 0 0 Z " fill="#965794" transform="translate(121,168)"/><path d="M0 0 C0.66 0 1.32 0 2 0 C2.33 5.94 2.66 11.88 3 18 C7.29 18.33 11.58 18.66 16 19 C16 18.01 16 17.02 16 16 C19.14 14.6 21.55 13.74 25 14 C25.33 13.01 25.66 12.02 26 11 C28.06 10.31 28.06 10.31 30 10 C30 9.34 30 8.68 30 8 C29.34 7.67 28.68 7.34 28 7 C28.33 6.01 28.66 5.02 29 4 C30.32 4.33 31.64 4.66 33 5 C32.34 5 31.68 5 31 5 C31 6.98 31 8.96 31 11 C30.34 11 29.68 11 29 11 C28.77 11.62 28.55 12.24 28.31 12.88 C26.62 15.61 25.01 16.05 22 17 C22 17.66 22 18.32 22 19 C17.99 20.33 13.98 20.15 9.81 20.12 C9.08 20.13 8.34 20.13 7.58 20.14 C2.13 20.13 2.13 20.13 1 19 C0.84 17.59 0.75 16.17 0.68 14.75 C0.64 13.89 0.6 13.04 0.56 12.16 C0.52 11.26 0.48 10.36 0.44 9.44 C0.39 8.54 0.35 7.63 0.31 6.71 C0.2 4.47 0.1 2.24 0 0 Z " fill="#6A406C" transform="translate(304,482)"/><path d="M0 0 C1.25 2.49 0.78 3.41 0 6 C-0.66 6 -1.32 6 -2 6 C-1.97 6.75 -1.93 7.5 -1.89 8.27 C-1.87 9.25 -1.84 10.24 -1.81 11.25 C-1.78 12.22 -1.74 13.2 -1.71 14.2 C-2.05 17.44 -3.05 18.48 -5 21 C-5.29 23.26 -5.29 23.26 -5.06 25.56 C-4.84 28.94 -5.06 30.28 -7 33 C-7.63 35.17 -7.63 35.17 -8.06 37.5 C-8.59 40.1 -9.16 42.47 -10 45 C-10.66 44.67 -11.32 44.34 -12 44 C-11.34 39.38 -10.68 34.76 -10 30 C-9.34 30 -8.68 30 -8 30 C-7.96 28.94 -7.93 27.88 -7.89 26.79 C-7.82 25.4 -7.75 24.01 -7.69 22.62 C-7.66 21.93 -7.64 21.23 -7.62 20.51 C-7.57 19.5 -7.57 19.5 -7.51 18.48 C-7.49 17.86 -7.46 17.24 -7.43 16.6 C-6.86 14.47 -5.85 14.11 -4 13 C-3.42 11.04 -3.42 11.04 -3.31 8.88 C-3.25 8.15 -3.18 7.43 -3.11 6.68 C-3.08 6.13 -3.04 5.57 -3 5 C-2.34 5 -1.68 5 -1 5 C-0.67 3.35 -0.34 1.7 0 0 Z " fill="#855185" transform="translate(136,298)"/><path d="M0 0 C0.33 0 0.66 0 1 0 C1.15 6.8 0.67 13.43 0 20.19 C-2.31 35.52 -2.31 35.52 1 50 C0.01 50 -0.98 50 -2 50 C-2 50.66 -2 51.32 -2 52 C-5.3 52 -8.6 52 -12 52 C-12 51.67 -12 51.34 -12 51 C-9.36 51 -6.72 51 -4 51 C-4 44.07 -4 37.14 -4 30 C-3.34 30 -2.68 30 -2 30 C-2.02 29.26 -2.05 28.52 -2.07 27.75 C-2.23 18.37 -1.25 9.29 0 0 Z " fill="#2D162E" transform="translate(137,196)"/><path d="M0 0 C0.99 0.33 1.98 0.66 3 1 C2.93 1.63 2.86 2.26 2.78 2.91 C2.26 7.75 1.91 12.44 2.16 17.31 C2 19 2 19 1.03 20.43 C-0.69 23.05 -0.46 25.98 -0.66 29.04 C-0.77 29.69 -0.88 30.33 -1 31 C-1.66 31.33 -2.32 31.66 -3 32 C-1.61 3.22 -1.61 3.22 0 0 Z " fill="#9A5B99" transform="translate(302,408)"/><path d="M0 0 C0.66 0.33 1.32 0.66 2 1 C1.64 3.59 1.29 4.74 -0.69 6.51 C-3.29 8.19 -5.76 9.1 -8.69 10.06 C-10.48 10.65 -12.25 11.29 -14 12 C-14.33 12.66 -14.66 13.32 -15 14 C-15.66 14 -16.32 14 -17 14 C-17.33 14.99 -17.66 15.98 -18 17 C-18.66 16.67 -19.32 16.34 -20 16 C-19.25 13.06 -19.25 13.06 -18 10 C-15.88 9.12 -15.88 9.12 -14 9 C-14 8.34 -14 7.68 -14 7 C-13.4 6.81 -12.79 6.61 -12.17 6.41 C-11.37 6.15 -10.57 5.89 -9.75 5.62 C-8.96 5.37 -8.17 5.11 -7.36 4.85 C-2.87 3.41 -2.87 3.41 0 0 Z " fill="#814F81" transform="translate(170,251)"/><path d="M0 0 C0.33 0 0.66 0 1 0 C3.77 11.66 4.6 24.43 1 36 C0.67 36 0.34 36 0 36 C0 24.12 0 12.24 0 0 Z " fill="#271327" transform="translate(353,355)"/><path d="M0 0 C0.66 0.33 1.32 0.66 2 1 C1.91 3.29 1.81 5.58 1.69 7.88 C1.65 8.85 1.65 8.85 1.62 9.85 C1.51 11.74 1.51 11.74 1 15 C-0.48 16.26 -0.48 16.26 -2 17 C-2.33 17.99 -2.66 18.98 -3 20 C-3.99 20 -4.98 20 -6 20 C-6.99 22.47 -6.99 22.47 -8 25 C-8.33 25 -8.66 25 -9 25 C-9.38 22.38 -9.38 22.38 -9 19 C-7.73 17.69 -7.73 17.69 -6.12 16.38 C-2.07 12.81 -1.91 8.68 -1.32 3.51 C-1 1 -1 1 0 0 Z " fill="#824E81" transform="translate(354,189)"/><path d="M0 0 C1.32 0 2.64 0 4 0 C4.91 2.72 5.1 4.13 5.03 6.91 C5.02 7.65 5 8.39 4.99 9.16 C4.96 10.72 4.92 12.28 4.87 13.84 C4.86 14.58 4.85 15.33 4.84 16.09 C4.82 16.77 4.81 17.45 4.79 18.15 C5.04 20.31 5.63 21.33 7 23 C8.55 24.17 8.55 24.17 10 25 C4.63 25.88 4.63 25.88 3 26 C1.36 24.36 1.79 22.45 1.72 20.2 C1.68 19.22 1.64 18.24 1.61 17.24 C1.57 16.21 1.54 15.18 1.5 14.12 C1.43 12.11 1.36 10.09 1.28 8.07 C1.25 7.17 1.22 6.27 1.19 5.34 C1.08 2.85 1.08 2.85 0 0 Z " fill="#814B80" transform="translate(120,221)"/><path d="M0 0 C1 3 1 3 0.36 4.72 C-2.6 9.73 -2.6 9.73 -5.19 11.44 C-8.11 13.96 -7.69 17.29 -8 21 C-8.23 24.33 -8.41 27.66 -8.56 31 C-8.61 31.87 -8.65 32.74 -8.69 33.64 C-8.8 35.76 -8.9 37.88 -9 40 C-9.33 40 -9.66 40 -10 40 C-10.15 36.1 -10.26 32.21 -10.33 28.31 C-10.36 26.99 -10.4 25.66 -10.45 24.34 C-10.88 13.29 -10.88 13.29 -8.72 10.12 C-7.21 8.91 -5.68 7.97 -4 7 C-2.53 5.08 -2.53 5.08 -1.62 3.19 C-1.31 2.58 -0.99 1.98 -0.66 1.36 C-0.44 0.91 -0.23 0.46 0 0 Z " fill="#8E568C" transform="translate(127,99)"/><path d="M0 0 C1.32 0.66 2.64 1.32 4 2 C3.55 2.37 3.09 2.74 2.62 3.12 C0.77 5 0.77 5 0.12 8 C-1.25 11.66 -2.61 12.26 -6 14 C-6.33 14.66 -6.66 15.32 -7 16 C-8.65 16 -10.3 16 -12 16 C-11.5 15.71 -11.01 15.42 -10.5 15.12 C-10 14.75 -9.51 14.38 -9 14 C-9 13.34 -9 12.68 -9 12 C-8.34 11.67 -7.68 11.34 -7 11 C-6.35 8.98 -6.35 8.98 -6 7 C-5.01 7 -4.02 7 -3 7 C-2.69 6.22 -2.38 5.43 -2.06 4.62 C-1 2 -1 2 0 0 Z " fill="#814F81" transform="translate(183,141)"/><path d="M0 0 C0.69 1.69 0.69 1.69 1 4 C0.01 5.67 -0.99 7.34 -2 9 C-2.25 11.71 -2.25 11.71 -2 14 C-4.64 13.67 -7.28 13.34 -10 13 C-10.33 12.01 -10.66 11.02 -11 10 C-9.35 9.67 -7.7 9.34 -6 9 C-5.94 8.44 -5.88 7.89 -5.81 7.31 C-4.64 3.98 -2.59 2.39 0 0 Z " fill="#925C91" transform="translate(260,201)"/><path d="M0 0 C1.32 0 2.64 0 4 0 C3.68 0.49 3.36 0.98 3.03 1.49 C1.33 5.62 1.57 9.91 1.43 14.33 C1.4 15.03 1.37 15.73 1.34 16.45 C1.33 17.08 1.31 17.71 1.29 18.37 C1 20 1 20 -1 22 C-1.99 21.67 -2.98 21.34 -4 21 C-3.68 20.32 -3.36 19.65 -3.04 18.95 C-1.82 15.49 -1.59 12.44 -1.44 8.81 C-1.12 2.24 -1.12 2.24 0 0 Z " fill="#834D81" transform="translate(189,343)"/><path d="M0 0 C1.65 0.33 3.3 0.66 5 1 C3.95 2.97 2.89 4.92 1.81 6.88 C1.52 7.43 1.23 7.99 0.93 8.56 C-0.68 11.44 -1.76 12.88 -4.74 14.38 C-5.48 14.59 -6.23 14.79 -7 15 C-6 12 -6 12 -5.06 10.19 C-3.77 7.53 -2.89 4.81 -2 2 C-1.34 2 -0.68 2 0 2 C0 1.34 0 0.68 0 0 Z " fill="#8F588F" transform="translate(328,234)"/><path d="M0 0 C3.03 0.02 6.06 0.04 9.19 0.06 C9.19 6.99 9.19 13.92 9.19 21.06 C9.85 21.06 10.51 21.06 11.19 21.06 C11.52 20.07 11.85 19.08 12.19 18.06 C12.19 19.71 12.19 21.36 12.19 23.06 C11.2 23.39 10.21 23.72 9.19 24.06 C7.96 21.61 8.07 20.01 8.09 17.27 C8.09 16.43 8.09 15.58 8.1 14.7 C8.11 13.63 8.12 12.55 8.12 11.44 C8.15 8.01 8.17 4.59 8.19 1.06 C0.6 1.39 -6.99 1.72 -14.81 2.06 C-14.81 1.73 -14.81 1.4 -14.81 1.06 C-9.9 -0.23 -5.04 -0.05 0 0 Z " fill="#361C35" transform="translate(178.8125,59.9375)"/><path d="M0 0 C-1.51 3.84 -3.7 5.6 -7 8 C-7.77 8.56 -7.77 8.56 -8.55 9.14 C-11.26 11.05 -12.61 12 -16 12 C-16.33 11.01 -16.66 10.02 -17 9 C-16.53 8.82 -16.06 8.64 -15.57 8.45 C-12.05 7.03 -9.6 5.83 -7 3 C-2.44 0 -2.44 0 0 0 Z " fill="#956396" transform="translate(296,267)"/><path d="M0 0 C0 0.33 0 0.66 0 1 C-5.94 1.5 -5.94 1.5 -12 2 C-11.67 2.99 -11.34 3.98 -11 5 C-13.31 5.33 -15.62 5.66 -18 6 C-18.33 7.32 -18.66 8.64 -19 10 C-20.32 9.34 -21.64 8.68 -23 8 C-21.88 6.06 -21.88 6.06 -20 4 C-16.81 3.25 -16.81 3.25 -14 3 C-14 2.34 -14 1.68 -14 1 C-9.33 -0.21 -4.79 -0.09 0 0 Z " fill="#774C77" transform="translate(217,232)"/><path d="M0 0 C0 0.33 0 0.66 0 1 C-0.95 1.29 -1.9 1.58 -2.88 1.88 C-6.05 2.77 -6.05 2.77 -8 5 C-9.68 5.2 -11.37 5.4 -13.05 5.58 C-15.91 6.19 -18.09 7.6 -20.52 9.16 C-22 10 -22 10 -24 10 C-24 9.34 -24 8.68 -24 8 C-21.73 6.85 -19.46 5.71 -17.19 4.56 C-16.54 4.24 -15.9 3.91 -15.24 3.58 C-14.62 3.26 -14 2.95 -13.36 2.63 C-12.78 2.34 -12.21 2.05 -11.63 1.76 C-7.53 -0.15 -4.41 -0.08 0 0 Z " fill="#1D0B1D" transform="translate(169,60)"/><path d="M0 0 C0.66 0 1.32 0 2 0 C3.18 7.35 3.09 14.58 3 22 C2.34 22 1.68 22 1 22 C0.67 23.32 0.34 24.64 0 26 C0 17.42 0 8.84 0 0 Z " fill="#271228" transform="translate(166,399)"/><path d="M0 0 C-2.1 1.5 -4.09 2.48 -6.5 3.38 C-9.63 4.67 -11.25 6.01 -13 9 C-13.66 8.34 -14.32 7.68 -15 7 C-13.53 3.1 -12.47 0.85 -8.62 -1 C-5.19 -2.26 -3.22 -1.85 0 0 Z " fill="#995C99" transform="translate(158,170)"/><path d="M0 0 C0.33 0 0.66 0 1 0 C1.2 1.29 1.38 2.58 1.56 3.88 C1.67 4.59 1.77 5.31 1.88 6.05 C2 8 2 8 1 10 C0.94 11.35 0.94 12.71 0.97 14.06 C0.98 14.86 1 15.66 1.01 16.48 C1.04 18.16 1.08 19.84 1.13 21.52 C1.14 22.32 1.15 23.12 1.16 23.94 C1.18 24.67 1.19 25.4 1.21 26.15 C1 28 1 28 -1 30 C-1.66 29.34 -2.32 28.68 -3 28 C-2.66 25.72 -2.66 25.72 -2 23 C-1.8 21.16 -1.62 19.32 -1.46 17.48 C-1.38 16.46 -1.29 15.44 -1.2 14.38 C-1.11 13.33 -1.03 12.27 -0.94 11.19 C-0.8 9.58 -0.8 9.58 -0.66 7.93 C-0.44 5.29 -0.22 2.64 0 0 Z " fill="#8F558E" transform="translate(334,283)"/><path d="M0 0 C1.32 0.33 2.64 0.66 4 1 C3.34 1 2.68 1 2 1 C2 2.98 2 4.96 2 7 C1.34 7 0.68 7 0 7 C-0.27 7.62 -0.54 8.24 -0.81 8.88 C-2.08 11.14 -2.73 11.83 -5 13 C-7.04 13.2 -7.04 13.2 -9.19 13.12 C-9.9 13.11 -10.62 13.09 -11.36 13.07 C-11.9 13.05 -12.44 13.02 -13 13 C-10.11 10.87 -7.55 10.47 -4 10 C-3.67 9.01 -3.34 8.02 -3 7 C-0.94 6.31 -0.94 6.31 1 6 C1 5.34 1 4.68 1 4 C0.34 3.67 -0.32 3.34 -1 3 C-0.67 2.01 -0.34 1.02 0 0 Z " fill="#864F85" transform="translate(333,486)"/><path d="M0 0 C0.66 0 1.32 0 2 0 C6.41 8.26 6.41 8.26 7 13 C6.01 13.33 5.02 13.66 4 14 C3.73 13.38 3.46 12.76 3.19 12.12 C2.04 9.7 2.04 9.7 -1 8 C-0.67 5.36 -0.34 2.72 0 0 Z " fill="#865785" transform="translate(191,75)"/><path d="M0 0 C0.99 0.33 1.98 0.66 3 1 C3 4 3 4 1.79 5.28 C1 5.88 1 5.88 0.19 6.5 C-2.02 8.23 -4.07 9.96 -6 12 C-6.66 11.67 -7.32 11.34 -8 11 C-6.64 8.01 -5.05 5.71 -2.88 3.25 C-2.34 2.64 -1.8 2.02 -1.24 1.39 C-0.63 0.7 -0.63 0.7 0 0 Z " fill="#895488" transform="translate(253,296)"/><path d="M0 0 C0.99 0.33 1.98 0.66 3 1 C2.34 4.3 1.68 7.6 1 11 C0.34 11 -0.32 11 -1 11 C-1 15.29 -1 19.58 -1 24 C-1.33 24 -1.66 24 -2 24 C-2 19.38 -2 14.76 -2 10 C-1.34 10 -0.68 10 0 10 C-0.99 8.68 -1.98 7.36 -3 6 C-2.01 4.02 -1.02 2.04 0 0 Z " fill="#8A5488" transform="translate(357,162)"/><path d="M0 0 C0.66 0 1.32 0 2 0 C2.33 0.99 2.66 1.98 3 3 C2.34 3 1.68 3 1 3 C0.77 3.8 0.55 4.61 0.31 5.44 C-0.34 6.71 -0.34 6.71 -1 8 C-3.62 8.81 -3.62 8.81 -6 9 C-6 8.34 -6 7.68 -6 7 C-6.66 6.67 -7.32 6.34 -8 6 C-3.25 3 -3.25 3 -1 3 C-0.67 2.01 -0.34 1.02 0 0 Z " fill="#8C588C" transform="translate(307,258)"/><path d="M0 0 C0.66 0.66 1.32 1.32 2 2 C1.83 3.88 1.83 3.88 1.25 6.12 C1.05 6.92 0.85 7.72 0.65 8.54 C0.43 9.35 0.22 10.16 0 11 C-0.38 12.52 -0.75 14.04 -1.12 15.56 C-1.42 16.71 -1.71 17.85 -2 19 C-2.33 19 -2.66 19 -3 19 C-3.33 16.69 -3.66 14.38 -4 12 C-3.34 12 -2.68 12 -2 12 C-2.03 11.2 -2.03 11.2 -2.07 10.39 C-2.25 3.37 -2.25 3.37 0 0 Z " fill="#995C99" transform="translate(331,312)"/><path d="M0 0 C-1.59 4.4 -2.78 7.53 -7 10 C-6.91 8.54 -6.8 7.08 -6.69 5.62 C-6.63 4.81 -6.57 4 -6.51 3.16 C-6 1 -6 1 -4.64 -0.35 C-3 -1 -3 -1 0 0 Z " fill="#986496" transform="translate(271,191)"/><path d="M0 0 C5.43 5.14 5.43 5.14 7 9 C5.68 9.33 4.36 9.66 3 10 C0.94 7.81 0.94 7.81 -1 5 C-0.75 2.19 -0.75 2.19 0 0 Z " fill="#9B659A" transform="translate(133,452)"/><path d="M0 0 C0 0.99 0 1.98 0 3 C-1.89 3.51 -3.79 4.01 -5.69 4.5 C-6.74 4.78 -7.8 5.06 -8.89 5.34 C-11.71 5.94 -14.13 6.13 -17 6 C-16.67 5.34 -16.34 4.68 -16 4 C-14.24 3.74 -12.47 3.49 -10.69 3.34 C-8.74 3.11 -8.74 3.11 -7 1 C-4.68 0.44 -2.38 0.26 0 0 Z " fill="#8E508B" transform="translate(170,61)"/><path d="M0 0 C0.99 0.33 1.98 0.66 3 1 C1.6 5.9 -1.05 8.08 -5 11 C-5.33 9.68 -5.66 8.36 -6 7 C-5.35 6.66 -5.35 6.66 -4.69 6.31 C-2.44 4.56 -1.37 2.47 0 0 Z " fill="#8F538E" transform="translate(182,367)"/><path d="M0 0 C-0.54 3.79 -2.03 5.63 -5 8 C-7.25 8.25 -7.25 8.25 -9 8 C-9.33 8.66 -9.66 9.32 -10 10 C-9.44 6.46 -8.3 5.01 -5.56 2.75 C-4.95 2.23 -4.33 1.71 -3.69 1.17 C-2 0 -2 0 0 0 Z " fill="#955F95" transform="translate(169,158)"/><path d="M0 0 C1.88 0.69 1.88 0.69 2.88 1.69 C2.92 3.35 2.92 5.02 2.88 6.69 C1.88 6.69 0.89 6.69 -0.12 6.69 C-0.79 6.03 -1.44 5.37 -2.12 4.69 C-2.79 4.36 -3.44 4.03 -4.12 3.69 C-4.45 3.03 -4.79 2.37 -5.12 1.69 C-3.22 0.07 -2.53 -0.37 0 0 Z " fill="#8C5A8B" transform="translate(340.125,278.3125)"/><path d="M0 0 C0.33 1.32 0.66 2.64 1 4 C0.34 4 -0.32 4 -1 4 C-1.33 6.64 -1.66 9.28 -2 12 C-2.66 12 -3.32 12 -4 12 C-4.33 12.99 -4.66 13.98 -5 15 C-6.16 11.52 -5.78 10.38 -4.75 6.94 C-4.5 6.06 -4.24 5.18 -3.98 4.28 C-2.95 1.88 -2.29 1.14 0 0 Z " fill="#875387" transform="translate(192,124)"/><path d="M0 0 C0.33 0.66 0.66 1.32 1 2 C-0.52 4.68 -0.87 4.96 -4 6 C-4.33 6.66 -4.66 7.32 -5 8 C-5.66 8 -6.32 8 -7 8 C-7.66 8.66 -8.32 9.32 -9 10 C-9 8.68 -9 7.36 -9 6 C-8.34 6 -7.68 6 -7 6 C-6.9 5.36 -6.79 4.72 -6.69 4.06 C-6.46 3.38 -6.23 2.7 -6 2 C-5.01 1.67 -4.02 1.34 -3 1 C-3 1.66 -3 2.32 -3 3 C-2.34 3 -1.68 3 -1 3 C-0.67 2.01 -0.34 1.02 0 0 Z " fill="#814D80" transform="translate(330,112)"/><path d="M0 0 C1.32 0.66 2.64 1.32 4 2 C3.67 2.66 3.34 3.32 3 4 C2.34 4 1.68 4 1 4 C0.67 5.98 0.34 7.96 0 10 C-0.99 10 -1.98 10 -3 10 C-2.49 6.28 -1.88 3.27 0 0 Z " fill="#975E97" transform="translate(337,476)"/><path d="M0 0 C0.69 1.69 0.69 1.69 1 4 C-0.31 6.75 -0.31 6.75 -2 9 C-2.66 9 -3.32 9 -4 9 C-4.33 9.66 -4.66 10.32 -5 11 C-5 9.02 -5 7.04 -5 5 C-4.36 4.73 -3.72 4.46 -3.06 4.19 C-0.67 3.11 -0.67 3.11 0 0 Z " fill="#A164A1" transform="translate(314,380)"/><path d="M0 0 C0.33 0.66 0.66 1.32 1 2 C-2.12 4.08 -4.19 5.42 -8 5 C-8 5.66 -8 6.32 -8 7 C-9.32 7.33 -10.64 7.66 -12 8 C-11.67 7.01 -11.34 6.02 -11 5 C-10.34 5.33 -9.68 5.66 -9 6 C-9 5.01 -9 4.02 -9 3 C-6.53 0.53 -3.34 0.44 0 0 Z " fill="#8B558B" transform="translate(228,314)"/><path d="M0 0 C0.99 0.33 1.98 0.66 3 1 C2.34 5.29 1.68 9.58 1 14 C0.01 13.67 -0.98 13.34 -2 13 C-1.86 11.21 -1.71 9.42 -1.56 7.62 C-1.48 6.63 -1.4 5.63 -1.32 4.6 C-1 2 -1 2 0 0 Z " fill="#8A5489" transform="translate(302,408)"/><path d="M0 0 C0.66 0 1.32 0 2 0 C2.33 3.96 2.66 7.92 3 12 C2.34 12 1.68 12 1 12 C0.67 12.99 0.34 13.98 0 15 C-0.76 9.74 -1.2 5.2 0 0 Z " fill="#894F88" transform="translate(346,311)"/><path d="M0 0 C1.98 0.5 1.98 0.5 4 1 C3.67 4.96 3.34 8.92 3 13 C-1.12 4.76 -1.12 4.76 -0.62 1.69 C-0.42 1.13 -0.21 0.57 0 0 Z " fill="#7F497E" transform="translate(194,101)"/><path d="M0 0 C-3.45 4.8 -3.45 4.8 -6.25 5.81 C-7.12 5.91 -7.12 5.91 -8 6 C-7.4 1.42 -7.4 1.42 -5.69 -0.38 C-3.47 -1.2 -2.2 -0.76 0 0 Z " fill="#976397" transform="translate(324,362)"/><path d="M0 0 C0 0.99 0 1.98 0 3 C-0.99 3.33 -1.98 3.66 -3 4 C-3.33 4.66 -3.66 5.32 -4 6 C-4.66 6 -5.32 6 -6 6 C-6.33 6.99 -6.66 7.98 -7 9 C-7.66 8.67 -8.32 8.34 -9 8 C-7.53 2.38 -7.53 2.38 -5.06 0.62 C-3 0 -3 0 0 0 Z " fill="#8E5D8F" transform="translate(159,259)"/><path d="M0 0 C2 3 2 3 2.75 4.59 C3.95 6.26 3.95 6.26 6.38 6.29 C7.29 6.26 8.19 6.22 9.12 6.19 C10.04 6.16 10.95 6.13 11.88 6.11 C12.58 6.07 13.28 6.04 14 6 C14 6.66 14 7.32 14 8 C11.85 8.03 9.71 8.05 7.56 8.06 C6.95 8.07 6.34 8.08 5.71 8.09 C4.14 8.1 2.57 8.05 1 8 C0 7 0 7 -0.1 5.37 C-0.07 3.58 -0.03 1.79 0 0 Z " fill="#965796" transform="translate(306,493)"/><path d="M0 0 C0.66 1.32 1.32 2.64 2 4 C-3.75 7.88 -3.75 7.88 -6 9 C-5.69 5.33 -5.24 4.22 -2.44 1.69 C-1.63 1.13 -0.83 0.57 0 0 Z " fill="#8F5B8E" transform="translate(267,284)"/><path d="M0 0 C2.33 1.82 3 3 3.88 5.88 C4.02 9.59 3.29 11.12 1 14 C0.34 14 -0.32 14 -1 14 C-0.49 11.47 0.01 8.95 0.62 6.44 C1.01 3.92 0.8 2.39 0 0 Z " fill="#955994" transform="translate(193,107)"/><path d="M0 0 C0.33 0 0.66 0 1 0 C2 3 3 6 4 9 C3.01 9 2.02 9 1 9 C1 9.66 1 10.32 1 11 C-2.3 11 -5.6 11 -9 11 C-9 10.67 -9 10.34 -9 10 C-6.03 10 -3.06 10 0 10 C0 6.7 0 3.4 0 0 Z " fill="#220E25" transform="translate(134,237)"/><path d="M0 0 C0.81 1.69 0.81 1.69 1 4 C-0.48 5.95 -2.14 7.37 -4 9 C-4.66 7.68 -5.32 6.36 -6 5 C-4.02 3.35 -2.04 1.7 0 0 Z " fill="#A26BA1" transform="translate(260,289)"/><path d="M0 0 C1 3 1 3 0.33 4.75 C-0.03 5.35 -0.38 5.95 -0.75 6.56 C-1.27 7.46 -1.27 7.46 -1.8 8.38 C-3.09 10.11 -4.04 11.08 -6 12 C-6.99 11.67 -7.98 11.34 -9 11 C-8.26 10.48 -7.52 9.97 -6.75 9.44 C-3.51 6.88 -1.83 3.64 0 0 Z " fill="#7F457C" transform="translate(127,99)"/><path d="M0 0 C0.66 0.99 1.32 1.98 2 3 C-1.51 4.6 -4.14 5.22 -8 5 C-7.67 4.01 -7.34 3.02 -7 2 C-5.37 1.27 -5.37 1.27 -3.44 0.81 C-2.8 0.65 -2.16 0.5 -1.5 0.33 C-1 0.22 -0.51 0.11 0 0 Z " fill="#865385" transform="translate(184,245)"/><path d="M0 0 C0.33 0 0.66 0 1 0 C1 3.96 1 7.92 1 12 C0.01 12 -0.98 12 -2 12 C-1.86 10.37 -1.71 8.75 -1.56 7.12 C-1.48 6.22 -1.4 5.32 -1.32 4.38 C-1 2 -1 2 0 0 Z " fill="#844E84" transform="translate(134,213)"/><path d="M0 0 C1.98 0.99 1.98 0.99 4 2 C4 7.61 4 13.22 4 19 C3.67 19 3.34 19 3 19 C2.93 17.7 2.93 17.7 2.85 16.37 C2.78 15.21 2.7 14.06 2.62 12.88 C2.56 11.74 2.49 10.6 2.41 9.43 C1.99 5.96 1.22 3.25 0 0 Z " fill="#8A518A" transform="translate(117,159)"/><path d="M0 0 C0.33 0.66 0.66 1.32 1 2 C1.66 2.33 2.32 2.66 3 3 C2.01 3.33 1.02 3.66 0 4 C-0.17 4.66 -0.33 5.32 -0.5 6 C-0.67 6.66 -0.83 7.32 -1 8 C-1.99 8.33 -2.98 8.66 -4 9 C-4.81 7.31 -4.81 7.31 -5 5 C-3.52 3.05 -1.86 1.63 0 0 Z " fill="#8F5A8E" transform="translate(296,162)"/><path d="M0 0 C0.99 0.33 1.98 0.66 3 1 C2.67 2.65 2.34 4.3 2 6 C0.68 6 -0.64 6 -2 6 C-2 7.32 -2 8.64 -2 10 C-2.66 9.67 -3.32 9.34 -4 9 C-3.52 7.87 -3.04 6.75 -2.56 5.62 C-2.3 5 -2.03 4.37 -1.75 3.73 C-1.2 2.47 -0.61 1.23 0 0 Z " fill="#7B4C7A" transform="translate(320,122)"/><path d="M0 0 C0.99 0.33 1.98 0.66 3 1 C2.39 4.56 1.42 7.68 0 11 C-1.05 9.76 -1.05 9.76 -2 8 C-1.76 5.96 -1.76 5.96 -1.12 3.81 C-0.92 3.1 -0.72 2.38 -0.51 1.64 C-0.34 1.1 -0.17 0.56 0 0 Z " fill="#A46FA4" transform="translate(170,381)"/><path d="M0 0 C0.33 0 0.66 0 1 0 C1 3.63 1 7.26 1 11 C-0.32 11.33 -1.64 11.66 -3 12 C-2.67 10.02 -2.34 8.04 -2 6 C-1.34 6 -0.68 6 0 6 C0 4.02 0 2.04 0 0 Z " fill="#774877" transform="translate(308,385)"/><path d="M0 0 C1.88 0.19 1.88 0.19 4 1 C5.31 3.38 5.31 3.38 6 6 C5.67 6.99 5.34 7.98 5 9 C0.57 3.86 0.57 3.86 0 0 Z " fill="#A1709F" transform="translate(139,473)"/><path d="M0 0 C0.33 0 0.66 0 1 0 C1.18 4.61 1.05 7.76 -1 12 C-1.66 11.67 -2.32 11.34 -3 11 C-2.67 8.36 -2.34 5.72 -2 3 C-1.34 3 -0.68 3 0 3 C0 2.01 0 1.02 0 0 Z " fill="#8D588C" transform="translate(127,331)"/><path d="M0 0 C-4.62 4.88 -4.62 4.88 -8 6 C-8.33 5.01 -8.66 4.02 -9 3 C-5.93 0.27 -4.1 -0.34 0 0 Z " fill="#8A5A8B" transform="translate(322,251)"/><path d="M0 0 C0.33 1.32 0.66 2.64 1 4 C-0.65 5.32 -2.3 6.64 -4 8 C-4 7.34 -4 6.68 -4 6 C-4.66 5.67 -5.32 5.34 -6 5 C-4.69 3.5 -4.69 3.5 -3 2 C-2.01 2 -1.02 2 0 2 C0 1.34 0 0.68 0 0 Z " fill="#875888" transform="translate(245,214)"/><path d="M0 0 C0.33 0 0.66 0 1 0 C1.06 0.71 1.12 1.43 1.18 2.16 C1.65 7.47 2.18 12.73 3 18 C0.13 15.02 -0.33 12.77 -0.26 8.67 C-0.24 8.04 -0.21 7.4 -0.19 6.75 C-0.17 6.1 -0.16 5.45 -0.15 4.78 C-0.11 3.19 -0.06 1.59 0 0 Z " fill="#7D497E" transform="translate(354,67)"/><path d="M0 0 C0.33 0 0.66 0 1 0 C1.41 5.85 0.63 9.74 -2 15 C-2.33 15 -2.66 15 -3 15 C-3 12.69 -3 10.38 -3 8 C-2.34 7.67 -1.68 7.34 -1 7 C-0.54 5.34 -0.54 5.34 -0.38 3.44 C-0.25 2.3 -0.13 1.17 0 0 Z " fill="#2E162C" transform="translate(345,450)"/><path d="M0 0 C1.32 0.66 2.64 1.32 4 2 C1.64 4.53 0.34 5.89 -3 7 C-1.12 1.12 -1.12 1.12 0 0 Z " fill="#955893" transform="translate(198,329)"/><path d="M0 0 C0.99 0 1.98 0 3 0 C1.55 3.83 -0.43 5.12 -4 7 C-4 6.01 -4 5.02 -4 4 C-3.34 4 -2.68 4 -2 4 C-1.34 2.68 -0.68 1.36 0 0 Z " fill="#1C0B1E" transform="translate(121,104)"/><path d="M0 0 C0.33 2.31 0.66 4.62 1 7 C0.34 7 -0.32 7 -1 7 C-1 8.65 -1 10.3 -1 12 C-1.33 12 -1.66 12 -2 12 C-2.33 8.37 -2.66 4.74 -3 1 C-1 0 -1 0 0 0 Z " fill="#764675" transform="translate(139,461)"/><path d="M0 0 C0.66 0.33 1.32 0.66 2 1 C1.42 3.39 0.78 5.67 0 8 C-0.99 8.33 -1.98 8.66 -3 9 C-2.67 7.02 -2.34 5.04 -2 3 C-1.34 3 -0.68 3 0 3 C0 2.01 0 1.02 0 0 Z " fill="#9D669C" transform="translate(138,290)"/><path d="M0 0 C-0.56 3.27 -1.5 4.83 -4 7 C-4.69 5.19 -4.69 5.19 -5 3 C-3.38 0.85 -2.75 0 0 0 Z " fill="#A169A0" transform="translate(312,150)"/><path d="M0 0 C1.32 0.66 2.64 1.32 4 2 C2.62 3.5 2.62 3.5 1 5 C0.34 5 -0.32 5 -1 5 C-1.33 5.66 -1.66 6.32 -2 7 C-2.33 6.34 -2.66 5.68 -3 5 C-1.56 2.38 -1.56 2.38 0 0 Z " fill="#8C558A" transform="translate(183,141)"/><path d="M0 0 C0.66 0 1.32 0 2 0 C2.43 0.96 2.43 0.96 2.88 1.94 C3.83 4.15 3.83 4.15 6 5 C6 5.99 6 6.98 6 8 C5.01 8.33 4.02 8.66 3 9 C2.01 6.03 1.02 3.06 0 0 Z " fill="#835384" transform="translate(300,470)"/><path d="M0 0 C0.66 0 1.32 0 2 0 C2.25 1.81 2.25 1.81 2 4 C0 5.75 0 5.75 -2 7 C-2.33 5.68 -2.66 4.36 -3 3 C-2.01 2.67 -1.02 2.34 0 2 C0 1.34 0 0.68 0 0 Z " fill="#A06AA0" transform="translate(123,359)"/><path d="M0 0 C0.66 0 1.32 0 2 0 C2 2.97 2 5.94 2 9 C1.01 8.67 0.02 8.34 -1 8 C-0.67 5.36 -0.34 2.72 0 0 Z " fill="#885088" transform="translate(323,351)"/><path d="M0 0 C0.99 0.33 1.98 0.66 3 1 C2.81 2.88 2.81 2.88 2 5 C-0.56 6.25 -0.56 6.25 -3 7 C-2.17 4.5 -1.21 2.33 0 0 Z " fill="#986799" transform="translate(324,242)"/><path d="M0 0 C0.99 0.33 1.98 0.66 3 1 C2.01 3.97 1.02 6.94 0 10 C-0.33 10 -0.66 10 -1 10 C-1.12 3.38 -1.12 3.38 0 0 Z " fill="#915790" transform="translate(137,190)"/><path d="M0 0 C0.33 1.32 0.66 2.64 1 4 C-0.65 4.33 -2.3 4.66 -4 5 C-4 4.01 -4 3.02 -4 2 C-2.68 1.34 -1.36 0.68 0 0 Z " fill="#865886" transform="translate(304,157)"/><path d="M0 0 C0.66 0.66 1.32 1.32 2 2 C1.62 4.62 1.62 4.62 1 7 C0.01 7 -0.98 7 -2 7 C-1.34 4.69 -0.68 2.38 0 0 Z " fill="#855283" transform="translate(141,279)"/><path d="M0 0 C-1.25 2.88 -2.22 4.48 -5 6 C-5.66 5.01 -6.32 4.02 -7 3 C-2.25 0 -2.25 0 0 0 Z " fill="#945793" transform="translate(296,267)"/><path d="M0 0 C1.56 1.12 1.56 1.12 3 3 C2.69 6.19 2.69 6.19 2 9 C1.01 8.67 0.02 8.34 -1 8 C-0.67 5.36 -0.34 2.72 0 0 Z " fill="#764674" transform="translate(346,70)"/><path d="M0 0 C0.33 0.66 0.66 1.32 1 2 C-0.65 3.98 -2.3 5.96 -4 8 C-4.66 7.34 -5.32 6.68 -6 6 C-4.02 4.02 -2.04 2.04 0 0 Z " fill="#884985" transform="translate(143,72)"/><path d="M0 0 C0.66 0 1.32 0 2 0 C2.19 2.81 2.19 2.81 2 6 C1.01 6.99 0.02 7.98 -1 9 C-0.67 6.03 -0.34 3.06 0 0 Z " fill="#9A6298" transform="translate(348,66)"/><path d="M0 0 C-0.62 1.94 -0.62 1.94 -2 4 C-5.12 4.75 -5.12 4.75 -8 5 C-3.23 0 -3.23 0 0 0 Z " fill="#874E86" transform="translate(152,67)"/><path d="M0 0 C0 0.99 0 1.98 0 3 C-1.65 3.33 -3.3 3.66 -5 4 C-5.33 3.01 -5.66 2.02 -6 1 C-3 0 -3 0 0 0 Z " fill="#9F699F" transform="translate(285,275)"/><path d="M0 0 C1.06 1.12 1.06 1.12 2 3 C1.62 6.19 1.62 6.19 1 9 C0.34 9 -0.32 9 -1 9 C-1.12 2.25 -1.12 2.25 0 0 Z " fill="#915590" transform="translate(135,201)"/><path d="M0 0 C0.66 0.99 1.32 1.98 2 3 C1.04 3.43 1.04 3.43 0.06 3.88 C-2.15 4.83 -2.15 4.83 -3 7 C-2.62 4.06 -2.62 4.06 -2 1 C-1.34 0.67 -0.68 0.34 0 0 Z " fill="#9E669F" transform="translate(285,172)"/><path d="M0 0 C2.62 0.94 2.62 0.94 5 2 C2.74 3.7 0.76 4.43 -2 5 C-2 3.68 -2 2.36 -2 1 C-1.34 0.67 -0.68 0.34 0 0 Z " fill="#7C4B7D" transform="translate(153,168)"/><path d="M0 0 C0.66 0 1.32 0 2 0 C2.33 1.98 2.66 3.96 3 6 C1.68 5.67 0.36 5.34 -1 5 C-0.67 3.35 -0.34 1.7 0 0 Z " fill="#936993" transform="translate(350,60)"/><path d="M0 0 C-0.75 1.94 -0.75 1.94 -2 4 C-4.12 4.75 -4.12 4.75 -6 5 C-6 4.34 -6 3.68 -6 3 C-5.34 3 -4.68 3 -4 3 C-4 2.34 -4 1.68 -4 1 C-2 0 -2 0 0 0 Z " fill="#A065A0" transform="translate(150,273)"/><path d="M0 0 C-0.66 1.32 -1.32 2.64 -2 4 C-2.99 4 -3.98 4 -5 4 C-5 3.01 -5 2.02 -5 1 C-3 0 -3 0 0 0 Z " fill="#A06CA1" transform="translate(301,265)"/><path d="M0 0 C0.66 0.99 1.32 1.98 2 3 C1.19 4.94 1.19 4.94 0 7 C-0.99 7.33 -1.98 7.66 -3 8 C-2.69 7.24 -2.38 6.47 -2.06 5.69 C-1.32 3.81 -0.64 1.91 0 0 Z " fill="#8E518C" transform="translate(142,180)"/><path d="M0 0 C1.32 0.66 2.64 1.32 4 2 C2.51 2.99 2.51 2.99 1 4 C0.34 3.67 -0.32 3.34 -1 3 C-0.67 2.01 -0.34 1.02 0 0 Z M-2 5 C-1.01 5.5 -1.01 5.5 0 6 C-0.99 6.5 -0.99 6.5 -2 7 C-2 6.34 -2 5.68 -2 5 Z " fill="#AB6BAB" transform="translate(298,161)"/><path d="M0 0 C0.99 0.33 1.98 0.66 3 1 C3 1.99 3 2.98 3 4 C2.34 4 1.68 4 1 4 C0.67 4.66 0.34 5.32 0 6 C-0.66 5.34 -1.32 4.68 -2 4 C-1.34 2.68 -0.68 1.36 0 0 Z " fill="#8D598A" transform="translate(313,136)"/><path d="M0 0 C0.66 0 1.32 0 2 0 C2 2.31 2 4.62 2 7 C1.01 6.67 0.02 6.34 -1 6 C-0.67 4.02 -0.34 2.04 0 0 Z " fill="#885087" transform="translate(345,80)"/><path d="M0 0 C0.33 0.66 0.66 1.32 1 2 C1.66 2 2.32 2 3 2 C3.33 2.99 3.66 3.98 4 5 C2.68 5.33 1.36 5.66 0 6 C-1 3 -1 3 0 0 Z " fill="#A168A0" transform="translate(148,488)"/><path d="M0 0 C1.98 0.5 1.98 0.5 4 1 C3.01 2.65 2.02 4.3 1 6 C0.34 5.67 -0.32 5.34 -1 5 C-0.67 3.35 -0.34 1.7 0 0 Z " fill="#814B81" transform="translate(312,377)"/><path d="M0 0 C2 1 2 1 3 3 C2.67 3.99 2.34 4.98 2 6 C0.68 5.34 -0.64 4.68 -2 4 C-1.34 2.68 -0.68 1.36 0 0 Z " fill="#815781" transform="translate(270,185)"/><path d="M0 0 C0.99 0.66 1.98 1.32 3 2 C2.01 3.32 1.02 4.64 0 6 C-0.66 5.34 -1.32 4.68 -2 4 C-1.34 2.68 -0.68 1.36 0 0 Z " fill="#8D558B" transform="translate(145,173)"/><path d="M0 0 C-0.33 0.99 -0.66 1.98 -1 3 C-2.65 3.33 -4.3 3.66 -6 4 C-5.67 3.01 -5.34 2.02 -5 1 C-3 0 -3 0 0 0 Z " fill="#9E659D" transform="translate(338,105)"/><path d="M0 0 C1.98 0 3.96 0 6 0 C6 0.66 6 1.32 6 2 C4.02 2.33 2.04 2.66 0 3 C0 2.01 0 1.02 0 0 Z " fill="#784B77" transform="translate(320,499)"/><path d="M0 0 C1.32 0 2.64 0 4 0 C3.34 1.32 2.68 2.64 2 4 C1.01 3.67 0.02 3.34 -1 3 C-0.67 2.01 -0.34 1.02 0 0 Z " fill="#9F689E" transform="translate(189,343)"/><path d="M0 0 C2 2 2 2 2 5 C1.01 5 0.02 5 -1 5 C-1.33 5.99 -1.66 6.98 -2 8 C-1.48 5.24 -0.89 2.67 0 0 Z " fill="#7F4D7F" transform="translate(331,312)"/><path d="M0 0 C0.33 1.32 0.66 2.64 1 4 C0.34 4 -0.32 4 -1 4 C-1.33 4.66 -1.66 5.32 -2 6 C-2.66 5.67 -3.32 5.34 -4 5 C-2.25 1.12 -2.25 1.12 0 0 Z " fill="#7B4F7A" transform="translate(140,287)"/><path d="M0 0 C0.66 0.99 1.32 1.98 2 3 C0.35 3.66 -1.3 4.32 -3 5 C-2.62 3.06 -2.62 3.06 -2 1 C-1.34 0.67 -0.68 0.34 0 0 Z " fill="#966096" transform="translate(174,249)"/><path d="M0 0 C0.66 0 1.32 0 2 0 C1.67 1.32 1.34 2.64 1 4 C-0.65 3.67 -2.3 3.34 -4 3 C-2.68 2.67 -1.36 2.34 0 2 C0 1.34 0 0.68 0 0 Z " fill="#A36CA3" transform="translate(239,220)"/><path d="M0 0 C0.33 0 0.66 0 1 0 C1 1.65 1 3.3 1 5 C0.01 5.33 -0.98 5.66 -2 6 C-1.12 1.12 -1.12 1.12 0 0 Z " fill="#9F669F" transform="translate(344,210)"/><path d="M0 0 C0.99 0.33 1.98 0.66 3 1 C0.03 3.47 0.03 3.47 -3 6 C-2.67 4.68 -2.34 3.36 -2 2 C-1.34 2 -0.68 2 0 2 C0 1.34 0 0.68 0 0 Z " fill="#1B0C1C" transform="translate(141,71)"/><path d="M0 0 C0.66 0 1.32 0 2 0 C2.33 1.98 2.66 3.96 3 6 C2.34 6 1.68 6 1 6 C0.67 4.02 0.34 2.04 0 0 Z " fill="#A275A3" transform="translate(157,508)"/><path d="M0 0 C0.33 0.99 0.66 1.98 1 3 C-0.49 3.99 -0.49 3.99 -2 5 C-2.66 4.34 -3.32 3.68 -4 3 C-2.68 2.01 -1.36 1.02 0 0 Z " fill="#925D92" transform="translate(350,438)"/><path d="M0 0 C0.33 0.66 0.66 1.32 1 2 C1.66 2.33 2.32 2.66 3 3 C1.51 3.99 1.51 3.99 0 5 C-0.66 4.67 -1.32 4.34 -2 4 C-1.34 2.68 -0.68 1.36 0 0 Z " fill="#895587" transform="translate(173,378)"/><path d="M0 0 C0.99 0.66 1.98 1.32 3 2 C1.02 2.99 -0.96 3.98 -3 5 C-2.62 3.06 -2.62 3.06 -2 1 C-1.34 0.67 -0.68 0.34 0 0 Z " fill="#915A92" transform="translate(205,324)"/><path d="M0 0 C0.33 0.66 0.66 1.32 1 2 C1.66 2.33 2.32 2.66 3 3 C1.69 4.06 1.69 4.06 0 5 C-0.99 4.67 -1.98 4.34 -3 4 C-2.01 2.68 -1.02 1.36 0 0 Z " fill="#7B4D7B" transform="translate(296,162)"/><path d="M0 0 C-0.33 1.32 -0.66 2.64 -1 4 C-2.32 3.67 -3.64 3.34 -5 3 C-2.25 0 -2.25 0 0 0 Z " fill="#986096" transform="translate(169,158)"/><path d="M0 0 C0.99 0.33 1.98 0.66 3 1 C2.67 2.32 2.34 3.64 2 5 C1.34 5 0.68 5 0 5 C-0.56 3.06 -0.56 3.06 -1 1 C-0.67 0.67 -0.34 0.34 0 0 Z " fill="#965293" transform="translate(187,83)"/><path d="M0 0 C0.66 0 1.32 0 2 0 C2.66 1.65 3.32 3.3 4 5 C2.68 4.67 1.36 4.34 0 4 C0 2.68 0 1.36 0 0 Z " fill="#976C97" transform="translate(192,78)"/><path d="M0 0 C0.99 0 1.98 0 3 0 C2.67 1.65 2.34 3.3 2 5 C1.34 4.34 0.68 3.68 0 3 C0 2.01 0 1.02 0 0 Z " fill="#9D6A9C" transform="translate(127,423)"/><path d="M0 0 C1.49 0.99 1.49 0.99 3 2 C2.34 3.65 1.68 5.3 1 7 C-0.06 5.75 -0.06 5.75 -1 4 C-0.62 1.81 -0.62 1.81 0 0 Z " fill="#9C649D" transform="translate(169,385)"/><path d="M0 0 C0.66 0 1.32 0 2 0 C1.34 1.32 0.68 2.64 0 4 C-0.99 4 -1.98 4 -3 4 C-1.62 2 -1.62 2 0 0 Z " fill="#251425" transform="translate(204,327)"/><path d="M0 0 C0.66 0.33 1.32 0.66 2 1 C0.62 3 0.62 3 -1 5 C-1.66 5 -2.32 5 -3 5 C-1.12 1.12 -1.12 1.12 0 0 Z " fill="#261425" transform="translate(260,293)"/><path d="M0 0 C0.66 0 1.32 0 2 0 C1.67 1.32 1.34 2.64 1 4 C0.01 4 -0.98 4 -2 4 C-1.34 2.68 -0.68 1.36 0 0 Z " fill="#A57BA5" transform="translate(149,268)"/><path d="M0 0 C0.66 0.99 1.32 1.98 2 3 C0.02 3.99 0.02 3.99 -2 5 C-1.12 1.12 -1.12 1.12 0 0 Z " fill="#9C659D" transform="translate(311,255)"/><path d="M0 0 C0.66 0.99 1.32 1.98 2 3 C1.67 3.66 1.34 4.32 1 5 C0.01 4.67 -0.98 4.34 -2 4 C-1.34 2.68 -0.68 1.36 0 0 Z " fill="#A26AA2" transform="translate(186,137)"/><path d="M0 0 C0.62 1.88 0.62 1.88 1 4 C0.34 4.66 -0.32 5.32 -1 6 C-1.99 5.34 -2.98 4.68 -4 4 C-2.68 2.68 -1.36 1.36 0 0 Z " fill="#7A4E79" transform="translate(339,100)"/><path d="M0 0 C0.66 0 1.32 0 2 0 C2 0.99 2 1.98 2 3 C1.34 3 0.68 3 0 3 C-0.33 3.99 -0.66 4.98 -1 6 C-1.04 4.33 -1.04 2.67 -1 1 C-0.67 0.67 -0.34 0.34 0 0 Z " fill="#A36BA1" transform="translate(346,308)"/><path d="M0 0 C2.12 0.38 2.12 0.38 4 1 C2.69 2.06 2.69 2.06 1 3 C0.01 2.67 -0.98 2.34 -2 2 C-1.34 1.34 -0.68 0.68 0 0 Z " fill="#AA77AA" transform="translate(273,281)"/><path d="M0 0 C0.66 0.33 1.32 0.66 2 1 C0.68 2.32 -0.64 3.64 -2 5 C-2 2 -2 2 0 0 Z " fill="#AD81AC" transform="translate(340,219)"/><path d="M0 0 C0.99 0.33 1.98 0.66 3 1 C1.62 2.5 1.62 2.5 0 4 C-0.66 4 -1.32 4 -2 4 C-1.34 2.68 -0.68 1.36 0 0 Z " fill="#B98CB8" transform="translate(248,212)"/><path d="M0 0 C0 1.67 0 3.33 0 5 C-0.99 5 -1.98 5 -3 5 C-2.62 3.06 -2.62 3.06 -2 1 C-1.34 0.67 -0.68 0.34 0 0 Z " fill="#7C4E7C" transform="translate(289,169)"/><path d="M0 0 C0 3 0 3 -1 5 C-1.66 5 -2.32 5 -3 5 C-2.62 3.06 -2.62 3.06 -2 1 C-1.34 0.67 -0.68 0.34 0 0 Z " fill="#AF87AF" transform="translate(330,110)"/><path d="M0 0 C0.33 0 0.66 0 1 0 C1 1.65 1 3.3 1 5 C0.01 5.33 -0.98 5.66 -2 6 C-2 5.01 -2 4.02 -2 3 C-1.34 3 -0.68 3 0 3 C0 2.01 0 1.02 0 0 Z " fill="#2F152E" transform="translate(190,78)"/><path d="M0 0 C1.32 0 2.64 0 4 0 C4 0.99 4 1.98 4 3 C3.01 3 2.02 3 1 3 C0.67 2.01 0.34 1.02 0 0 Z " fill="#80537F" transform="translate(151,500)"/><path d="M0 0 C0.99 0 1.98 0 3 0 C2.67 1.65 2.34 3.3 2 5 C0 2.25 0 2.25 0 0 Z " fill="#AD75AD" transform="translate(142,477)"/><path d="M0 0 C0.66 0 1.32 0 2 0 C1.67 1.32 1.34 2.64 1 4 C0.34 4 -0.32 4 -1 4 C-0.67 2.68 -0.34 1.36 0 0 Z " fill="#AB77AB" transform="translate(175,376)"/><path d="M0 0 C1.49 0.99 1.49 0.99 3 2 C2.01 3.49 2.01 3.49 1 5 C1 4.34 1 3.68 1 3 C0.34 3 -0.32 3 -1 3 C-0.67 2.01 -0.34 1.02 0 0 Z " fill="#875086" transform="translate(192,340)"/><path d="M0 0 C1.46 2.65 2 3.89 2 7 C1.34 6.67 0.68 6.34 0 6 C0 4.02 0 2.04 0 0 Z " fill="#835382" transform="translate(344,302)"/><path d="M0 0 C0.33 0 0.66 0 1 0 C1 1.65 1 3.3 1 5 C0.01 5 -0.98 5 -2 5 C-1.34 3.35 -0.68 1.7 0 0 Z " fill="#744673" transform="translate(342,280)"/><path d="M0 0 C0.99 0.33 1.98 0.66 3 1 C2.67 1.99 2.34 2.98 2 4 C1.34 4 0.68 4 0 4 C0 2.68 0 1.36 0 0 Z " fill="#A271A2" transform="translate(268,283)"/><path d="M0 0 C0.99 0.33 1.98 0.66 3 1 C2.12 2.5 2.12 2.5 1 4 C0.34 4 -0.32 4 -1 4 C-0.67 2.68 -0.34 1.36 0 0 Z " fill="#A56CA5" transform="translate(194,241)"/><path d="M0 0 C0.99 0.33 1.98 0.66 3 1 C3 1.99 3 2.98 3 4 C2.01 4 1.02 4 0 4 C0 2.68 0 1.36 0 0 Z " fill="#804C7E" transform="translate(348,205)"/><path d="M0 0 C0.66 0.33 1.32 0.66 2 1 C1.67 1.99 1.34 2.98 1 4 C0.34 4 -0.32 4 -1 4 C-0.67 2.68 -0.34 1.36 0 0 Z " fill="#291527" transform="translate(309,381)"/><path d="M0 0 C0.99 0 1.98 0 3 0 C2.67 1.32 2.34 2.64 2 4 C1.34 2.68 0.68 1.36 0 0 Z " fill="#7E557E" transform="translate(176,374)"/><path d="M0 0 C0.99 0 1.98 0 3 0 C2.67 0.99 2.34 1.98 2 3 C1.01 2.67 0.02 2.34 -1 2 C-0.67 1.34 -0.34 0.68 0 0 Z " fill="#996699" transform="translate(186,362)"/><path d="M0 0 C0.66 0 1.32 0 2 0 C2 1.32 2 2.64 2 4 C1.34 4 0.68 4 0 4 C-0.33 3.01 -0.66 2.02 -1 1 C-0.67 0.67 -0.34 0.34 0 0 Z " fill="#8F558E" transform="translate(326,340)"/><path d="M0 0 C0.99 0 1.98 0 3 0 C3 0.66 3 1.32 3 2 C1.68 2.33 0.36 2.66 -1 3 C-0.67 2.01 -0.34 1.02 0 0 Z " fill="#A576A5" transform="translate(230,313)"/><path d="M0 0 C0.66 0 1.32 0 2 0 C2.33 0.99 2.66 1.98 3 3 C1.68 3 0.36 3 -1 3 C-0.67 2.01 -0.34 1.02 0 0 Z " fill="#875187" transform="translate(203,234)"/><path d="M0 0 C1.32 0 2.64 0 4 0 C3.67 0.99 3.34 1.98 3 3 C2.34 3 1.68 3 1 3 C0.67 2.01 0.34 1.02 0 0 Z " fill="#8A538A" transform="translate(120,221)"/><path d="M0 0 C0.33 1.32 0.66 2.64 1 4 C0.01 4 -0.98 4 -2 4 C-1.34 2.68 -0.68 1.36 0 0 Z " fill="#995E98" transform="translate(351,202)"/><path d="M0 0 C0.99 0.33 1.98 0.66 3 1 C2.67 1.99 2.34 2.98 2 4 C1.34 4 0.68 4 0 4 C0 2.68 0 1.36 0 0 Z " fill="#824A81" transform="translate(137,190)"/><path d="M0 0 C0.66 0 1.32 0 2 0 C1.34 1.32 0.68 2.64 0 4 C-0.66 3.67 -1.32 3.34 -2 3 C-1.12 1.5 -1.12 1.5 0 0 Z " fill="#B68AB5" transform="translate(273,183)"/><path d="M0 0 C0.33 1.32 0.66 2.64 1 4 C0.01 4 -0.98 4 -2 4 C-1.34 2.68 -0.68 1.36 0 0 Z " fill="#925793" transform="translate(157,166)"/><path d="M0 0 C0.66 0 1.32 0 2 0 C1.67 1.32 1.34 2.64 1 4 C0.34 4 -0.32 4 -1 4 C-0.67 2.68 -0.34 1.36 0 0 Z " fill="#A66CA6" transform="translate(340,100)"/><path d="M0 0 C-0.33 0.99 -0.66 1.98 -1 3 C-2.32 2.67 -3.64 2.34 -5 2 C-2.25 0 -2.25 0 0 0 Z " fill="#784177" transform="translate(152,67)"/><path d="M0 0 C0.66 0 1.32 0 2 0 C1.67 0.99 1.34 1.98 1 3 C0.01 2.67 -0.98 2.34 -2 2 C-1.34 1.34 -0.68 0.68 0 0 Z " fill="#A975A9" transform="translate(196,335)"/><path d="M0 0 C0.99 0.33 1.98 0.66 3 1 C2.67 1.66 2.34 2.32 2 3 C1.01 2.67 0.02 2.34 -1 2 C-0.67 1.34 -0.34 0.68 0 0 Z " fill="#765476" transform="translate(199,330)"/><path d="M0 0 C0 0.99 0 1.98 0 3 C-1.32 2.34 -2.64 1.68 -4 1 C-2 0 -2 0 0 0 Z " fill="#A66EA6" transform="translate(202,327)"/><path d="M0 0 C1.49 0.99 1.49 0.99 3 2 C2.34 2.66 1.68 3.32 1 4 C0.34 3.01 -0.32 2.02 -1 1 C-0.67 0.67 -0.34 0.34 0 0 Z " fill="#814E81" transform="translate(276,279)"/><path d="M0 0 C1.32 0 2.64 0 4 0 C3.67 0.99 3.34 1.98 3 3 C2.01 2.01 1.02 1.02 0 0 Z " fill="#895086" transform="translate(289,270)"/><path d="M0 0 C0.66 1.32 1.32 2.64 2 4 C1.01 3.67 0.02 3.34 -1 3 C-0.67 2.01 -0.34 1.02 0 0 Z " fill="#A76EA7" transform="translate(339,473)"/><path d="M0 0 C0.66 0 1.32 0 2 0 C1.67 0.99 1.34 1.98 1 3 C0.34 3 -0.32 3 -1 3 C-0.67 2.01 -0.34 1.02 0 0 Z " fill="#B489B3" transform="translate(332,232)"/><path d="M0 0 C0.99 0.33 1.98 0.66 3 1 C1.51 1.99 1.51 1.99 0 3 C0 2.01 0 1.02 0 0 Z " fill="#815583" transform="translate(164,162)"/><path d="M0 0 C0.99 0.33 1.98 0.66 3 1 C2.67 1.66 2.34 2.32 2 3 C1.34 3 0.68 3 0 3 C0 2.01 0 1.02 0 0 Z " fill="#AA6EAA" transform="translate(305,157)"/><path d="M0 0 C0.66 0.66 1.32 1.32 2 2 C1.01 2.33 0.02 2.66 -1 3 C-0.67 2.01 -0.34 1.02 0 0 Z " fill="#966496" transform="translate(182,369)"/></svg>