<?xml version="1.0" encoding="UTF-8"?>
<svg version="1.1" xmlns="http://www.w3.org/2000/svg" width="980" height="980">
<path d="M0 0 C0.72316406 0.12115173 1.44632813 0.24230347 2.19140625 0.36712646 C70.31264311 11.78600742 136.26079337 35.6993103 194 74 C194.67933594 74.45052734 195.35867188 74.90105469 196.05859375 75.36523438 C210.9385323 85.29969627 225.56476973 95.74089099 239.078125 107.48046875 C241.91924317 109.93036343 244.82040522 112.28213345 247.75 114.625 C252.08031021 118.14455547 256.0109199 121.90406593 259.90234375 125.8984375 C261.78703065 127.78663406 263.71617096 129.5261282 265.75 131.25 C273.81062581 138.1798767 281.3912711 145.88721929 288.26953125 153.98828125 C290.41533274 156.48283603 292.64585677 158.89218982 294.875 161.3125 C299.32523261 166.20374665 303.5874048 171.20085406 307.70263672 176.37695312 C308.60691742 177.50823994 309.51794093 178.6341558 310.43408203 179.75585938 C369.32673617 251.89982795 404.86898044 342.7724827 416.52148438 481.04296875 C416.49869625 485.17331628 416.51228577 489.30263176 416.53525066 493.4329443 C416.99734147 591.75183283 384.29614641 688.49249064 303 801 C302.56494141 801.52142578 302.12988281 802.04285156 301.68164062 802.58007812 C287.62500086 819.37270701 272.64639409 836.21027631 255.8984375 850.37890625 C253.67099967 852.2809365 251.52977029 854.2660772 249.375 856.25 C243.73868831 861.33474602 237.78885375 865.96521375 231.78808594 870.60595703 C230.0776076 871.93949489 228.38391999 873.29126354 226.6953125 874.65234375 C198.63515589 897.20357941 167.46428501 915.54722188 135 931 C134.29117676 931.33918457 133.58235352 931.67836914 132.85205078 932.02783203 C69.90633699 961.89875664 0.90619249 976.64511557 -68.59033203 976.44604492 C-71.93629044 976.43688258 -75.28154884 976.4437454 -78.62744141 976.46655273 C-156.16820602 976.99169001 -229.81865638 957.48965112 -299 923 C-299.85674316 922.57364258 -300.71348633 922.14728516 -301.59619141 921.70800781 C-332.96753385 905.96929175 -362.17365502 885.56457102 -389 863 C-389.56348145 862.52675293 -390.12696289 862.05350586 -390.70751953 861.56591797 C-402.94231248 851.26620315 -402.94231248 851.26620315 -408.453125 845.55078125 C-410.10635222 843.89337921 -411.84074578 842.3901415 -413.625 840.875 C-421.71986341 833.88469885 -429.3613391 826.15646739 -436.27734375 818 C-438.37372279 815.56610869 -440.5639738 813.22865575 -442.75 810.875 C-447.50920057 805.65569545 -451.87190066 800.200624 -456.18359375 794.609375 C-457.96347012 792.3065105 -459.77971567 790.04952079 -461.66015625 787.828125 C-513.43467918 726.18870636 -545.27851502 645.58086263 -558.75 566.9375 C-559.02976685 565.33007935 -559.02976685 565.33007935 -559.31518555 563.69018555 C-559.94680104 559.801599 -560.49222501 555.9062513 -561 552 C-561.12601593 551.04354584 -561.25203186 550.08709167 -561.38186646 549.10165405 C-563.85266009 529.75026568 -564.50531943 510.65608926 -564.44604492 491.17358398 C-564.43689245 488.02845531 -564.4437251 484.8840721 -564.46655273 481.73901367 C-565.12642967 390.1975625 -537.81037369 300.00151278 -469 194 C-468.54109375 193.38801758 -468.0821875 192.77603516 -467.609375 192.14550781 C-456.54922566 177.46641254 -445.013422 162.60135651 -431.7890625 149.78515625 C-429.94839734 147.94851001 -428.25444904 146.03644054 -426.5625 144.0625 C-420.9389916 137.54434254 -414.81040943 131.58998475 -408.2734375 125.99609375 C-405.97413149 123.97728727 -403.7456697 121.89200598 -401.51879883 119.79394531 C-394.88856189 113.56646597 -387.9704689 107.88409062 -380.75292969 102.35449219 C-379.02138914 101.01652743 -377.30901919 99.65758953 -375.6015625 98.2890625 C-354.51547398 81.41049833 -331.82248483 66.70889197 -308 54 C-307.13858398 53.53384277 -306.27716797 53.06768555 -305.38964844 52.58740234 C-256.16955459 25.97839187 -203.05491685 9.28177582 -148 0 C-147.32283936 -0.11706299 -146.64567871 -0.23412598 -145.94799805 -0.35473633 C-99.73750912 -8.28421154 -46.1752894 -7.95987463 0 0 Z M159 188 C157.49214505 189.86182459 156.06174782 191.78748623 154.6875 193.75 C154.26057861 194.35884033 153.83365723 194.96768066 153.39379883 195.5949707 C148.89425117 202.06016416 144.54815147 208.63034207 140.19287109 215.19311523 C133.28357803 225.60059753 126.30107965 235.95813601 119.3125 246.3125 C118.06737764 248.15771135 116.8222605 250.00292623 115.57714844 251.84814453 C112.37197064 256.59770195 109.16620876 261.34686489 105.96032715 266.09594727 C100.73978338 273.82972498 95.52032019 281.56423136 90.30184937 289.29940796 C88.49958878 291.97048022 86.69671747 294.64113946 84.89379883 297.31176758 C79.59145845 305.16902263 74.30226032 313.0344257 69.05078125 320.92578125 C62.94717981 330.09734355 56.78538162 339.22920465 50.61865234 348.35839844 C38.26185741 366.64736095 38.26185741 366.64736095 26 385 C18.59897468 396.14284987 11.10988108 407.22588584 3.625 418.3125 C-4.95859328 431.02660929 -13.52241036 443.75218619 -22.01269531 456.52880859 C-30.58062132 469.40455261 -39.2468293 482.21429997 -47.90234375 495.03125 C-54.96800904 505.48736052 -54.96800904 505.48736052 -61.984375 515.9765625 C-65.51110677 521.27974636 -69.0699043 526.56093332 -72.6328125 531.83984375 C-73.2371109 532.73519333 -73.8414093 533.63054291 -74.46401978 534.55302429 C-76.97325535 538.27012962 -79.48294884 541.98692531 -81.99316406 545.70336914 C-88.6837367 555.61002235 -95.36085198 565.52492243 -101.984375 575.4765625 C-109.31797372 586.49506439 -116.71768791 597.46846724 -124.125 608.4375 C-126.05850715 611.30173113 -127.99184385 614.16607715 -129.92501831 617.03053284 C-131.11125499 618.78812132 -132.29770344 620.5455669 -133.48440552 622.30284119 C-136.33589035 626.52672552 -139.17861682 630.75594483 -142 635 C-147.16028643 633.40756786 -150.85334622 630.19650102 -155 626.875 C-156.61768647 625.59794035 -158.23620959 624.32193996 -159.85546875 623.046875 C-160.69899902 622.38107422 -161.5425293 621.71527344 -162.41162109 621.02929688 C-166.67854257 617.68401756 -170.99484946 614.40438144 -175.3125 611.125 C-176.1890625 610.45839355 -177.065625 609.79178711 -177.96875 609.10498047 C-179.75449382 607.74709826 -181.5404644 606.38951422 -183.32666016 605.03222656 C-187.72068154 601.69196775 -192.11014142 598.34572656 -196.5 595 C-198.24476548 593.67053854 -199.98955718 592.3411115 -201.734375 591.01171875 C-202.59998047 590.35220215 -203.46558594 589.69268555 -204.35742188 589.01318359 C-207.03495593 586.97336968 -209.71275985 584.93391048 -212.390625 582.89453125 C-223.952057 574.08907083 -235.50200198 565.26878338 -247.04296875 556.43652344 C-257.2207862 548.6480698 -267.40914692 540.87358917 -277.60546875 533.109375 C-281.17242576 530.3930447 -284.73744067 527.6741975 -288.30078125 524.953125 C-297.72396981 517.76020459 -307.16815343 510.59874777 -316.6784668 503.52124023 C-320.75882111 500.47420404 -324.79375078 497.38770448 -328.76171875 494.1953125 C-342.07245751 483.50680882 -354.17221539 474.70256015 -372 476 C-383.67429864 478.08091728 -393.4042483 484.71205977 -400.56333923 494.03610229 C-402.10019584 496.24099501 -403.58609416 498.47173294 -405.0546875 500.72265625 C-405.60053497 501.54519394 -406.14638245 502.36773163 -406.70877075 503.2151947 C-408.43854066 505.82597148 -410.15682294 508.44408336 -411.875 511.0625 C-413.01880155 512.79149857 -414.16332749 514.52001816 -415.30859375 516.24804688 C-418.55573845 521.15451488 -421.78174554 526.07454717 -425 531 C-425.70098816 532.07021393 -425.70098816 532.07021393 -426.4161377 533.16204834 C-427.67982961 535.09376742 -428.93865341 537.02854432 -430.1953125 538.96484375 C-430.88898926 540.03210693 -431.58266602 541.09937012 -432.29736328 542.19897461 C-438.11560297 551.77062129 -439.39936759 562.9012978 -437.50390625 573.87109375 C-432.83022508 592.48660351 -421.05168943 601.20006301 -406.26953125 612.09375 C-401.36479063 615.7110747 -396.54584791 619.42751757 -391.75 623.1875 C-385.57176408 628.021675 -379.33759532 632.76849148 -373.046875 637.45507812 C-367.89730905 641.3019265 -362.81601892 645.2314426 -357.75 649.1875 C-351.99395395 653.68193864 -346.20764484 658.1244513 -340.3515625 662.48828125 C-335.89818916 665.81508203 -331.4827128 669.19185194 -327.0625 672.5625 C-326.16168701 673.24940918 -325.26087402 673.93631836 -324.33276367 674.64404297 C-322.4784297 676.05831834 -320.62418258 677.47270758 -318.77001953 678.88720703 C-314.34808112 682.25997761 -309.92395782 685.62987895 -305.5 689 C-303.75520089 690.32941731 -302.01040924 691.65884442 -300.265625 692.98828125 C-296.71385557 695.69442277 -293.16173441 698.40010176 -289.609375 701.10546875 C-280.88099076 707.75324977 -272.15674122 714.40629702 -263.44335938 721.07373047 C-255.20147754 727.37873145 -246.94496218 733.66451994 -238.68945312 739.95166016 C-234.29248731 743.30047489 -229.89627638 746.65028027 -225.5 750 C-223.75000374 751.33333824 -222.00000373 752.66667157 -220.25 754 C-216.75 756.66666667 -213.25 759.33333333 -209.75 762 C-208.4501416 762.99036255 -208.4501416 762.99036255 -207.12402344 764.00073242 C-205.3772637 765.33160473 -203.63051886 766.6624966 -201.88378906 767.9934082 C-197.45933629 771.36455736 -193.03461013 774.73534662 -188.609375 778.10546875 C-187.2783374 779.11927612 -187.2783374 779.11927612 -185.92041016 780.15356445 C-184.14935699 781.5024988 -182.37819923 782.85129584 -180.60693359 784.19995117 C-175.81336278 787.85118785 -171.0274534 791.51208147 -166.24902344 795.18310547 C-163.50476765 797.28829663 -160.75455102 799.38553105 -158.00097656 801.47851562 C-156.65246658 802.50388339 -155.30549065 803.5312714 -153.95996094 804.56054688 C-141.45551412 814.09977374 -131.33218196 820.35447182 -115 819 C-96.73510413 815.34236141 -87.60176232 801.99043373 -77.890625 787.46484375 C-76.49719448 785.3676814 -75.10798324 783.26780812 -73.72113037 781.16629028 C-71.12158852 777.2279353 -68.50946898 773.29793063 -65.8984375 769.3671875 C-65.34693024 768.5364119 -64.79542297 767.70563629 -64.22720337 766.84968567 C-56.90425837 755.8292178 -49.48994282 744.87022026 -42.08068848 733.90768433 C-35.70348185 724.47213685 -29.3413657 715.0274611 -23.03125 705.546875 C-16.55003647 695.80923308 -10.01622183 686.10780139 -3.46777344 676.4152832 C8.81378839 658.2396201 8.81378839 658.2396201 21 640 C29.68591915 626.92240607 38.48461311 613.92066272 47.2734375 600.91210938 C53.20021267 592.13676125 59.10931374 583.35043841 64.9765625 574.53515625 C72.18796315 563.70035269 79.46457445 552.91011746 86.75 542.125 C96.40907716 527.83537307 96.40907716 527.83537307 106 513.5 C112.97872133 503.00661969 120.04887859 492.57457841 127.10302734 482.13183594 C134.3560583 471.39328336 141.58320046 460.63855966 148.76315308 449.85099792 C154.64881596 441.01383623 160.58816767 432.21322975 166.53222656 423.4152832 C178.81378547 405.23961814 178.81378547 405.23961814 191 387 C198.44253645 375.79455876 205.97363834 364.64922891 213.5 353.5 C222.3737812 340.35352298 231.24264205 327.2049404 240.01171875 313.98828125 C242.72230588 309.90639735 245.45435524 305.83961585 248.19715881 301.77935791 C250.21885859 298.78486158 252.23500638 295.78664622 254.25076294 292.78814697 C255.23626665 291.32514728 256.22421411 289.86379024 257.21481323 288.40423584 C267.48545047 273.26691894 272.54059346 261.59626444 271 243 C270.16573019 239.00503943 268.85792501 235.62353077 267 232 C266.56429687 231.12859375 266.12859375 230.2571875 265.6796875 229.359375 C260.42978323 219.77758251 252.14509317 214.27737093 243.5559082 207.90161133 C239.02332736 204.53685189 234.55155724 201.10556207 230.11230469 197.61865234 C207.65391356 179.98094772 184.44622569 165.71971218 159 188 Z " fill="#03B15A" transform="translate(564,4)"/>
</svg>
