<svg xmlns="http://www.w3.org/2000/svg" width="450" height="450" viewBox="0 0 450 450"><path fill="rgb(106,151,252)" stroke="rgb(106,151,252)" stroke-width="0.5" opacity="1" d="M 204.5 52 Q 206.8 51.3 206 53.5 L 200.5 61 Q 194.4 62.4 192 67.5 L 187.5 73 L 185 74.5 L 174.5 91 L 174 89.5 L 180 79.5 L 180 75.5 Q 182.5 75 182 71.5 L 193.5 58 L 202 55 Q 200.9 52.3 203.5 53 L 204.5 52 Z "/><path fill="rgb(106,151,252)" stroke="rgb(106,151,252)" stroke-width="0.5" opacity="1" d="M 228.5 212 L 231 212.5 Q 229 213.5 231 214.5 L 224.5 221 L 213 231.5 L 200 254.5 L 196 270.5 L 194.5 272 L 191 274.5 L 188 282.5 L 183.5 287 Q 175.7 288.7 171 293.5 Q 171.8 295.8 169.5 295 L 163.5 302 L 159 304 Q 160.1 306.7 157.5 306 L 151.5 310 L 148.5 310 L 140.5 313 Q 134.3 311.8 131.5 314 L 130.5 313 L 119.5 313 L 115.5 312 L 109.5 310 L 107.5 308 L 104.5 308 L 102.5 306 L 101.5 307 L 95.5 301 L 89.5 297 Q 88.3 299.3 87 296.5 L 86 286.5 L 85 285.5 L 85 275.5 L 84 272 L 86.5 273 L 89.5 268 L 90.5 269 L 93 267.5 L 94 271 L 96.5 272 L 100.5 271 Q 104.1 277.9 113.5 279 L 125 289.5 Q 124.3 291.8 126.5 291 L 132.5 294 L 137.5 294 L 138.5 293 L 148.5 293 L 155.5 291 L 161.5 291 Q 163.5 288.5 168.5 289 L 179.5 285 L 186 279.5 L 202 240.5 L 210 228.5 L 210 226.5 L 215.5 220 L 228.5 212 Z "/><path fill="rgb(119,168,255)" stroke="rgb(119,168,255)" stroke-width="0.5" opacity="1" d="M 206 52 L 208.5 52 L 215 55.5 L 214 58.5 L 219 62.5 L 219 65.5 L 227 82.5 L 227 85.5 L 235 106.5 L 236 113.5 L 249 152.5 L 252 157.5 L 258 174.5 L 270 195.5 L 264.5 200 L 260.5 200 L 254.5 202 L 241.5 208 L 231.5 215 Q 229 213.5 230.5 212 L 220.5 216 L 213 222.5 L 202 240.5 L 191 265.5 L 189 273.5 Q 187.1 279.6 182.5 283 L 174.5 287 L 161.5 291 L 132.5 294 L 125 291 L 125 289.5 L 119.5 284 L 113.5 279 L 106.5 277 L 100.5 271 L 97.5 271 Q 96.5 273 95.5 271 Q 93.3 271.8 94 269.5 L 92.5 267 Q 91 270.5 89.5 268 L 87 270.5 L 86.5 273 L 84 272 L 84 264.5 L 85 263.5 L 85 253.5 L 86 252.5 L 87 242.5 L 96 216.5 L 113 185.5 L 150 128.5 L 179.5 76 L 180 79.5 L 174 90.5 L 176 89.5 L 180 83.5 L 180 81.5 L 186.5 73 L 192 68.5 L 197.5 62 Q 202.1 61.1 204 57.5 L 206 52 Z M 159 177 L 151 181 Q 138 192 131 209 L 123 233 L 122 247 L 121 248 L 121 258 L 122 259 L 123 272 L 127 283 L 131 286 L 148 285 Q 150 282 157 283 L 164 279 Q 189 258 204 226 Q 205 220 203 218 L 180 187 L 176 182 L 170 180 L 167 177 L 159 177 Z "/><path fill="rgb(119,168,255)" stroke="rgb(119,168,255)" stroke-width="0.5" opacity="1" d="M 181.5 73 L 181.5 74 L 181.5 73 Z "/><path fill="rgb(99,142,242)" stroke="rgb(99,142,242)" stroke-width="0.5" opacity="1" d="M 200.5 54 L 202 54.5 L 199.5 56 L 200.5 54 Z "/><path fill="rgb(99,142,242)" stroke="rgb(99,142,242)" stroke-width="0.5" opacity="1" d="M 197.5 56 L 197.5 57 L 197.5 56 Z "/><path fill="rgb(99,142,242)" stroke="rgb(99,142,242)" stroke-width="0.5" opacity="1" d="M 193.5 272 L 194 285.5 L 189.5 288 L 175 301.5 Q 169.4 313.4 159.5 321 L 157.5 321 L 154.5 324 L 149.5 325 L 144.5 328 L 133.5 328 Q 132.5 330 128.5 329 Q 127.3 326.8 122.5 328 L 119.5 326 L 114.5 326 L 107.5 323 L 91 309.5 L 88 298.5 L 90.5 297 L 101.5 307 Q 103 304.5 104.5 308 L 107.5 308 L 109.5 310 L 119.5 313 L 130.5 313 L 132.5 314 L 133.5 313 L 140.5 313 L 148.5 310 L 151.5 310 L 159 306 Q 157.9 303.3 160.5 304 L 166 299.5 L 169.5 295 Q 171.8 295.8 171 293.5 Q 175.7 288.7 183.5 287 L 188 282.5 Q 188.9 275.4 193.5 272 Z "/><path fill="rgb(94,133,224)" stroke="rgb(94,133,224)" stroke-width="0.5" opacity="1" d="M 198.5 55 L 198.5 56 L 198.5 55 Z "/><path fill="rgb(94,133,224)" stroke="rgb(94,133,224)" stroke-width="0.5" opacity="1" d="M 196.5 56 L 196.5 57 L 196.5 56 Z "/><path fill="rgb(94,133,224)" stroke="rgb(94,133,224)" stroke-width="0.5" opacity="1" d="M 194.5 57 L 194.5 58 L 194.5 57 Z "/><path fill="rgb(94,133,224)" stroke="rgb(94,133,224)" stroke-width="0.5" opacity="1" d="M 191.5 287 Q 194.3 286.4 193 292.5 L 194 293.5 L 194 300.5 L 196 310 L 193.5 309 L 188.5 316 Q 186.3 315.3 187 317.5 L 178 324.5 L 175.5 328 L 172 330.5 Q 172.8 332.8 170.5 332 L 160.5 341 L 154.5 343 Q 149.2 342.2 147.5 345 L 130.5 345 L 129.5 344 L 122.5 344 L 109 340 L 108.5 342 Q 97.6 328.7 92 311 L 93.5 311 L 107.5 323 L 114.5 326 L 119.5 326 L 122.5 328 L 132.5 329 L 133.5 328 L 144.5 328 L 149.5 325 L 154.5 324 Q 155 320.5 159.5 321 L 169 311.5 Q 173.8 300.8 182.5 294 L 191.5 287 Z "/><path fill="rgb(136,183,255)" stroke="rgb(136,183,255)" stroke-width="0.5" opacity="1" d="M 214 56 Q 218.9 55.9 221 59.5 L 231 72.5 L 228.5 71 Q 226.3 70.3 227 72.5 L 226 76.5 L 228 82 L 231 83.5 L 231 90.5 L 235 102.5 L 238 107.5 L 243 124.5 L 248 134.5 L 250 142.5 L 263 172.5 L 275 194.5 L 275 197 L 270.5 198 L 269 194.5 L 258 174.5 L 256 167.5 L 254 165.5 L 252 157.5 L 249 152.5 L 243 135.5 L 243 132.5 L 236 113.5 L 234 103.5 L 227 85.5 L 227 82.5 Q 221.2 74.3 219 62.5 L 216.5 60 L 214 58.5 L 214 56 Z "/><path fill="rgb(136,183,255)" stroke="rgb(136,183,255)" stroke-width="0.5" opacity="1" d="M 158.5 177 L 166.5 177 L 169.5 180 L 175.5 182 L 180 186.5 L 203 217.5 Q 205 220 204 225.5 Q 189.1 257.6 163.5 279 L 156.5 283 Q 150.2 282.2 147.5 285 L 130.5 286 L 127 282.5 L 123 271.5 L 122 258.5 L 121 257.5 L 121 247.5 L 122 246.5 L 123 232.5 L 131 208.5 Q 138 192 150.5 181 L 158.5 177 Z M 149 193 L 147 194 L 139 204 L 131 225 Q 130 229 134 230 L 136 230 L 140 226 L 142 223 L 155 213 L 154 211 L 159 208 L 158 206 Q 158 202 160 202 L 156 195 L 149 193 Z "/><path fill="rgb(150,195,255)" stroke="rgb(150,195,255)" stroke-width="0.5" opacity="1" d="M 227 71 L 232 73 L 263 128.5 L 299 184.5 L 306 198 L 295 196 Q 295.8 190.5 293 187.5 L 267 144.5 L 236 86.5 L 231.5 81 L 228 82 L 226 73.5 L 227 71 Z "/><path fill="rgb(150,195,255)" stroke="rgb(150,195,255)" stroke-width="0.5" opacity="1" d="M 231.5 87 L 234 90.5 L 236 99.5 L 244 116.5 L 248 129.5 L 264 165.5 L 278 192.5 L 278 195.5 L 275 197 L 275 194.5 L 263 172.5 L 250 142.5 L 238 107.5 L 235 102.5 L 231 90.5 L 231.5 87 Z "/><path fill="rgb(150,195,255)" stroke="rgb(150,195,255)" stroke-width="0.5" opacity="1" d="M 148.5 193 L 156 195 L 160 201.5 Q 157.5 202 158 205.5 L 159 207.5 L 154 210.5 L 155 212.5 L 142 222.5 L 140 225.5 L 135.5 230 L 133.5 230 Q 130.3 229.3 131 224.5 L 139 203.5 L 146.5 194 L 148.5 193 Z "/><path fill="rgb(251,251,251)" stroke="rgb(251,251,251)" stroke-width="0.5" opacity="1" d="M 230 81 L 234 83.5 L 267 144.5 L 293 187.5 Q 295.8 190.5 295 196 L 278.5 196 Q 277.6 196.1 278 192.5 L 264 165.5 L 248 129.5 L 246 121.5 L 236 99.5 L 234 90.5 L 231 86.5 L 230 81 Z "/><path fill="rgb(251,251,251)" stroke="rgb(251,251,251)" stroke-width="0.5" opacity="1" d="M 342.5 181 L 349.5 182 L 359 190.5 L 360 197.5 L 358 196.5 L 356.5 194 Q 353.9 193.2 355 196.5 Q 353.3 199.8 348.5 200 L 343.5 196 L 336 203.5 L 294.5 256 L 288.5 259 L 283.5 259 L 278.5 257 L 267 245.5 L 265.5 243 L 256.5 235 L 254 235 L 255 239 L 253.5 239 L 245.5 232 L 236 228 L 235.5 230 Q 232 229 233 223.5 Q 234.9 217.4 239.5 214 L 247.5 210 L 254.5 210 L 270 224.5 L 283 240.5 L 283 242 L 286.5 243 L 327.5 192 L 343 182.5 L 342.5 181 Z "/><path fill="rgb(251,251,251)" stroke="rgb(251,251,251)" stroke-width="0.5" opacity="1" d="M 234 287 L 240.5 287 L 242 288.5 Q 239.3 289.6 240 293 Q 237 292 238 295 L 234 295 L 233 290.5 L 234 287 Z "/><path fill="rgb(231,231,231)" stroke="rgb(231,231,231)" stroke-width="0.5" opacity="1" d="M 341.5 181 L 342.5 183 Q 334.1 186.1 328.5 192 L 328 190.5 Q 332.8 183.8 341.5 181 Z "/><path fill="rgb(231,231,231)" stroke="rgb(231,231,231)" stroke-width="0.5" opacity="1" d="M 355 194 L 358 195.5 Q 360.6 196.9 360 201.5 Q 358.5 204.5 357 201.5 Q 357.8 198.9 354.5 200 L 340 214.5 L 310 252.5 L 301.5 261 Q 294.3 266.3 281.5 266 Q 280.3 263.8 275.5 265 L 265.5 261 L 256.5 252 L 256 253.5 L 270 268.5 L 268.5 268 L 263 265 L 260 259.5 L 243.5 241 L 235 233.5 L 236 228 L 245.5 232 L 253.5 239 L 255 239 L 254 235 L 256.5 235 L 267 244.5 L 278.5 257 L 283.5 259 L 288.5 259 L 297 253.5 L 336 203.5 L 343.5 196 L 348.5 200 L 350.5 200 L 355 196.5 L 355 194 Z "/><path fill="rgb(231,231,231)" stroke="rgb(231,231,231)" stroke-width="0.5" opacity="1" d="M 318.5 201 L 319 202.5 L 318 202.5 L 318.5 201 Z "/><path fill="rgb(231,231,231)" stroke="rgb(231,231,231)" stroke-width="0.5" opacity="1" d="M 292 282 L 312.5 282 L 314 283.5 L 314 307.5 L 315.5 308 L 318.5 304 Q 322.9 300.9 331.5 302 L 342 311.5 Q 344.5 317 343 326.5 L 344 327.5 L 344 338.5 Q 350 340.5 348 350.5 L 346.5 352 L 324.5 352 L 323 350.5 L 323 341.5 L 326 338.5 L 326 317.5 Q 324.8 313.8 318.5 315 L 314 318.5 L 314 340.5 L 315.5 342 L 319 343.5 Q 320.8 350.2 317.5 352 L 295.5 352 L 294 350.5 L 293 343.5 L 299 339.5 L 299 319.5 L 298 317.5 L 299 316.5 L 299 299.5 Q 297 298.5 298 294.5 L 295.5 292 Q 292.2 293.1 293 290.5 L 292 289.5 L 292 282 Z "/><path fill="rgb(231,231,231)" stroke="rgb(231,231,231)" stroke-width="0.5" opacity="1" d="M 234.5 286 L 270.5 286 L 279.5 289 L 288 297.5 Q 291.7 303.3 290 314.5 Q 287.1 321.6 281.5 326 L 272.5 330 L 257.5 330 L 256 331.5 Q 254.3 339.3 258.5 341 L 262 342.5 L 262 352 L 257.5 352 L 257 354 L 254.5 354 L 251.5 352 L 233.5 352 L 232 350.5 L 232 342.5 L 233.5 342 L 240 338.5 L 240 300.5 L 237.5 297 L 234 295.5 L 238 295 Q 237 292 240 293 L 240 290.5 Q 243.8 288.8 240.5 287 L 234.5 287 L 234.5 286 Z M 257 298 L 255 300 L 255 317 L 257 318 L 267 318 L 270 316 L 274 311 L 273 304 L 267 298 L 257 298 Z "/><path fill="rgb(254,199,91)" stroke="rgb(254,199,91)" stroke-width="0.5" opacity="1" d="M 277.5 196 L 296.5 196 L 297.5 197 L 303.5 197 L 304.5 198 L 313.5 199 L 318 201.5 L 314.5 202 L 305.5 199 L 301 199 L 299.5 202 Q 290.4 202.9 284.5 207 L 279.5 207 L 271.5 210 L 259.5 210 L 256.5 212 Q 254.3 211 255 208 L 270.5 202 L 274 202 Q 275.4 198.3 269.5 200 L 262.5 202 L 262 200 L 277.5 196 Z "/><path fill="rgb(254,199,91)" stroke="rgb(254,199,91)" stroke-width="0.5" opacity="1" d="M 232.5 221 L 233 224 L 231.5 224 L 224 231.5 L 213 250.5 L 208 265.5 L 207 275.5 L 206 276.5 L 206 284.5 L 204 287.5 L 204 307.5 L 205 308.5 L 205 313.5 L 207 323 Q 204.3 324.1 205 321.5 L 198.5 311 Q 194.3 312.3 196 307.5 L 194 300.5 L 193 286.5 L 194.5 284 L 196 295.5 L 195 298.5 L 199 307 L 202 305.5 L 201 302.5 L 201 284.5 L 202 283.5 L 202 277.5 L 205 264.5 L 209 253.5 L 220 233.5 L 226.5 226 L 232.5 221 Z "/><path fill="rgb(254,199,91)" stroke="rgb(254,199,91)" stroke-width="0.5" opacity="1" d="M 377 272 Q 379.7 270.9 379 273.5 L 380 274.5 L 380 281.5 L 381 282.5 L 381 293.5 L 380 293.5 L 378.5 288 L 376 289 L 375 276 Q 378.7 277.2 377 272 Z "/><path fill="rgb(254,199,91)" stroke="rgb(254,199,91)" stroke-width="0.5" opacity="1" d="M 234.5 281 L 243.5 281 L 250.5 285 L 264 285.5 L 234 286 L 233 291.5 L 234 295 L 232 295 L 232 286.5 L 230 286 L 230 284 L 234.5 281 Z "/><path fill="rgb(255,216,101)" stroke="rgb(255,216,101)" stroke-width="0.5" opacity="1" d="M 268.5 197 L 270 197.5 L 268.5 198 L 268.5 197 Z "/><path fill="rgb(255,216,101)" stroke="rgb(255,216,101)" stroke-width="0.5" opacity="1" d="M 260.5 200 Q 262.8 199.3 262 201.5 L 263.5 201 L 274 200 Q 275.3 203.3 270.5 202 L 255 208 L 254.5 210 L 247.5 210 Q 240.1 212.1 236 217.5 L 233.5 223 L 232.5 221 L 224 228.5 Q 211.6 243.6 205 264.5 L 202 277.5 L 202 283.5 L 201 284.5 L 201 302.5 L 202 305.5 L 199 307 L 195 296.5 L 196 293.5 L 195 292.5 L 195 284.5 L 194 283.5 L 194 272.5 L 196 270.5 L 200 254.5 L 207 240.5 Q 213.5 229 223.5 221 Q 238.4 206.9 260.5 200 Z "/><path fill="rgb(255,216,101)" stroke="rgb(255,216,101)" stroke-width="0.5" opacity="1" d="M 346.5 220 L 349.5 221 L 350.5 220 L 356 225.5 Q 367.2 237.3 374 253.5 L 379 272 L 377 272 Q 378.7 277.2 375 276 L 372 262.5 L 363 243.5 L 345 221.5 L 346.5 220 Z "/><path fill="rgb(255,216,101)" stroke="rgb(255,216,101)" stroke-width="0.5" opacity="1" d="M 293.5 281 L 313.5 281 L 314 282.5 L 312.5 282 L 293.5 282 L 293.5 281 Z "/><path fill="rgb(255,216,101)" stroke="rgb(255,216,101)" stroke-width="0.5" opacity="1" d="M 239.5 300 L 240 338.5 L 239 338.5 L 239.5 300 Z "/><path fill="rgb(251,187,68)" stroke="rgb(251,187,68)" stroke-width="0.5" opacity="1" d="M 301 199 L 318 202 L 316 206.5 L 296.5 230 Q 295.5 228 291.5 229 L 284.5 231 L 277.5 228 L 274.5 228 L 273.5 229 L 270 225.5 L 258 211.5 L 259.5 210 L 271.5 210 L 279.5 207 L 284.5 207 Q 290.5 203 299.5 202 L 301 200.5 L 301 199 Z "/><path fill="rgb(251,187,68)" stroke="rgb(251,187,68)" stroke-width="0.5" opacity="1" d="M 231.5 224 Q 234.5 223.1 233 227.5 Q 236.3 228.9 235 234 L 227.5 232 Q 223.3 233.8 225 241.5 Q 230.2 254.8 240.5 263 L 256.5 274 L 274.5 280 L 277.5 280 L 280 282.5 L 277 288 L 263.5 285 L 250.5 285 L 243.5 281 L 234.5 281 L 230 284 L 230 286 L 232 286.5 L 232 292.5 L 230.5 292 Q 223.6 291.1 222 295.5 L 222 303.5 L 230.5 320 L 236.5 310 L 238.5 309 L 239 340 L 232 342 L 231.5 345 L 230 341 L 227.5 341 L 225.5 343 L 219.5 345 Q 213.8 343.8 211 339.5 L 204.5 330 Q 202.3 330.8 203 328.5 L 201 326.5 L 197 311 L 200 312.5 L 200 314.5 L 205 323 Q 208.3 324.3 207 319.5 L 204 307.5 L 204 287.5 L 206 284.5 L 206 276.5 L 207 275.5 L 208 265.5 L 213 250.5 Q 219.3 234.3 231.5 224 Z "/><path fill="rgb(251,187,68)" stroke="rgb(251,187,68)" stroke-width="0.5" opacity="1" d="M 355.5 234 L 363 243.5 L 372 262.5 L 375 272.5 L 376 289 L 378.5 288 L 381 296.5 L 380 297.5 L 380 303.5 L 377.5 313 Q 374.8 311.8 377 310.5 L 377 305.5 L 378 302 Q 375 300.8 376 304.5 L 372 312.5 L 368.5 316 L 362.5 317 L 350.5 308 L 345.5 307 L 340.5 310 L 331.5 302 L 323 301.5 L 327 293.5 L 328 284.5 Q 326.5 282 325 283.5 L 322.5 280 L 316.5 281 L 314.5 283 L 314 281 L 293.5 281 L 292.5 282 L 291.5 280 L 302.5 276 L 316.5 276 L 319.5 275 L 321.5 276 L 335.5 270 L 338.5 267 L 345.5 264 L 355 254.5 L 357 249.5 Q 355 248.5 357 247.5 L 357 239.5 Q 354 237.7 355.5 234 Z "/><path fill="rgb(200,198,196)" stroke="rgb(200,198,196)" stroke-width="0.5" opacity="1" d="M 354.5 200 Q 357.8 198.9 357 201.5 Q 360.5 203 358 204.5 L 357 207.5 L 348.5 218 L 345.5 219 L 335 229.5 L 312 257.5 L 302 267.5 L 302 269 L 298 271.5 Q 298.8 273.8 296.5 273 Q 295 275.5 289.5 274 L 287.5 273 Q 286.5 275 282.5 274 L 271.5 269 L 256 253.5 L 256.5 252 L 267.5 262 L 275.5 265 L 288.5 266 L 301.5 261 L 310 252.5 L 340 214.5 L 354.5 200 Z "/><path fill="rgb(218,200,184)" stroke="rgb(218,200,184)" stroke-width="0.5" opacity="1" d="M 347.5 218 L 349.5 221 L 346.5 220 Q 344 221.5 345.5 223 L 339 228.5 L 337 232.5 L 316 257.5 L 302.5 271 L 298.5 272 L 300.5 269 Q 302.8 269.8 302 267.5 L 345.5 219 L 347.5 218 Z "/><path fill="rgb(218,200,184)" stroke="rgb(218,200,184)" stroke-width="0.5" opacity="1" d="M 242.5 241 L 247 244.5 L 260 259.5 L 263 265 L 269.5 269 Q 270.5 267 271.5 269 Q 276.5 274 286.5 274 L 288.5 273 L 292 274.5 L 277.5 275 L 267.5 271 L 254 257.5 L 254 255.5 L 243 243.5 L 242.5 241 Z "/><path fill="rgb(218,200,184)" stroke="rgb(218,200,184)" stroke-width="0.5" opacity="1" d="M 314.5 283 L 315.5 305 L 317 304.5 L 315.5 308 L 314 307.5 L 314.5 283 Z "/><path fill="rgb(218,200,184)" stroke="rgb(218,200,184)" stroke-width="0.5" opacity="1" d="M 256.5 298 L 267 298.5 L 257.5 299 L 256 300.5 L 256 315.5 L 257.5 317 L 267 317.5 L 256.5 318 L 255 316.5 L 255 299.5 L 256.5 298 Z "/><path fill="rgb(218,200,184)" stroke="rgb(218,200,184)" stroke-width="0.5" opacity="1" d="M 314.5 318 L 315 339.5 L 317 341.5 L 315.5 342 L 314 340.5 L 314.5 318 Z "/><path fill="rgb(218,200,184)" stroke="rgb(218,200,184)" stroke-width="0.5" opacity="1" d="M 298.5 319 L 299 339.5 L 298 339.5 L 298.5 319 Z "/><path fill="rgb(239,176,64)" stroke="rgb(239,176,64)" stroke-width="0.5" opacity="1" d="M 344.5 223 L 352 229.5 L 355 233.5 Q 354.4 238.1 357 239.5 L 357 247.5 L 356 250.5 L 355 254.5 L 345.5 264 L 338.5 267 L 335.5 270 L 320.5 276 L 321 274.5 L 320 272.5 L 323 270.5 L 324 268.5 L 323.5 267 L 342 249.5 L 349 237.5 L 349 229.5 L 346.5 226 L 343 224.5 L 344.5 223 Z "/><path fill="rgb(239,176,64)" stroke="rgb(239,176,64)" stroke-width="0.5" opacity="1" d="M 227.5 232 L 231 233.5 L 229.5 238 Q 232.1 237.3 231 240 L 229 240.5 L 233 242.5 L 232 245.5 L 234 249.5 Q 231.3 251.2 235.5 253 Q 237.8 252.3 237 254.5 Q 240.1 256.3 238.5 258 L 243 260.5 L 241.5 263 L 233 255.5 L 226 245.5 L 225 234.5 L 227.5 232 Z "/><path fill="rgb(239,176,64)" stroke="rgb(239,176,64)" stroke-width="0.5" opacity="1" d="M 226.5 292 L 230 292.5 L 227 294.5 L 228 296.5 L 225 297 Q 223.5 300.8 226.5 300 L 230 305.5 Q 228 306.5 229 310.5 L 230.5 313 Q 227.9 312.3 229 315 L 227 315 L 227 311.5 L 222 303.5 L 222 295.5 L 226.5 292 Z "/><path fill="rgb(239,176,64)" stroke="rgb(239,176,64)" stroke-width="0.5" opacity="1" d="M 376 302 Q 379 300.8 378 304.5 L 376 311.5 Q 378 312.5 377 316.5 L 373 327 Q 369.3 325.5 370 328.5 L 360.5 340 L 358.5 340 L 353 336.5 L 351 331.5 L 351 323.5 L 349 317.5 L 351 317.5 L 348.5 314 Q 344.8 315 346 312 L 348.5 313 L 349 311.5 L 347 308 L 345 307.5 L 348.5 307 L 356.5 313 L 358.5 313 L 362.5 317 L 366.5 317 L 372 312.5 L 376 302 Z "/><path fill="rgb(239,176,64)" stroke="rgb(239,176,64)" stroke-width="0.5" opacity="1" d="M 204.5 330 L 214.5 343 L 220.5 345 L 227.5 341 L 230 341 L 232 345.5 L 232 348.5 L 230.5 348 L 225.5 348 Q 224.1 350.6 219.5 350 L 212.5 343 Q 211.3 345.3 210 342.5 L 210 340.5 L 204 332.5 L 204.5 330 Z "/><path fill="rgb(239,176,64)" stroke="rgb(239,176,64)" stroke-width="0.5" opacity="1" d="M 231 356 L 233.5 356 L 241.5 363 L 249.5 363 L 257.5 360 L 265.5 362 Q 268.7 358.2 277.5 360 L 280.5 362 L 295.5 362 L 300.5 365 L 311.5 368 L 315 370.5 L 312.5 373 L 301.5 377 Q 296 375.5 294.5 378 L 278.5 378 L 277.5 377 L 262.5 375 L 250.5 371 L 234.5 362 L 231 358.5 L 231 356 Z "/><path fill="rgb(227,166,60)" stroke="rgb(227,166,60)" stroke-width="0.5" opacity="1" d="M 342.5 225 L 348 227.5 Q 350.3 230.7 349 237.5 L 342 249.5 L 324.5 267 L 315.5 271 L 304.5 272 L 291.5 278 L 277.5 278 L 268.5 275 L 264 270.5 Q 264.7 267.9 262 269 L 262 267 L 267.5 271 L 277.5 275 L 291.5 275 L 302.5 271 L 315.5 258 L 316.5 260 L 333 245.5 L 338 238.5 L 339 233.5 Q 335 231.5 339 229.5 L 342.5 225 Z "/><path fill="rgb(227,166,60)" stroke="rgb(227,166,60)" stroke-width="0.5" opacity="1" d="M 279.5 235 L 289.5 235 L 291 236.5 L 286.5 243 L 283 242 L 279.5 235 Z "/><path fill="rgb(227,166,60)" stroke="rgb(227,166,60)" stroke-width="0.5" opacity="1" d="M 246 249 L 247.5 249 L 254 255.5 L 253.5 258 L 247 252.5 L 246 249 Z "/><path fill="rgb(227,166,60)" stroke="rgb(227,166,60)" stroke-width="0.5" opacity="1" d="M 289.5 282 L 292 282.5 L 292 288.5 L 290.5 289 Q 290 286.5 286.5 287 L 281.5 291 Q 279.3 290 280 287 L 289.5 282 Z "/><path fill="rgb(227,166,60)" stroke="rgb(227,166,60)" stroke-width="0.5" opacity="1" d="M 315.5 289 Q 316.5 291 317.5 289 Q 320.8 287.9 320 290.5 L 321 294.5 Q 318.5 296 320 301.5 Q 322.3 302.8 319.5 304 L 317.5 305 L 315 304.5 L 315.5 289 Z "/><path fill="rgb(227,166,60)" stroke="rgb(227,166,60)" stroke-width="0.5" opacity="1" d="M 234 297 Q 237.8 296 239 298.5 Q 240.5 302.9 237.5 302 L 234 297 Z "/><path fill="rgb(227,166,60)" stroke="rgb(227,166,60)" stroke-width="0.5" opacity="1" d="M 346.5 319 L 350 320.5 Q 352 324.5 351 331.5 L 354.5 338 L 360.5 340 Q 367.6 335.2 370 327 Q 373 325.8 372 329.5 L 366 340.5 L 353.5 355 L 349.5 355 L 339.5 364 L 322.5 373 L 308 377 Q 310.2 382.6 304.5 381 Q 303.3 383.3 298.5 382 L 295.5 380 L 278.5 380 L 278.5 381 Q 281.1 380.3 280 383 L 262.5 380 L 255.5 376 L 248.5 375 L 230.5 364 L 214 347.5 L 212 343.5 L 212.5 343 L 219.5 350 Q 224.1 350.6 225.5 348 L 230.5 348 L 233.5 352 L 236 352.5 Q 233.3 354.3 237.5 356 L 247.5 359 Q 248.5 357 252.5 358 L 260 353.5 L 259.5 352 L 265.5 353 Q 268.3 347.8 277.5 349 L 284.5 356 L 285.5 355 L 293.5 355 L 295.5 357 L 305.5 361 L 323.5 362 L 324.5 361 Q 332.1 362.1 336.5 360 L 345 353.5 L 344.5 352 L 348 350.5 L 348 339.5 L 347 338.5 L 347 330.5 L 345 325.5 L 345 320.5 L 346.5 319 Z M 231 356 L 231 359 L 235 362 L 251 371 L 263 375 L 278 377 L 279 378 L 295 378 Q 296 376 302 377 L 313 373 L 315 371 L 312 368 L 301 365 L 296 362 L 281 362 L 278 360 Q 269 358 266 362 L 258 360 L 250 363 L 242 363 L 234 356 L 231 356 Z "/><path fill="rgb(227,166,60)" stroke="rgb(227,166,60)" stroke-width="0.5" opacity="1" d="M 297.5 334 L 298 340.5 L 294.5 342 L 293 338.5 L 297.5 334 Z "/><path fill="rgb(227,166,60)" stroke="rgb(227,166,60)" stroke-width="0.5" opacity="1" d="M 272.5 336 Q 278.3 335.3 279 339.5 L 277.5 343 L 272.5 346 L 266 342.5 L 269.5 338 L 272.5 336 Z "/><path fill="rgb(241,174,62)" stroke="rgb(241,174,62)" stroke-width="0.5" opacity="1" d="M 274 228 L 286.5 231 Q 290.1 228.3 296 229 Q 295.6 233.7 291.5 236 L 289.5 235 L 278.5 235 L 276 232.5 L 274 228 Z "/><path fill="rgb(241,174,62)" stroke="rgb(241,174,62)" stroke-width="0.5" opacity="1" d="M 231.5 233 L 235.5 234 L 242 240.5 L 247 248.5 L 246 250.5 L 251.5 257 L 254.5 258 L 263 266.5 L 262 269 Q 264.7 267.9 264 270.5 Q 267 275.5 273.5 277 L 277.5 278 L 291.5 278 L 304.5 272 L 318.5 270 L 322.5 267 Q 325.3 268.3 323 269.5 L 321.5 272 L 320 272.5 L 321 275 L 316.5 276 L 302.5 276 L 291 280.5 Q 293.3 281.8 290.5 283 Q 289.5 281 288.5 283 L 280 287 Q 281.1 290.3 277 289 Q 276.4 284.4 280 282.5 L 277.5 280 L 274.5 280 L 256.5 274 L 242 263.5 L 243 260.5 L 238 257.5 Q 240.5 256 237 254.5 Q 237.8 252.3 235.5 253 Q 231.3 251.2 234 249.5 L 232 243.5 Q 234.3 242.3 231.5 241 L 229 240.5 L 231 240 Q 232.1 237.3 229.5 238 L 231 235.5 L 230 234.5 L 231.5 233 Z "/><path fill="rgb(241,174,62)" stroke="rgb(241,174,62)" stroke-width="0.5" opacity="1" d="M 320.5 280 Q 324.5 279.5 325 282.5 L 325.5 284 Q 326.8 281.8 328 284.5 L 327 293.5 L 323 303 L 320 301.5 L 321 291.5 L 320 289 L 316.5 290 Q 313.5 288.5 315 282.5 L 320.5 280 Z "/><path fill="rgb(241,174,62)" stroke="rgb(241,174,62)" stroke-width="0.5" opacity="1" d="M 230.5 292 L 232 295 L 235 296.5 L 234 298.5 L 239 302 L 239 308.5 L 237.5 310 L 234 312.5 L 234 314.5 L 230.5 320 L 228 315.5 L 229 313 L 231 312.5 Q 228 311.5 229 306.5 Q 231 305.5 229 304.5 L 226.5 300 Q 223.5 300.7 225 297 L 228 296.5 L 227 294.5 L 230.5 292 Z "/><path fill="rgb(241,174,62)" stroke="rgb(241,174,62)" stroke-width="0.5" opacity="1" d="M 343.5 308 Q 347.9 306.5 347 309.5 L 349 312.5 L 347.5 312 Q 344.9 311.3 346 314 Q 349.8 313.3 351 316.5 L 350.5 318 L 349 317.5 Q 349.8 320.1 346.5 319 Q 343.8 320.3 345 325.5 L 347 330.5 Q 346 337.5 348 341.5 L 344 338.5 L 343 314.5 L 341 309 L 343.5 308 Z "/><path fill="rgb(203,148,55)" stroke="rgb(203,148,55)" stroke-width="0.5" opacity="1" d="M 337.5 232 Q 339.8 232.8 339 236.5 Q 333.4 246.8 324.5 254 L 316.5 260 L 316 256.5 L 337.5 232 Z "/><path fill="rgb(203,148,55)" stroke="rgb(203,148,55)" stroke-width="0.5" opacity="1" d="M 286.5 287 L 288.5 287 L 293 290.5 L 292.5 293 Q 291.5 291 290.5 293 L 284.5 292 Q 283.2 294.3 282 291.5 L 284.5 288 L 286.5 287 Z "/><path fill="rgb(203,148,55)" stroke="rgb(203,148,55)" stroke-width="0.5" opacity="1" d="M 298.5 299 L 299 316.5 L 298 316.5 L 298.5 299 Z "/><path fill="rgb(203,148,55)" stroke="rgb(203,148,55)" stroke-width="0.5" opacity="1" d="M 273.5 305 L 274 310.5 L 269.5 316 Q 266.8 316.6 268 310.5 L 270.5 307 L 273.5 305 Z "/><path fill="rgb(203,148,55)" stroke="rgb(203,148,55)" stroke-width="0.5" opacity="1" d="M 297.5 326 L 298 333.5 L 293 338.5 L 293 340.5 L 294 342.5 Q 291.8 343.7 293 348.5 L 297.5 355 L 302.5 357 L 309.5 357 L 310.5 358 L 325.5 358 L 326.5 357 L 335.5 357 L 342 353.5 Q 341.3 351.3 343.5 352 Q 347 354 342.5 356 L 333.5 361 L 314.5 362 L 313.5 361 L 301.5 360 L 293.5 355 L 285.5 355 L 284.5 356 L 277.5 349 L 271.5 349 L 265.5 353 L 262 353 L 262 342.5 L 260.5 341 Q 256.5 341.5 256 338.5 Q 254.3 333.3 259.5 335 L 261.5 336 L 274 331 Q 272.9 328.3 275.5 329 L 278.5 327 L 279 329 L 287.5 335 L 289.5 335 L 297.5 326 Z M 273 336 L 270 338 L 266 343 L 273 346 L 278 343 L 279 340 Q 278 335 273 336 Z "/><path fill="rgb(203,148,55)" stroke="rgb(203,148,55)" stroke-width="0.5" opacity="1" d="M 236.5 352 L 239.5 354 L 244.5 356 L 250.5 356 L 257 354 Q 255.9 351.3 258.5 352 L 259.5 354 L 252.5 358 L 246.5 359 Q 245.5 357 241.5 358 L 235 353.5 L 236.5 352 Z "/><path fill="rgb(203,148,55)" stroke="rgb(203,148,55)" stroke-width="0.5" opacity="1" d="M 349.5 355 L 353 355.5 Q 336.5 374.3 308 380 Q 306.3 375.9 310.5 377 Q 325 373 336.5 366 L 349.5 355 Z "/><path fill="rgb(203,148,55)" stroke="rgb(203,148,55)" stroke-width="0.5" opacity="1" d="M 278.5 380 L 295.5 380 L 298 381.5 Q 296.4 384.5 291 383 L 290.5 381 L 283.5 381 L 280 383 Q 281.1 380.3 278.5 381 L 278.5 380 Z "/><path fill="rgb(189,137,52)" stroke="rgb(189,137,52)" stroke-width="0.5" opacity="1" d="M 284 292 L 290.5 293 L 293.5 292 Q 297.5 291.5 298 294.5 L 297.5 298 Q 296.5 296 295.5 298 L 287.5 295 Q 285.8 297.8 284 293.5 L 284 292 Z "/><path fill="rgb(189,137,52)" stroke="rgb(189,137,52)" stroke-width="0.5" opacity="1" d="M 272.5 303 L 273 305.5 L 269 308.5 L 268 317 L 257.5 317 L 256 315.5 L 256.5 308 L 257 310 L 260 311.5 Q 257.8 317.8 263.5 316 Q 266.3 314.8 264 313.5 Q 264.6 307.6 268.5 305 L 272.5 303 Z "/><path fill="rgb(189,137,52)" stroke="rgb(189,137,52)" stroke-width="0.5" opacity="1" d="M 297.5 322 L 298 325.5 L 289.5 335 L 287.5 335 L 279 329 L 280.5 326 L 287.5 330 L 290.5 330 L 295 325.5 L 295 324 Q 297.8 325 297.5 322 Z "/><path fill="rgb(189,137,52)" stroke="rgb(189,137,52)" stroke-width="0.5" opacity="1" d="M 273.5 329 L 274 331 L 260.5 336 L 256 335 L 256.5 333 Q 257.5 335 258.5 333 L 263.5 333 L 267 332 L 267 330 L 272.5 330 L 273.5 329 Z "/><path fill="rgb(189,137,52)" stroke="rgb(189,137,52)" stroke-width="0.5" opacity="1" d="M 238 352 L 245 352.5 L 241 353.5 L 254 354.5 Q 250.9 356.9 244.5 356 L 238 354 L 238 352 Z "/><path fill="rgb(189,137,52)" stroke="rgb(189,137,52)" stroke-width="0.5" opacity="1" d="M 296 352 L 299 352.5 L 298.5 354 L 306.5 356 L 332.5 356 L 340 353.5 L 339.5 352 Q 342.8 350.9 342 353.5 L 335.5 357 L 310.5 358 L 309.5 357 L 302.5 357 L 296 353.5 L 296 352 Z "/><path fill="rgb(189,137,52)" stroke="rgb(189,137,52)" stroke-width="0.5" opacity="1" d="M 283.5 381 L 290.5 381 L 291 383 L 282 382.5 L 283.5 381 Z "/><path fill="rgb(181,130,46)" stroke="rgb(181,130,46)" stroke-width="0.5" opacity="1" d="M 287 295 L 295.5 298 Q 296.8 295.7 298 298.5 L 297.5 306 L 292 301.5 L 289.5 298 L 288 298.5 L 287 295 Z "/><path fill="rgb(181,130,46)" stroke="rgb(181,130,46)" stroke-width="0.5" opacity="1" d="M 269.5 300 L 272 304 Q 268 304.3 266 307.5 L 264 313.5 Q 266.3 314.8 263.5 316 Q 257.8 317.8 260 311.5 L 257 310 L 256 306.5 L 259.5 307 L 262.5 307 L 269 301.5 L 269.5 300 Z "/><path fill="rgb(181,130,46)" stroke="rgb(181,130,46)" stroke-width="0.5" opacity="1" d="M 297.5 318 L 298 321.5 L 297 324 Q 294.3 322.9 295 325.5 L 290.5 330 L 287.5 330 L 282 327 L 284.5 323 L 289.5 327 L 297.5 318 Z "/><path fill="rgb(181,130,46)" stroke="rgb(181,130,46)" stroke-width="0.5" opacity="1" d="M 325.5 326 L 326 338.5 L 323 340.5 Q 321.1 336.9 322 330.5 L 325.5 326 Z "/><path fill="rgb(181,130,46)" stroke="rgb(181,130,46)" stroke-width="0.5" opacity="1" d="M 257.5 330 L 266.5 330 L 267 332 L 257.5 334 L 256 331.5 L 257.5 330 Z "/><path fill="rgb(181,130,46)" stroke="rgb(181,130,46)" stroke-width="0.5" opacity="1" d="M 245.5 352 Q 251.6 350.9 254 353.5 L 241.5 354 L 241.5 353 L 245.5 352 Z "/><path fill="rgb(181,130,46)" stroke="rgb(181,130,46)" stroke-width="0.5" opacity="1" d="M 299.5 352 L 304 352.5 L 303.5 354 L 337 353.5 L 336.5 352 L 340 353.5 L 332.5 356 L 306.5 356 L 298 353.5 L 299.5 352 Z "/><path fill="rgb(166,119,43)" stroke="rgb(166,119,43)" stroke-width="0.5" opacity="1" d="M 289.5 298 L 293.5 303 L 298 306.5 L 298 317.5 L 289.5 327 L 285 323.5 L 290 314.5 L 290 302.5 Q 287.9 301.4 289.5 298 Z "/><path fill="rgb(166,119,43)" stroke="rgb(166,119,43)" stroke-width="0.5" opacity="1" d="M 257.5 299 L 267.5 299 L 269 300.5 L 267.5 303 L 262.5 307 L 259.5 307 L 256 305.5 Q 254.8 300.3 257.5 299 Z "/><path fill="rgb(166,119,43)" stroke="rgb(166,119,43)" stroke-width="0.5" opacity="1" d="M 318.5 315 Q 324.8 313.8 326 317.5 L 326 325.5 Q 320.4 327.9 322 337.5 L 323 338.5 L 323 350.5 L 324.5 352 L 335.5 352 L 337 353.5 L 303.5 354 L 304.5 352 L 317.5 352 L 319 350.5 Q 320.8 341.3 315 339.5 L 315 317.5 L 318.5 315 Z "/><path fill="rgb(86,119,198)" stroke="rgb(86,119,198)" stroke-width="0.5" opacity="1" d="M 193.5 309 L 197 311.5 L 197 314.5 L 201 326 Q 198.3 324.9 199 327.5 Q 194.2 336.7 186.5 343 L 172.5 351 L 169.5 354 L 159.5 358 L 140.5 359 L 135 361.5 L 134 363.5 L 137 367.5 L 134.5 368 L 115 350.5 L 110 344.5 L 109 340 L 122.5 344 L 129.5 344 L 130.5 345 L 147.5 345 L 150.5 343 L 154.5 343 L 160.5 341 L 170.5 332 L 172 332 L 174.5 328 L 178 325.5 L 181.5 321 L 187 317.5 Q 186.3 315.3 188.5 316 L 193.5 309 Z "/><path fill="rgb(76,107,183)" stroke="rgb(76,107,183)" stroke-width="0.5" opacity="1" d="M 199 326 L 203 328.5 L 204 332.5 L 210 341.5 L 203 353 L 178.5 369 L 175.5 369 L 168.5 373 L 159.5 374 L 139.5 369 L 135 365.5 L 134 363.5 L 136.5 360 L 140.5 359 L 149.5 359 L 150.5 358 L 159.5 358 L 169.5 354 L 172.5 351 L 186.5 343 L 193 336.5 Q 197.7 332.4 199 326 Z "/><path fill="rgb(70,95,157)" stroke="rgb(70,95,157)" stroke-width="0.5" opacity="1" d="M 209.5 342 L 230.5 364 L 251 376.5 Q 251.8 378.8 249.5 378 L 241.5 382 L 228.5 386 L 203.5 388 L 202.5 387 L 186.5 386 L 171 381 Q 172.1 378.3 169.5 379 L 167 378.5 Q 167.8 376.3 165.5 377 L 162 374.5 L 163.5 373 L 168.5 373 L 175.5 369 L 178.5 369 L 203 353 L 209.5 342 Z "/><path fill="rgb(88,105,155)" stroke="rgb(88,105,155)" stroke-width="0.5" opacity="1" d="M 136.5 368 L 142.5 369 L 152.5 373 L 158.5 373 L 167 377 L 167.5 379 Q 168.5 377 169.5 379 Q 172.1 378.3 171 381 L 173.5 381 L 186.5 386 L 210.5 388 L 211.5 387 L 228.5 386 L 251 378 L 250 375.5 L 252.5 375 L 259 378 Q 260.1 380.7 257.5 380 L 249.5 384 L 229.5 390 L 214.5 391 L 213.5 392 L 198.5 392 L 197.5 391 L 183.5 390 L 160.5 383 L 141.5 373 L 136 368.5 L 136.5 368 Z "/></svg>