<?xml version="1.0" encoding="UTF-8"?>
<svg version="1.1" xmlns="http://www.w3.org/2000/svg" width="512" height="512">
<path d="M0 0 C4.1039314 3.24894569 7.30610558 6.29331673 9 11.375 C9.59580888 20.77752289 8.5566232 29.50656724 6.57250977 38.67456055 C6.31386642 39.92426636 6.05522308 41.17397217 5.78874207 42.46154785 C5.08573305 45.85669443 4.36571205 49.24802122 3.64236951 52.63888526 C2.87565185 56.24807932 2.12517921 59.86065228 1.37278748 63.47285461 C-0.0608835 70.34382756 -1.50872514 77.21173202 -2.96183592 84.07861692 C-4.73895261 92.48014724 -6.49740033 100.88556436 -8.25585938 109.29101562 C-10.1122488 118.16253924 -11.97193553 127.0333193 -13.84848022 135.90060425 C-14.44973995 138.74278974 -15.05087873 141.58500076 -15.65185547 144.42724609 C-15.79742535 145.11560161 -15.94299524 145.80395713 -16.09297633 146.51317191 C-18.02777694 155.67005046 -19.91016244 164.83618988 -21.74267578 174.01416016 C-22.3434964 176.99450683 -22.94530112 179.97465319 -23.54734993 182.95475197 C-24.07726203 185.60503242 -24.58998041 188.25823263 -25.10191345 190.91203308 C-26.88874131 199.90186756 -28.63624694 207.12313804 -35.4375 213.75 C-41.67017367 217.7024272 -47.61156658 217.66431468 -54.75935364 217.64242554 C-56.38685571 217.64922221 -56.38685571 217.64922221 -58.04723662 217.65615618 C-61.68363396 217.66881846 -65.31988188 217.66717861 -68.95629883 217.66552734 C-71.56323947 217.67151143 -74.17017834 217.6783167 -76.77711487 217.68588257 C-83.12405273 217.70247852 -89.47095344 217.70799148 -95.81791119 217.70910732 C-100.97835635 217.71005846 -106.13878928 217.71417203 -111.29923058 217.72050858 C-125.93797948 217.73811711 -140.57669909 217.74734805 -155.21545867 217.74584763 C-156.00424256 217.74576772 -156.79302646 217.7456878 -157.60571289 217.74560547 C-158.39546262 217.74552371 -159.18521234 217.74544195 -159.99889388 217.74535771 C-172.79620532 217.74454491 -185.59339903 217.76368208 -198.39067642 217.7918822 C-211.5386125 217.82062585 -224.68649119 217.83442168 -237.83445948 217.83269465 C-245.21292544 217.83203126 -252.59126797 217.83750106 -259.96970558 217.85905075 C-266.90955668 217.87918999 -273.84914321 217.8785737 -280.78900719 217.86401749 C-283.33468888 217.86192535 -285.88038678 217.86665426 -288.42604065 217.8787384 C-291.90423207 217.89417863 -295.38152334 217.88488954 -298.85969543 217.86947632 C-300.36672137 217.88490701 -300.36672137 217.88490701 -301.90419227 217.90064943 C-308.95870357 217.83168223 -315.38551909 216.63479338 -320.77803105 211.77144641 C-326.43608331 205.55531091 -328.05602866 196.49805351 -330.27099609 188.60864258 C-330.7630679 186.90402938 -331.25659715 185.19983634 -331.75146484 183.49603271 C-333.0853071 178.88663837 -334.39748264 174.2713401 -335.70481825 169.65436769 C-337.07981676 164.80883567 -338.47164104 159.96813466 -339.86074829 155.12663269 C-342.19117726 146.99375311 -344.50713233 138.85685408 -346.81494141 130.7175293 C-349.47660511 121.33103563 -352.16288429 111.95185246 -354.86213243 102.57610399 C-357.18491552 94.50552623 -359.49418051 86.43116928 -361.79237425 78.3535549 C-363.16236991 73.53838649 -364.53686545 68.72463377 -365.92359543 63.91425514 C-367.22791403 59.38693763 -368.51509194 54.85507713 -369.78968811 50.31930542 C-370.25783104 48.66374251 -370.73170169 47.00978583 -371.21197891 45.35770226 C-377.9320611 22.20459913 -377.9320611 22.20459913 -373 12.875 C-369.28759731 7.99406945 -365.24286274 4.86819447 -359.09765625 3.93359375 C-352.83761337 3.68887581 -346.90543545 4.1658199 -342 8.375 C-337.52267124 13.74223262 -335.54885548 18.87831846 -333.6875 25.5625 C-333.42388672 26.45130859 -333.16027344 27.34011719 -332.88867188 28.25585938 C-331.75111959 32.18854014 -331 35.23538287 -331 39.375 C-327.67121633 40.07297077 -324.33941718 40.73055107 -321 41.375 C-320.3723877 41.50342285 -319.74477539 41.6318457 -319.09814453 41.76416016 C-289.47610955 47.76545203 -264.33821136 42.99745293 -238 28.375 C-216.91201122 16.85361287 -193.16911499 17.1153527 -170.49609375 23.62890625 C-160.08918689 26.81009579 -150.58746514 31.28284337 -141 36.375 C-131.13101368 41.60956369 -121.93652063 45.78477143 -111 48.375 C-110.15695312 48.58769531 -109.31390625 48.80039063 -108.4453125 49.01953125 C-86.37948008 54.32602036 -61.74555499 52.41457093 -40.37109375 45.14453125 C-38 44.375 -38 44.375 -36 44.375 C-35.87044922 43.35019531 -35.87044922 43.35019531 -35.73828125 42.3046875 C-34.69688122 34.83335883 -33.30178564 27.44319971 -31.75 20.0625 C-31.47990112 18.66717041 -31.47990112 18.66717041 -31.2043457 17.24365234 C-29.5687901 9.7336535 -26.55733711 4.15145823 -20.4375 -0.625 C-14.00407767 -2.49654104 -6.11898448 -3.21414789 0 0 Z " fill="#7ABEDF" transform="translate(441,199.625)"/>
<path d="M0 0 C4.1039314 3.24894569 7.30610558 6.29331673 9 11.375 C9.59580888 20.77752289 8.5566232 29.50656724 6.57250977 38.67456055 C6.31386642 39.92426636 6.05522308 41.17397217 5.78874207 42.46154785 C5.08573305 45.85669443 4.36571205 49.24802122 3.64236951 52.63888526 C2.87565185 56.24807932 2.12517921 59.86065228 1.37278748 63.47285461 C-0.0608835 70.34382756 -1.50872514 77.21173202 -2.96183592 84.07861692 C-4.73895261 92.48014724 -6.49740033 100.88556436 -8.25585938 109.29101562 C-10.1122488 118.16253924 -11.97193553 127.0333193 -13.84848022 135.90060425 C-14.44973995 138.74278974 -15.05087873 141.58500076 -15.65185547 144.42724609 C-15.79742535 145.11560161 -15.94299524 145.80395713 -16.09297633 146.51317191 C-18.02777694 155.67005046 -19.91016244 164.83618988 -21.74267578 174.01416016 C-22.3434964 176.99450683 -22.94530112 179.97465319 -23.54734993 182.95475197 C-24.07726203 185.60503242 -24.58998041 188.25823263 -25.10191345 190.91203308 C-26.88874131 199.90186756 -28.63624694 207.12313804 -35.4375 213.75 C-41.67017367 217.7024272 -47.61156658 217.66431468 -54.75935364 217.64242554 C-56.38685571 217.64922221 -56.38685571 217.64922221 -58.04723662 217.65615618 C-61.68363396 217.66881846 -65.31988188 217.66717861 -68.95629883 217.66552734 C-71.56323947 217.67151143 -74.17017834 217.6783167 -76.77711487 217.68588257 C-83.12405273 217.70247852 -89.47095344 217.70799148 -95.81791119 217.70910732 C-100.97835635 217.71005846 -106.13878928 217.71417203 -111.29923058 217.72050858 C-125.93797948 217.73811711 -140.57669909 217.74734805 -155.21545867 217.74584763 C-156.00424256 217.74576772 -156.79302646 217.7456878 -157.60571289 217.74560547 C-158.39546262 217.74552371 -159.18521234 217.74544195 -159.99889388 217.74535771 C-172.79620532 217.74454491 -185.59339903 217.76368208 -198.39067642 217.7918822 C-211.5386125 217.82062585 -224.68649119 217.83442168 -237.83445948 217.83269465 C-245.21292544 217.83203126 -252.59126797 217.83750106 -259.96970558 217.85905075 C-266.90955668 217.87918999 -273.84914321 217.8785737 -280.78900719 217.86401749 C-283.33468888 217.86192535 -285.88038678 217.86665426 -288.42604065 217.8787384 C-291.90423207 217.89417863 -295.38152334 217.88488954 -298.85969543 217.86947632 C-300.36672137 217.88490701 -300.36672137 217.88490701 -301.90419227 217.90064943 C-308.95870357 217.83168223 -315.38551909 216.63479338 -320.77803105 211.77144641 C-326.43608331 205.55531091 -328.05602866 196.49805351 -330.27099609 188.60864258 C-330.7630679 186.90402938 -331.25659715 185.19983634 -331.75146484 183.49603271 C-333.0853071 178.88663837 -334.39748264 174.2713401 -335.70481825 169.65436769 C-337.07981676 164.80883567 -338.47164104 159.96813466 -339.86074829 155.12663269 C-342.19117726 146.99375311 -344.50713233 138.85685408 -346.81494141 130.7175293 C-349.47660511 121.33103563 -352.16288429 111.95185246 -354.86213243 102.57610399 C-357.18491552 94.50552623 -359.49418051 86.43116928 -361.79237425 78.3535549 C-363.16236991 73.53838649 -364.53686545 68.72463377 -365.92359543 63.91425514 C-367.22791403 59.38693763 -368.51509194 54.85507713 -369.78968811 50.31930542 C-370.25783104 48.66374251 -370.73170169 47.00978583 -371.21197891 45.35770226 C-377.9320611 22.20459913 -377.9320611 22.20459913 -373 12.875 C-369.28759731 7.99406945 -365.24286274 4.86819447 -359.09765625 3.93359375 C-352.83761337 3.68887581 -346.90543545 4.1658199 -342 8.375 C-337.79344931 13.48897303 -335.75165758 18.16129498 -334 24.5 C-333.74855225 25.37035889 -333.49710449 26.24071777 -333.23803711 27.13745117 C-331.25030252 34.14504724 -329.58624634 41.21763917 -327.96044922 48.31616211 C-326.21444072 55.80092001 -324.01842003 63.10348016 -321.72680664 70.43676758 C-319.46931417 77.70537047 -317.44273874 85.01645482 -315.5 92.375 C-313.32612373 100.59652481 -311.02285106 108.753715 -308.5 116.875 C-305.63094999 126.11855747 -303.04895261 135.41838782 -300.57006836 144.77368164 C-298.42111887 152.87300449 -296.15430236 160.93194081 -293.77709961 168.96728516 C-293.5425708 169.77085449 -293.30804199 170.57442383 -293.06640625 171.40234375 C-292.85959229 172.10093506 -292.65277832 172.79952637 -292.43969727 173.51928711 C-292 175.375 -292 175.375 -292 178.375 C-216.43 178.375 -140.86 178.375 -63 178.375 C-62.67 175.075 -62.34 171.775 -62 168.375 C-61.34035523 165.0413407 -60.64014845 161.74585615 -59.875 158.4375 C-57.59405169 148.27876901 -55.5197622 138.0879596 -53.5 127.875 C-51.58127568 118.18938125 -49.63856334 108.51502665 -47.5 98.875 C-45.35565013 89.19089715 -43.37975292 79.47624833 -41.4375 69.75 C-41.20936615 68.60792587 -41.20936615 68.60792587 -40.97662354 67.44277954 C-39.39075337 59.4919121 -37.82676486 51.5381978 -36.3425293 43.56762695 C-35.58323464 39.49915571 -34.7952084 35.43658237 -34 31.375 C-33.81759766 30.42753906 -33.63519531 29.48007813 -33.44726562 28.50390625 C-32.86294331 25.51823275 -32.2477732 22.54036663 -31.625 19.5625 C-31.45210449 18.66039795 -31.27920898 17.7582959 -31.10107422 16.82885742 C-29.51666795 9.50355946 -26.39475319 4.02456346 -20.4375 -0.625 C-14.00407767 -2.49654104 -6.11898448 -3.21414789 0 0 Z " fill="#D8D0D0" transform="translate(441,199.625)"/>
<path d="M0 0 C6.17819231 3.75902062 9.740811 9.19231047 12 16 C13.27347405 24.02895068 11.0131619 30.19736086 7.3125 37.1875 C3.72889078 41.54594365 -0.66471703 44.22157234 -6 46 C-14.20518012 46.77722929 -21.40040429 47.20147486 -28.12890625 41.859375 C-35.03307278 34.99844959 -37.34127426 29.78972623 -37.38500977 20.17431641 C-37.2379826 13.0963493 -35.23507738 9.34265715 -30.35546875 4.30078125 C-21.39177041 -4.05589463 -10.91590718 -5.25802855 0 0 Z " fill="#40A7D7" transform="translate(277,307)"/>
<path d="M0 0 C3.75813866 1.25271289 3.95508052 2.23430356 5.7421875 5.671875 C6.24911133 6.64036377 6.75603516 7.60885254 7.27832031 8.60668945 C8.06867676 10.16262817 8.06867676 10.16262817 8.875 11.75 C9.6808252 13.32430786 9.6808252 13.32430786 10.50292969 14.93041992 C22.50121958 38.64298399 22.50121958 38.64298399 19.3359375 49.21875 C17.13862285 54.33944848 13.86715861 57.36879825 9 60 C3.29414036 61.90195321 -2.77146738 61.90252212 -8.3125 59.4375 C-13.3086892 56.60565187 -16.20779949 52.37660152 -18 47 C-19.56075421 30.87220652 -7.85914162 13.60236049 0 0 Z " fill="#3FA7D7" transform="translate(164,156)"/>
<path d="M0 0 C0.66 0 1.32 0 2 0 C3.76203036 3.26448401 5.50727099 6.53767717 7.25 9.8125 C7.74113281 10.72193359 8.23226563 11.63136719 8.73828125 12.56835938 C18.26184637 30.53615223 18.26184637 30.53615223 17 40 C15.06427896 45.30692062 12.09792174 48.45103913 7 51 C0.98205945 52.45595336 -3.60277515 52.21757635 -9 49 C-13.09577695 45.27933133 -14.89668245 41.80523942 -15.21484375 36.24609375 C-15.15367343 32.11944993 -14.15269119 28.89361103 -12.5625 25.0625 C-12.30388184 24.43786865 -12.04526367 23.8132373 -11.77880859 23.16967773 C-8.37629964 15.19019471 -4.18119045 7.59118355 0 0 Z " fill="#3FA7D7" transform="translate(353,160)"/>
<path d="M0 0 C2.21073933 2.04568857 3.64395281 3.91929478 4.97265625 6.6171875 C5.48602539 7.65166016 5.48602539 7.65166016 6.00976562 8.70703125 C6.35716797 9.42246094 6.70457031 10.13789063 7.0625 10.875 C7.41376953 11.58269531 7.76503906 12.29039062 8.12695312 13.01953125 C11.62542289 20.12228461 14.2294729 25.91136252 13 34 C11.54759244 37.30338279 9.45542981 39.31795758 6.1328125 40.875 C1.31890682 42.37349204 -2.32156778 42.06930656 -7 40 C-11.07737769 35.70802348 -12.44276438 32.66499612 -12.37451172 26.6875 C-11.63132504 21.35438464 -8.98987455 16.74646473 -6.5625 12 C-6.04623047 10.95199219 -5.52996094 9.90398437 -4.99804688 8.82421875 C-1.23096646 1.23096646 -1.23096646 1.23096646 0 0 Z " fill="#3FA7D7" transform="translate(245,119)"/>
<path d="M0 0 C3.3170383 2.61128547 5.4091157 5.11277138 7 9 C7.23974502 13.46724889 6.53895094 17.09533235 4.25 20.9375 C0.78218186 24.1163333 -1.7879917 24.86778091 -6.4375 25.375 C-11.65758681 24.82551718 -14.5516228 22.73805264 -17.875 18.75 C-19.36864601 15.09886531 -19.67187475 11.85006882 -19 8 C-17.20548969 4.34195976 -15.60877052 2.43888108 -12.3125 0.0625 C-7.92779812 -1.34391381 -4.41161043 -1.34301793 0 0 Z " fill="#40A7D7" transform="translate(196,100)"/>
<path d="M0 0 C3.37219656 2.75281352 4.66732232 4.17027277 5.4375 8.40625 C5.70934989 14.04713526 4.88862922 17.67930087 1 22 C-2.01138108 24.36608514 -5.2016997 24.36235625 -8.97265625 24.25 C-13.21884809 23.72638482 -16.03311225 22.06357652 -18.875 18.9375 C-20.5461527 14.57393461 -20.78122359 10.60627117 -20 6 C-18.26813525 2.38084674 -15.76797457 0.41889522 -12.25 -1.5 C-7.76627926 -2.18980319 -4.1986331 -1.72884892 0 0 Z " fill="#3FA7D7" transform="translate(315,138)"/>
<path d="M0 0 C3.76456766 2.06682146 7.05213977 4.10427955 9 8 C9.53622663 13.54100846 9.28076839 17.29756531 6 22 C1.67481024 24.94899302 -1.81962079 25.6475474 -7 25 C-10.70390021 22.97333762 -12.65363011 21.51955484 -15 18 C-15.66100598 13.95742659 -15.91928345 9.79827957 -14.01953125 6.08203125 C-10.00853708 1.08371544 -6.35139369 -0.76216724 0 0 Z " fill="#41A7D7" transform="translate(193,279)"/>
<path d="M0 0 C3.77327682 1.64055514 5.80680609 3.55705313 8 7 C8.80503292 11.06541625 8.95254041 15.23956421 6.9453125 18.94921875 C4.54832816 21.87807831 2.60108153 23.82713987 -1.20703125 24.23828125 C-8.24770268 24.43884011 -8.24770268 24.43884011 -12 22.25 C-15.72489143 18.05949714 -16.44181007 14.6871557 -16.32421875 9.1875 C-15.83827138 5.90881896 -14.37037765 4.2349275 -12 2 C-7.9556813 -0.69621247 -4.74665346 -0.54319098 0 0 Z " fill="#41A7D7" transform="translate(330,292)"/>
<path d="M0 0 C6.08737138 0.10495468 11.5883525 1.61947826 17.375 3.375 C18.07705566 3.58390869 18.77911133 3.79281738 19.50244141 4.00805664 C25.98010002 6.06059331 25.98010002 6.06059331 28 9 C28.38976435 12.11811483 28.50422245 14.11019567 26.9375 16.875 C23.494447 18.87419206 19.6959693 18.40589659 15.90063477 17.49755859 C13.67823734 16.80953627 11.49768081 16.0480994 9.3125 15.25 C8.56677734 14.99734375 7.82105469 14.7446875 7.05273438 14.484375 C2.89414232 13.00048845 -0.28897355 11.66743631 -3 8 C-2.85205998 4.3014996 -2.64194427 2.64194427 0 0 Z " fill="#41A7D7" transform="translate(236,261)"/>
<path d="M0 0 C0.67804688 0.21205078 1.35609375 0.42410156 2.0546875 0.64257812 C2.74820313 0.84302734 3.44171875 1.04347656 4.15625 1.25 C8.30165423 2.53253407 11.18429348 3.80680222 13.8046875 7.33007812 C13.65674748 11.02857853 13.44663177 12.68813386 10.8046875 15.33007812 C4.57337878 15.85446148 -0.20106588 14.68549853 -6.0078125 12.51757812 C-6.75740234 12.25654297 -7.50699219 11.99550781 -8.27929688 11.7265625 C-14.6963249 9.40404565 -14.6963249 9.40404565 -17.1953125 6.33007812 C-17.58462086 3.21561124 -17.64630308 1.20387238 -16.1953125 -1.60742188 C-11.63955268 -4.02766928 -4.75035531 -1.43142836 0 0 Z " fill="#41A7D7" transform="translate(201.1953125,331.669921875)"/>
<path d="M0 0 C4.35702467 0.90844846 8.42517656 2.18272296 12.609375 3.6796875 C13.36347656 3.93621094 14.11757813 4.19273437 14.89453125 4.45703125 C15.62027344 4.71355469 16.34601563 4.97007812 17.09375 5.234375 C17.74569336 5.46366699 18.39763672 5.69295898 19.06933594 5.92919922 C21.14445245 6.94411573 22.39016774 8.02749251 23.859375 9.8046875 C24.27764112 12.59312831 24.22641413 14.13942908 22.859375 16.6171875 C19.18261548 18.80026346 14.70587349 18.24056945 10.66162109 17.28588867 C8.42775912 16.58603794 6.23983124 15.81091697 4.046875 14.9921875 C3.29728516 14.73115234 2.54769531 14.47011719 1.77539062 14.20117188 C-4.79928479 11.82159766 -4.79928479 11.82159766 -7.140625 8.8046875 C-7.015625 5.2421875 -7.015625 5.2421875 -6.140625 1.8046875 C-3.140625 -0.1953125 -3.140625 -0.1953125 0 0 Z " fill="#41A7D7" transform="translate(327.140625,335.1953125)"/>
</svg>
